<svg xmlns="http://www.w3.org/2000/svg" width="1180.237" height="171.814">
    <defs>
        <style>
            .cls-1{fill:none;stroke:#c6c6c5;stroke-width:1.759px;stroke-dasharray:5}.cls-1,.cls-3{stroke-miterlimit:10}.cls-2{font-size:18px;font-family:Poppins-Regular,Poppins}.cls-3{fill:#fff;stroke:#cad1de;stroke-width:2px}.cls-4{fill:#cad1de}.cls-5{fill:#b1b1b1}.cls-7{fill:#cec9ae}.cls-10{fill:#eaeaea}.cls-11{fill:#d6d6d6}.cls-22{fill:#696969}.cls-24{fill:#393939}.cls-25{fill:#7c8489}.cls-31,.cls-33,.cls-34{fill-rule:evenodd}.cls-31{fill:#ffe5c1}.cls-33,.cls-36{fill:#fddec5}.cls-34{fill:#fed1a3}.cls-40{fill:#c96b3b}.cls-46{fill:#f1f2f2}
        </style>
    </defs>
    <g id="Group_168" data-name="Group 168" transform="translate(-180.009 -2236)">
        <g id="process" transform="translate(145.595 2208.114)">
            <path id="Path_424" data-name="Path 424" class="cls-1" d="M359.514 72.993c7.915 1.231 18.292 4.045 26.559 12.136 6.508 6.156 6.86 10.905 11.257 14.423 6.332 5.1 26.375.176 55.748-14.423" transform="translate(3)"/>
            <path id="Path_556" data-name="Path 556" class="cls-1" d="M359.514 72.993c7.915 1.231 18.292 4.045 26.559 12.136 6.508 6.156 39.562-15.654 43.959-12.136 17.215 5.216 9.722-9.549 22.7 8.328" transform="translate(210.708)"/>
            <path id="Path_425" data-name="Path 425" class="cls-1" d="M245.944 70.883c-8.9 1.219-20.567 4.007-29.861 12.02-7.317 6.1-7.713 10.8-12.656 14.285-7.119 5.052-21.951 6.794-54.977-7.665" transform="translate(0 .289)"/>
            <path id="Path_426" data-name="Path 426" class="cls-1" d="M141.862 279.179c7.915 1.231 16.437 4.88 24.7 12.97 6.508 6.156 6.86 10.905 11.257 14.423 6.332 5.1 29.476 2.085 58.85-12.513" transform="translate(848.668 -213.583)"/>
            <path id="Path_427" data-name="Path 427" class="cls-1" d="M455.146 289.466c-7.915 1.231-27.036 2.156-35.3 10.247-6.508 6.156-6.86 10.9-11.257 14.423-6.332 5.1-29.39.176-58.763-14.423" transform="translate(431.963 -218.792)"/>
            <path id="Path_665" data-name="Path 665" d="M5.292-12.546a7.746 7.746 0 0 1 3.555.765 5.377 5.377 0 0 1 2.3 2.187 6.711 6.711 0 0 1 .8 3.348 6.66 6.66 0 0 1-.8 3.339 5.283 5.283 0 0 1-2.3 2.16A7.9 7.9 0 0 1 5.292 0H1.386v-12.546zm0 11.2A5 5 0 0 0 9-2.637a4.9 4.9 0 0 0 1.278-3.609A5 5 0 0 0 8.991-9.9a4.946 4.946 0 0 0-3.7-1.314H3.024v9.864zm17.82-3.96a9.64 9.64 0 0 1-.054.99h-7.884a3.189 3.189 0 0 0 1 2.277 3.177 3.177 0 0 0 2.2.819 3.029 3.029 0 0 0 1.773-.495 2.62 2.62 0 0 0 1-1.323h1.764A4.24 4.24 0 0 1 21.33-.729a4.781 4.781 0 0 1-2.952.891 4.986 4.986 0 0 1-2.511-.63 4.459 4.459 0 0 1-1.737-1.791 5.554 5.554 0 0 1-.63-2.691 5.634 5.634 0 0 1 .612-2.682A4.3 4.3 0 0 1 15.831-9.4a5.117 5.117 0 0 1 2.547-.621 4.95 4.95 0 0 1 2.484.612 4.238 4.238 0 0 1 1.665 1.683 4.967 4.967 0 0 1 .585 2.416zm-1.692-.346a3.021 3.021 0 0 0-.414-1.611 2.692 2.692 0 0 0-1.125-1.026 3.509 3.509 0 0 0-1.575-.351 3.036 3.036 0 0 0-2.115.792 3.227 3.227 0 0 0-1 2.2zm5.49-2.394a3.906 3.906 0 0 1 1.449-1.413 4.335 4.335 0 0 1 2.241-.567 4.616 4.616 0 0 1 2.385.63 4.44 4.44 0 0 1 1.683 1.773 5.541 5.541 0 0 1 .612 2.655 5.662 5.662 0 0 1-.612 2.668 4.524 4.524 0 0 1-1.683 1.814A4.518 4.518 0 0 1 30.6.162a4.3 4.3 0 0 1-2.223-.567 4.054 4.054 0 0 1-1.467-1.413v6.5h-1.638V-9.864h1.638zm6.7 3.078a4.01 4.01 0 0 0-.45-1.944 3.116 3.116 0 0 0-1.215-1.26 3.364 3.364 0 0 0-1.687-.428 3.276 3.276 0 0 0-1.665.441 3.224 3.224 0 0 0-1.224 1.278 3.96 3.96 0 0 0-.459 1.931A4 4 0 0 0 27.369-3a3.224 3.224 0 0 0 1.224 1.278 3.276 3.276 0 0 0 1.665.441 3.31 3.31 0 0 0 1.683-.441A3.164 3.164 0 0 0 33.156-3a4.1 4.1 0 0 0 .45-1.968zm3.222 0a5.541 5.541 0 0 1 .612-2.655A4.44 4.44 0 0 1 39.123-9.4a4.616 4.616 0 0 1 2.385-.63 4.377 4.377 0 0 1 2.25.558 3.718 3.718 0 0 1 1.422 1.4v-1.8h1.656V0H45.18v-1.836a3.859 3.859 0 0 1-1.449 1.431 4.335 4.335 0 0 1-2.241.567 4.471 4.471 0 0 1-2.376-.648A4.545 4.545 0 0 1 37.44-2.3a5.662 5.662 0 0 1-.612-2.668zm8.352.018a4.01 4.01 0 0 0-.45-1.944 3.178 3.178 0 0 0-1.215-1.269 3.31 3.31 0 0 0-1.687-.437 3.314 3.314 0 0 0-1.674.432 3.134 3.134 0 0 0-1.206 1.26 4.01 4.01 0 0 0-.45 1.944A4.1 4.1 0 0 0 38.952-3a3.183 3.183 0 0 0 1.206 1.278 3.262 3.262 0 0 0 1.674.441 3.31 3.31 0 0 0 1.683-.441A3.164 3.164 0 0 0 44.73-3a4.063 4.063 0 0 0 .45-1.95zm6.066-3.312a3.142 3.142 0 0 1 1.233-1.314 3.811 3.811 0 0 1 1.953-.468v1.692H54q-2.754 0-2.754 2.988V0h-1.638v-9.864h1.638zm7.074-.252V-2.7a1.383 1.383 0 0 0 .306 1.017 1.508 1.508 0 0 0 1.062.3h1.206V0h-1.48a2.937 2.937 0 0 1-2.052-.63 2.7 2.7 0 0 1-.684-2.07v-5.814H55.4v-1.35h1.278v-2.484h1.642v2.484h2.574v1.35zm16.416-1.53a4.315 4.315 0 0 1 2.052.477 3.442 3.442 0 0 1 1.418 1.431 4.778 4.778 0 0 1 .522 2.322V0h-1.62v-5.58a3.2 3.2 0 0 0-.729-2.259 2.563 2.563 0 0 0-1.971-.783 2.634 2.634 0 0 0-2.034.819 3.368 3.368 0 0 0-.756 2.367V0H70v-5.58a3.2 3.2 0 0 0-.729-2.259 2.563 2.563 0 0 0-1.971-.783 2.634 2.634 0 0 0-2.034.819 3.368 3.368 0 0 0-.756 2.367V0h-1.636v-9.864h1.638v1.422a3.237 3.237 0 0 1 1.305-1.188 3.952 3.952 0 0 1 1.809-.414 4.269 4.269 0 0 1 2.2.558 3.4 3.4 0 0 1 1.422 1.638 3.235 3.235 0 0 1 1.368-1.62 4.03 4.03 0 0 1 2.12-.576zM90.414-5.31a9.639 9.639 0 0 1-.054.99h-7.884a3.189 3.189 0 0 0 1 2.277 3.177 3.177 0 0 0 2.205.819 3.029 3.029 0 0 0 1.773-.495 2.62 2.62 0 0 0 1-1.323h1.764a4.24 4.24 0 0 1-1.586 2.313 4.781 4.781 0 0 1-2.952.891 4.986 4.986 0 0 1-2.511-.63 4.459 4.459 0 0 1-1.737-1.791A5.554 5.554 0 0 1 80.8-4.95a5.634 5.634 0 0 1 .612-2.682A4.3 4.3 0 0 1 83.133-9.4a5.117 5.117 0 0 1 2.547-.621 4.95 4.95 0 0 1 2.484.612 4.238 4.238 0 0 1 1.665 1.683 4.967 4.967 0 0 1 .585 2.416zm-1.692-.342a3.021 3.021 0 0 0-.414-1.611 2.692 2.692 0 0 0-1.125-1.026 3.509 3.509 0 0 0-1.575-.351 3.036 3.036 0 0 0-2.115.792 3.227 3.227 0 0 0-1 2.2zm8.658-4.392a4 4 0 0 1 2.92 1.089 4.191 4.191 0 0 1 1.116 3.141V0h-1.62v-5.58a3.172 3.172 0 0 0-.738-2.259 2.637 2.637 0 0 0-2.016-.783 2.7 2.7 0 0 0-2.061.81 3.309 3.309 0 0 0-.765 2.358V0h-1.642v-9.864h1.638v1.4a3.252 3.252 0 0 1 1.323-1.17 4.1 4.1 0 0 1 1.845-.41zm8.712 1.53V-2.7a1.383 1.383 0 0 0 .306 1.017 1.508 1.508 0 0 0 1.062.3h1.206V0h-1.476a2.937 2.937 0 0 1-2.052-.63 2.7 2.7 0 0 1-.684-2.07v-5.814h-1.278v-1.35h1.278v-2.484h1.638v2.484h2.574v1.35zm8.046 8.676a5.1 5.1 0 0 1-2.038-.387 3.431 3.431 0 0 1-1.422-1.08 2.874 2.874 0 0 1-.576-1.593h1.698a1.66 1.66 0 0 0 .693 1.206 2.637 2.637 0 0 0 1.629.468 2.37 2.37 0 0 0 1.476-.414 1.265 1.265 0 0 0 .54-1.044 1.03 1.03 0 0 0-.576-.963 8.076 8.076 0 0 0-1.782-.621 13.1 13.1 0 0 1-1.791-.585 3.178 3.178 0 0 1-1.188-.882 2.3 2.3 0 0 1-.5-1.539 2.332 2.332 0 0 1 .45-1.386 3.05 3.05 0 0 1 1.278-1 4.6 4.6 0 0 1 1.89-.369 4.036 4.036 0 0 1 2.646.828 2.983 2.983 0 0 1 1.08 2.268h-1.635a1.693 1.693 0 0 0-.621-1.242 2.315 2.315 0 0 0-1.521-.468 2.346 2.346 0 0 0-1.4.378 1.168 1.168 0 0 0-.522.99 1.085 1.085 0 0 0 .315.8 2.3 2.3 0 0 0 .792.5 13.646 13.646 0 0 0 1.323.423 14.25 14.25 0 0 1 1.728.567 3.022 3.022 0 0 1 1.143.837 2.238 2.238 0 0 1 .495 1.458 2.5 2.5 0 0 1-.45 1.458 3 3 0 0 1-1.269 1.017 4.536 4.536 0 0 1-1.885.375z" transform="translate(33.028 172.593)"/>
            <path id="Path_664" data-name="Path 664" d="M8.478-12.546v1.332H3.024v4.23h4.428v1.332H3.024V0H1.386v-12.546zm2.826 1.08a1.077 1.077 0 0 1-.792-.324 1.077 1.077 0 0 1-.324-.792 1.077 1.077 0 0 1 .324-.792 1.077 1.077 0 0 1 .788-.326 1.027 1.027 0 0 1 .765.324 1.093 1.093 0 0 1 .315.792 1.093 1.093 0 0 1-.315.792 1.027 1.027 0 0 1-.765.326zm.792 1.6V0h-1.638v-9.864zm4.428-3.456V0h-1.638v-13.32zm11.79 8.01a9.64 9.64 0 0 1-.054.99h-7.884a3.189 3.189 0 0 0 1 2.277 3.177 3.177 0 0 0 2.2.819 3.029 3.029 0 0 0 1.773-.495 2.62 2.62 0 0 0 1-1.323h1.764a4.24 4.24 0 0 1-1.581 2.315 4.781 4.781 0 0 1-2.952.891 4.986 4.986 0 0 1-2.511-.63 4.459 4.459 0 0 1-1.737-1.791A5.554 5.554 0 0 1 18.7-4.95a5.634 5.634 0 0 1 .612-2.682A4.3 4.3 0 0 1 21.033-9.4a5.117 5.117 0 0 1 2.547-.621 4.95 4.95 0 0 1 2.484.612 4.238 4.238 0 0 1 1.665 1.683 4.967 4.967 0 0 1 .585 2.416zm-1.692-.342a3.021 3.021 0 0 0-.414-1.611 2.692 2.692 0 0 0-1.125-1.026 3.509 3.509 0 0 0-1.575-.351 3.036 3.036 0 0 0-2.115.792 3.227 3.227 0 0 0-1 2.2zM33.966.162a5.1 5.1 0 0 1-2.034-.387A3.431 3.431 0 0 1 30.51-1.3a2.874 2.874 0 0 1-.576-1.6h1.692a1.66 1.66 0 0 0 .693 1.206 2.637 2.637 0 0 0 1.629.468 2.37 2.37 0 0 0 1.476-.414 1.265 1.265 0 0 0 .54-1.044 1.03 1.03 0 0 0-.576-.963 8.076 8.076 0 0 0-1.782-.621 13.1 13.1 0 0 1-1.791-.585 3.178 3.178 0 0 1-1.188-.882 2.3 2.3 0 0 1-.495-1.539 2.332 2.332 0 0 1 .45-1.386 3.05 3.05 0 0 1 1.278-1 4.6 4.6 0 0 1 1.89-.369 4.036 4.036 0 0 1 2.65.829 2.983 2.983 0 0 1 1.08 2.268h-1.642a1.693 1.693 0 0 0-.621-1.242A2.315 2.315 0 0 0 33.7-8.64a2.346 2.346 0 0 0-1.4.378 1.168 1.168 0 0 0-.522.99 1.085 1.085 0 0 0 .315.8 2.3 2.3 0 0 0 .792.5 13.646 13.646 0 0 0 1.323.423 14.25 14.25 0 0 1 1.728.567 3.022 3.022 0 0 1 1.143.837 2.238 2.238 0 0 1 .495 1.458 2.5 2.5 0 0 1-.45 1.458 3 3 0 0 1-1.277 1.022 4.536 4.536 0 0 1-1.881.369z" transform="translate(280.875 172.593)"/>
            <path id="Path_662" data-name="Path 662" d="M9.774-8.874A3.466 3.466 0 0 1 8.7-6.273a4.542 4.542 0 0 1-3.264 1.035H3.024V0H1.386v-12.546h4.05a4.591 4.591 0 0 1 3.231 1.026 3.444 3.444 0 0 1 1.107 2.646zM5.436-6.588a2.912 2.912 0 0 0 2.016-.594A2.18 2.18 0 0 0 8.1-8.874q0-2.326-2.664-2.326H3.024v4.608zM16.11.162a5.05 5.05 0 0 1-2.51-.63 4.485 4.485 0 0 1-1.764-1.791A5.491 5.491 0 0 1 11.2-4.95a5.333 5.333 0 0 1 .657-2.673A4.527 4.527 0 0 1 13.644-9.4a5.2 5.2 0 0 1 2.538-.621 5.2 5.2 0 0 1 2.538.621 4.543 4.543 0 0 1 1.791 1.773 5.32 5.32 0 0 1 .657 2.682 5.256 5.256 0 0 1-.675 2.691 4.678 4.678 0 0 1-1.827 1.786 5.239 5.239 0 0 1-2.556.63zm0-1.44a3.459 3.459 0 0 0 1.656-.414 3.15 3.15 0 0 0 1.251-1.242 3.978 3.978 0 0 0 .477-2.016 4.04 4.04 0 0 0-.468-2.016A3.065 3.065 0 0 0 17.8-8.2a3.415 3.415 0 0 0-1.638-.4 3.4 3.4 0 0 0-1.647.4 2.969 2.969 0 0 0-1.2 1.233 4.171 4.171 0 0 0-.45 2.016 4.284 4.284 0 0 0 .441 2.034 2.931 2.931 0 0 0 1.184 1.234 3.312 3.312 0 0 0 1.62.405zm8.856-6.984A3.142 3.142 0 0 1 26.2-9.576a3.811 3.811 0 0 1 1.953-.468v1.692h-.433q-2.754 0-2.754 2.988V0h-1.638v-9.864h1.638zm7.074-.252V-2.7a1.383 1.383 0 0 0 .306 1.017 1.508 1.508 0 0 0 1.062.3h1.206V0h-1.476a2.937 2.937 0 0 1-2.052-.63A2.7 2.7 0 0 1 30.4-2.7v-5.814h-1.276v-1.35H30.4v-2.484h1.64v2.484h2.574v1.35zm3.942 3.546a5.541 5.541 0 0 1 .612-2.655A4.44 4.44 0 0 1 38.277-9.4a4.616 4.616 0 0 1 2.385-.63 4.377 4.377 0 0 1 2.25.558 3.718 3.718 0 0 1 1.422 1.4v-1.8h1.656V0h-1.656v-1.836a3.859 3.859 0 0 1-1.449 1.431 4.335 4.335 0 0 1-2.241.567 4.471 4.471 0 0 1-2.376-.648A4.545 4.545 0 0 1 36.594-2.3a5.662 5.662 0 0 1-.612-2.668zm8.352.018a4.01 4.01 0 0 0-.45-1.944 3.178 3.178 0 0 0-1.215-1.269 3.31 3.31 0 0 0-1.683-.437 3.314 3.314 0 0 0-1.674.432 3.134 3.134 0 0 0-1.206 1.26 4.01 4.01 0 0 0-.45 1.944A4.1 4.1 0 0 0 38.106-3a3.183 3.183 0 0 0 1.206 1.278 3.262 3.262 0 0 0 1.674.441 3.31 3.31 0 0 0 1.683-.441A3.164 3.164 0 0 0 43.884-3a4.063 4.063 0 0 0 .45-1.95zm6.066-8.37V0h-1.638v-13.32z" transform="translate(485.015 172.593)"/>
            <g id="Group" transform="translate(201.251 -213.996)">
                <text id="Easily_access_by" data-name="Easily access by" class="cls-2" transform="translate(448.535 386.59)"><tspan x="0" y="0">Easily access by</tspan></text>
                <text id="Citizen" class="cls-2" transform="translate(490.045 407.696)"><tspan x="0" y="0">Citizen</tspan></text>
            </g>
            <path id="Path_663" data-name="Path 663" d="M14.112-12.456V0h-1.638v-9.288L8.334 0H7.182L3.024-9.306V0H1.386v-12.456H3.15L7.758-2.16l4.608-10.3zM21.186.162a5.05 5.05 0 0 1-2.511-.63 4.485 4.485 0 0 1-1.764-1.791 5.491 5.491 0 0 1-.639-2.691 5.333 5.333 0 0 1 .657-2.673A4.527 4.527 0 0 1 18.72-9.4a5.2 5.2 0 0 1 2.538-.621A5.2 5.2 0 0 1 23.8-9.4a4.543 4.543 0 0 1 1.791 1.773 5.32 5.32 0 0 1 .657 2.682 5.256 5.256 0 0 1-.675 2.691 4.678 4.678 0 0 1-1.831 1.786 5.239 5.239 0 0 1-2.556.63zm0-1.44a3.459 3.459 0 0 0 1.656-.414 3.15 3.15 0 0 0 1.251-1.242 3.978 3.978 0 0 0 .477-2.016 4.04 4.04 0 0 0-.47-2.016A3.065 3.065 0 0 0 22.878-8.2a3.415 3.415 0 0 0-1.638-.4 3.4 3.4 0 0 0-1.647.4 2.969 2.969 0 0 0-1.2 1.233 4.171 4.171 0 0 0-.45 2.016 4.284 4.284 0 0 0 .441 2.034 2.931 2.931 0 0 0 1.179 1.233 3.312 3.312 0 0 0 1.623.406zm8.856-6.984a3.142 3.142 0 0 1 1.233-1.314 3.811 3.811 0 0 1 1.953-.468v1.692H32.8q-2.754 0-2.754 2.988V0H28.4v-9.864h1.638zM44.118-5.31a9.64 9.64 0 0 1-.054.99H36.18a3.189 3.189 0 0 0 1 2.277 3.177 3.177 0 0 0 2.205.819 3.029 3.029 0 0 0 1.773-.495 2.62 2.62 0 0 0 1-1.323h1.762a4.24 4.24 0 0 1-1.584 2.313 4.781 4.781 0 0 1-2.952.891 4.986 4.986 0 0 1-2.511-.63 4.459 4.459 0 0 1-1.737-1.791 5.554 5.554 0 0 1-.63-2.691 5.634 5.634 0 0 1 .612-2.682A4.3 4.3 0 0 1 36.837-9.4a5.117 5.117 0 0 1 2.547-.621 4.95 4.95 0 0 1 2.484.612 4.238 4.238 0 0 1 1.665 1.683 4.967 4.967 0 0 1 .585 2.416zm-1.692-.342a3.021 3.021 0 0 0-.414-1.611 2.692 2.692 0 0 0-1.125-1.026 3.509 3.509 0 0 0-1.575-.351 3.036 3.036 0 0 0-2.115.792 3.227 3.227 0 0 0-1 2.2zm17.658.342a9.64 9.64 0 0 1-.054.99h-7.884a3.189 3.189 0 0 0 1 2.277 3.177 3.177 0 0 0 2.205.819 3.029 3.029 0 0 0 1.773-.495 2.62 2.62 0 0 0 1-1.323h1.764A4.24 4.24 0 0 1 58.3-.729a4.781 4.781 0 0 1-2.95.891 4.986 4.986 0 0 1-2.511-.63A4.459 4.459 0 0 1 51.1-2.259a5.554 5.554 0 0 1-.63-2.691 5.634 5.634 0 0 1 .612-2.682A4.3 4.3 0 0 1 52.8-9.4a5.117 5.117 0 0 1 2.547-.621 4.95 4.95 0 0 1 2.484.612A4.238 4.238 0 0 1 59.5-7.731a4.967 4.967 0 0 1 .584 2.421zm-1.692-.342a3.021 3.021 0 0 0-.414-1.611 2.692 2.692 0 0 0-1.125-1.026 3.509 3.509 0 0 0-1.575-.351 3.036 3.036 0 0 0-2.115.792 3.227 3.227 0 0 0-1 2.2zm7.866-2.862h-2.07V0H62.55v-8.514h-1.278v-1.35h1.278v-.7a3.1 3.1 0 0 1 .855-2.421 4.055 4.055 0 0 1 2.745-.765v1.368a2.175 2.175 0 0 0-1.521.423 1.87 1.87 0 0 0-.441 1.4v.7h2.07zm5.922 0h-2.07V0h-1.638v-8.514h-1.278v-1.35h1.278v-.7a3.1 3.1 0 0 1 .855-2.421 4.056 4.056 0 0 1 2.745-.765v1.368a2.175 2.175 0 0 0-1.521.423 1.87 1.87 0 0 0-.441 1.4v.7h2.07zm2.754-2.952a1.077 1.077 0 0 1-.792-.324 1.077 1.077 0 0 1-.324-.792 1.077 1.077 0 0 1 .324-.792 1.077 1.077 0 0 1 .792-.324 1.027 1.027 0 0 1 .765.324 1.093 1.093 0 0 1 .315.792 1.093 1.093 0 0 1-.315.792 1.027 1.027 0 0 1-.765.324zm.792 1.6V0h-1.638v-9.864zM77.9-4.95a5.58 5.58 0 0 1 .612-2.673 4.4 4.4 0 0 1 1.7-1.773 4.887 4.887 0 0 1 2.493-.63 4.867 4.867 0 0 1 3 .882A4.163 4.163 0 0 1 87.264-6.7H85.5a2.533 2.533 0 0 0-.981-1.422 3.027 3.027 0 0 0-1.809-.518 2.9 2.9 0 0 0-2.268.963 3.945 3.945 0 0 0-.864 2.727 4.009 4.009 0 0 0 .864 2.75 2.889 2.889 0 0 0 2.268.972 3.063 3.063 0 0 0 1.8-.5 2.555 2.555 0 0 0 .99-1.44h1.764A4.339 4.339 0 0 1 85.68-.747a4.745 4.745 0 0 1-2.97.909 4.887 4.887 0 0 1-2.493-.63 4.389 4.389 0 0 1-1.7-1.782 5.674 5.674 0 0 1-.617-2.7zm12.384-6.516a1.077 1.077 0 0 1-.792-.324 1.077 1.077 0 0 1-.324-.792 1.077 1.077 0 0 1 .324-.792 1.077 1.077 0 0 1 .792-.324 1.027 1.027 0 0 1 .765.324 1.093 1.093 0 0 1 .315.792 1.093 1.093 0 0 1-.315.792 1.027 1.027 0 0 1-.761.324zm.792 1.6V0h-1.634v-9.864zM102.87-5.31a9.639 9.639 0 0 1-.054.99h-7.884a3.189 3.189 0 0 0 1 2.277 3.177 3.177 0 0 0 2.205.819 3.029 3.029 0 0 0 1.773-.495 2.62 2.62 0 0 0 1-1.323h1.764a4.24 4.24 0 0 1-1.584 2.313 4.781 4.781 0 0 1-2.952.891 4.986 4.986 0 0 1-2.511-.63 4.459 4.459 0 0 1-1.737-1.791 5.554 5.554 0 0 1-.63-2.691 5.634 5.634 0 0 1 .612-2.682A4.3 4.3 0 0 1 95.589-9.4a5.117 5.117 0 0 1 2.547-.621 4.95 4.95 0 0 1 2.484.612 4.238 4.238 0 0 1 1.665 1.683 4.967 4.967 0 0 1 .585 2.416zm-1.692-.342a3.021 3.021 0 0 0-.414-1.611 2.692 2.692 0 0 0-1.125-1.026 3.509 3.509 0 0 0-1.575-.351 3.036 3.036 0 0 0-2.115.792 3.227 3.227 0 0 0-1 2.2zm8.658-4.392a4 4 0 0 1 2.916 1.089 4.191 4.191 0 0 1 1.116 3.141V0h-1.62v-5.58a3.172 3.172 0 0 0-.738-2.259 2.637 2.637 0 0 0-2.016-.783 2.7 2.7 0 0 0-2.061.81 3.309 3.309 0 0 0-.765 2.358V0h-1.638v-9.864h1.638v1.4a3.252 3.252 0 0 1 1.323-1.17 4.1 4.1 0 0 1 1.845-.41zm8.712 1.53V-2.7a1.383 1.383 0 0 0 .306 1.017 1.508 1.508 0 0 0 1.062.3h1.206V0h-1.476a2.937 2.937 0 0 1-2.052-.63 2.7 2.7 0 0 1-.684-2.07v-5.814h-1.278v-1.35h1.278v-2.484h1.638v2.484h2.574v1.35z" transform="translate(874.218 172.593)"/>
            <g id="Group-2" data-name="Group" transform="translate(1057.246 -213.996)">
                <text id="Business_easily" data-name="Business easily" class="cls-2" transform="translate(22.405 386.59)"><tspan x="0" y="0">Business easily</tspan></text>
                <text id="done" class="cls-2" transform="translate(64.618 407.696)"><tspan x="0" y="0">done</tspan></text>
            </g>
            <g id="Group_204" data-name="Group 204" transform="translate(4)">
                <circle id="Ellipse_31" data-name="Ellipse 31" class="cls-3" cx="55" cy="55" r="55" transform="translate(245.944 31.009)"/>
                <g id="folder" transform="translate(276.405 56.887)">
                    <path id="Path_486" data-name="Path 486" class="cls-4" d="M46.324 58H1.565a1.564 1.564 0 0 1-1.51-1.973l10.166-27.871A1.564 1.564 0 0 1 11.731 27H56.49c1.03 0 1.51.984 1.51 1.973L47.834 56.844A1.564 1.564 0 0 1 46.324 58z"/>
                    <path id="Path_487" data-name="Path 487" class="cls-5" d="M50.268 18H48v9h4v-7.268A1.732 1.732 0 0 0 50.268 18z"/>
                    <path id="Path_488" data-name="Path 488" class="cls-4" d="M4 11H1.732A1.732 1.732 0 0 0 0 12.732V55.46c.069 0 .138.006.2.01L4 45.122z"/>
                    <path id="Path_489" data-name="Path 489" d="M10.221 28.156A1.564 1.564 0 0 1 11.731 27H48V0H10v28.761z" style="fill:#fcfcfc"/>
                    <g id="Group_165" data-name="Group 165">
                        <path id="Path_490" data-name="Path 490" class="cls-7" d="M17 16h24a1 1 0 0 0 0-2H17a1 1 0 0 0 0 2z"/>
                        <path id="Path_491" data-name="Path 491" class="cls-7" d="M17 9h10a1 1 0 0 0 0-2H17a1 1 0 0 0 0 2z"/>
                        <path id="Path_492" data-name="Path 492" class="cls-7" d="M41 21H17a1 1 0 0 0 0 2h24a1 1 0 0 0 0-2z"/>
                    </g>
                    <path id="Path_493" data-name="Path 493" d="M10 28.761V2H7v34.986z" style="fill:#e3e3e3"/>
                    <path id="Path_494" data-name="Path 494" class="cls-5" d="M7 36.986V4H4v41.211z"/>
                </g>
            </g>
            <g id="Group_205" data-name="Group 205" transform="translate(1.064)">
                <circle id="Ellipse_40" data-name="Ellipse 40" cx="55" cy="55" r="55" transform="translate(456.015 31.009)" style="stroke:#58bc6e;stroke-width:2px;fill:#fff;stroke-miterlimit:10"/>
                <g id="desktop" transform="translate(483.405 48.26)">
                    <path id="Path_495" data-name="Path 495" class="cls-10" d="m164.078 401-9.433 3.363-.358 1.25a4.732 4.732 0 0 1-4.287 3.235v.841h19.564z" transform="translate(-133.183 -346.276)"/>
                    <path id="Path_496" data-name="Path 496" class="cls-11" d="m204.584 378.977-1.318-4.613-5.438-3.364-5.437 3.363-.961 3.363h9.433l.358 1.25a4.732 4.732 0 0 0 4.287 3.234l1.682.841 1.682-.841a4.732 4.732 0 0 1-4.288-3.233z" transform="translate(-169.968 -319.639)"/>
                    <path id="Path_497" data-name="Path 497" class="cls-11" d="M437 267.817h3.363a3.373 3.373 0 0 0 3.363-3.363v-6.727L437 251z" transform="translate(-388.006 -213.093)"/>
                    <path id="Path_498" data-name="Path 498" class="cls-10" d="M0 211.18a3.373 3.373 0 0 0 3.363 3.363h45.63a3.373 3.373 0 0 0 3.363-3.363V191L0 204.454z" transform="translate(0 -159.82)"/>
                    <path id="Path_499" data-name="Path 499" d="M440.363 11H437l3.363 33.634h3.363V14.363A3.373 3.373 0 0 0 440.363 11z" transform="translate(-388.006)" style="fill:#555"/>
                    <path id="Path_500" data-name="Path 500" d="M52.357 14.363A3.373 3.373 0 0 0 48.994 11H3.363A3.373 3.373 0 0 0 0 14.363v30.271h52.357v-3.363L27.86 27.816z" style="fill:#747474"/>
                    <path id="Path_501" data-name="Path 501" d="M273 40.976h-3.363L248.5 54.429l21.133 13.455h3.363L273 40.976z" transform="translate(-220.64 -26.614)" style="fill:#58bc6e"/>
                    <path id="Path_502" data-name="Path 502" d="M75.63 40.975H30.01L30 67.883h45.629s-.003-26.907.001-26.908z" transform="translate(-26.637 -26.613)" style="fill:#8ce29f"/>
                    <circle id="Ellipse_41" data-name="Ellipse 41" cx="1.682" cy="1.682" r="1.682" transform="translate(26.179 47.997)" style="fill:#fff"/>
                    <path id="Path_503" data-name="Path 503" class="cls-11" d="M121.6 472.682H86.841a.841.841 0 1 1 0-1.682H121.6a.841.841 0 1 1 0 1.682z" transform="translate(-76.358 -408.428)"/>
                </g>
            </g>
            <g id="Group_206" data-name="Group 206" transform="translate(211.771 -209.13)">
                <circle id="Ellipse_43" data-name="Ellipse 43" cx="55" cy="55" r="55" transform="translate(456.015 240.139)" style="stroke:#696969;stroke-width:2px;fill:#fff;stroke-miterlimit:10"/>
                <g id="access" transform="translate(479.984 214.458)">
                    <path id="Path_505" data-name="Path 505" d="M19.2 110.934h46.546V76.8H19.2z" transform="translate(-16.873 -16.873)" style="fill:#b5b5b5"/>
                    <path id="Path_506" data-name="Path 506" d="M234.473 76.8H211.2v34.132h23.273z" transform="translate(-185.6 -16.873)" style="fill:#8b8b8b"/>
                    <path id="Path_507" data-name="Path 507" d="M50.519 58.282a2.327 2.327 0 0 0-1.646-.682H2.327A2.327 2.327 0 0 0 0 59.93v34.131a2.327 2.327 0 0 0 2.327 2.327h14.74v4.655h-2.328a2.327 2.327 0 0 0 0 4.655h21.722a2.327 2.327 0 1 0 0-4.655h-2.327v-4.655h14.739a2.327 2.327 0 0 0 2.327-2.327V59.927a2.326 2.326 0 0 0-.681-1.645zm-3.973 33.452H4.655V62.257h41.891z" style="fill:#dbdbdb"/>
                    <path id="Path_508" data-name="Path 508" d="M236.118 58.282a2.327 2.327 0 0 0-1.646-.682H211.2v4.655h20.946v29.479H211.2V105.7h10.861a2.327 2.327 0 1 0 0-4.655h-2.327v-4.657h14.739a2.327 2.327 0 0 0 2.327-2.327V59.927a2.327 2.327 0 0 0-.682-1.645z" transform="translate(-185.6)" style="fill:#d5d5d5"/>
                    <g id="Group_166" data-name="Group 166" transform="translate(9.599 65.344)">
                        <path id="Path_509" data-name="Path 509" class="cls-22" d="M290.572 202.9a10.085 10.085 0 1 0-14.064 0 14.752 14.752 0 0 0-7.707 12.951 2.327 2.327 0 0 0 2.327 2.327h24.824a2.327 2.327 0 0 0 2.327-2.327 14.752 14.752 0 0 0-7.707-12.951z" transform="translate(-245.817 -177.829)"/>
                    </g>
                    <g id="Group_167" data-name="Group 167" transform="translate(11.644 68.774)">
                        <path id="Path_511" data-name="Path 511" class="cls-22" d="M397.432 202.9a10.078 10.078 0 0 0-7.032-17.3v32.582h12.412a2.327 2.327 0 0 0 2.327-2.327 14.752 14.752 0 0 0-7.707-12.955z" transform="translate(-354.723 -181.258)"/>
                    </g>
                </g>
            </g>
            <g id="Group_212" data-name="Group 212" transform="translate(-13)">
                <circle id="Ellipse_46" data-name="Ellipse 46" class="cls-3" cx="55" cy="55" r="55" transform="translate(893.218 32.25)"/>
                <g id="clock" transform="translate(913.405 61.438)">
                    <g id="Group_169" data-name="Group 169" transform="translate(-1 -6.35)">
                        <path id="Path_512" data-name="Path 512" class="cls-5" d="M19.875 81.213v32.906h2.843a4.484 4.484 0 0 1 3.883 6.726l-9.113 15.783a4.484 4.484 0 0 1-7.766 0L.607 120.846a4.484 4.484 0 0 1 3.883-6.727h2.845V81.213a2.822 2.822 0 0 1 2.822-2.822h6.9a2.822 2.822 0 0 1 2.822 2.822z" transform="translate(0 -78.391)"/>
                    </g>
                    <g id="Group_178" data-name="Group 178" transform="translate(12.103 5.76)">
                        <circle id="Ellipse_44" data-name="Ellipse 44" class="cls-7" cx="24.185" cy="24.185" r="24.185"/>
                        <circle id="Ellipse_45" data-name="Ellipse 45" cx="18.484" cy="18.484" transform="translate(5.701 5.7)" style="fill:#f8f8f8" r="18.484"/>
                        <path id="Path_517" data-name="Path 517" class="cls-10" d="M145.749 226.954a18.485 18.485 0 1 1 0-36.432 18.487 18.487 0 0 0 0 36.432z" transform="translate(-118.335 -184.553)"/>
                        <path id="Path_518" data-name="Path 518" class="cls-24" d="M188.533 310.54h-8.588a2.355 2.355 0 1 1 0-4.709h8.588a2.355 2.355 0 1 1 0 4.709z" transform="translate(-164.349 -284.001)"/>
                        <path id="Path_519" data-name="Path 519" class="cls-24" d="M241.479 273.471a2.355 2.355 0 0 1-2.355-2.355V265.1a2.355 2.355 0 0 1 4.709 0v6.013a2.355 2.355 0 0 1-2.354 2.358z" transform="translate(-217.294 -246.932)"/>
                        <g id="Group_177" data-name="Group 177" transform="translate(5.262 5.262)">
                            <g id="Group_171" data-name="Group 171" transform="translate(17.844)">
                                <path id="Path_520" data-name="Path 520" class="cls-25" d="M249.348 192.989a1.078 1.078 0 0 1-1.078-1.078V188.2a1.078 1.078 0 0 1 2.156 0v3.714a1.078 1.078 0 0 1-1.078 1.075z" transform="translate(-248.27 -187.118)"/>
                                <path id="Path_521" data-name="Path 521" class="cls-25" d="M249.348 422.093a1.078 1.078 0 0 1-1.078-1.078V417.3a1.078 1.078 0 1 1 2.156 0v3.714a1.078 1.078 0 0 1-1.078 1.079z" transform="translate(-248.27 -384.248)"/>
                            </g>
                            <g id="Group_172" data-name="Group 172" transform="translate(0 17.844)">
                                <path id="Path_522" data-name="Path 522" d="M354.308 317.133h-3.714a1.078 1.078 0 0 1 0-2.156h3.714a1.078 1.078 0 0 1 0 2.156z" transform="translate(-317.541 -314.977)" style="fill:#365e7d"/>
                                <path id="Path_523" data-name="Path 523" class="cls-25" d="M125.2 317.133h-3.714a1.078 1.078 0 1 1 0-2.156h3.714a1.078 1.078 0 1 1 0 2.156z" transform="translate(-120.411 -314.977)"/>
                            </g>
                        </g>
                        <path id="Path_532" data-name="Path 532" d="M135.387 221.657a19.562 19.562 0 1 1 19.563-19.562 19.585 19.585 0 0 1-19.563 19.562zm0-36.968a17.406 17.406 0 1 0 17.406 17.406 17.426 17.426 0 0 0-17.406-17.406z" transform="translate(-111.203 -177.91)" style="fill:#f0e4a0"/>
                    </g>
                    <g id="Group_179" data-name="Group 179" transform="translate(44.807 3.562)">
                        <path id="Path_533" data-name="Path 533" class="cls-4" d="M336.913 242.5v10.4h2.843a4.484 4.484 0 0 1 3.883 6.726l-9.113 15.783a4.484 4.484 0 0 1-7.767 0l-9.114-15.783a4.484 4.484 0 0 1 3.883-6.727h2.845V242.5a2.822 2.822 0 0 1 2.822-2.822h6.9a2.822 2.822 0 0 1 2.818 2.822z" transform="translate(-317.038 -239.678)"/>
                        <path id="Path_534" data-name="Path 534" d="M329.791 239.685h-2.6a2.821 2.821 0 0 0-2.821 2.821v10.4h-2.846a4.483 4.483 0 0 0-3.882 6.726l9.113 15.783a4.442 4.442 0 0 0 3.884 2.241 3 3 0 0 1-2.6-2.241l-6.105-15.783c-1.158-2.99.289-6.726 2.6-6.726h1.169a2.194 2.194 0 0 0 2.194-2.194v-8.2c.003-1.563.85-2.827 1.894-2.827z" transform="translate(-317.037 -239.685)" style="fill:#b7b8ba"/>
                    </g>
                </g>
            </g>
            <g id="Group_202" data-name="Group 202" transform="translate(-9.11 -4.13)">
                <g id="Group_211" data-name="Group 211" transform="translate(1061 -205)">
                    <circle id="Ellipse_48" data-name="Ellipse 48" cx="55" cy="55" r="55" transform="translate(38.449 240.139)" style="stroke:#de3a32;stroke-width:2px;fill:#fff;stroke-miterlimit:10"/>
                    <g id="handshake" transform="translate(59.556 216.6)">
                        <g id="Group_181" data-name="Group 181" transform="translate(9.233 65.53)">
                            <path id="Path_535" data-name="Path 535" d="m84.434 127.821-12.147 3.55-2.71 10.751c.469 3.949 1.209 7.645 3.65 9.715l20.147 16.374 2.437 1.875c3.67 2.823 7.146-1.122 4.356-4.038-.039-.043-.081-.085-.124-.128a3.6 3.6 0 0 0 2.926.866c2.038-.33 3.433-2.489 1.558-4.5 3.666 2.928 6.8-1.736 3.925-4.294 3.2 1.009 6.688-3.141 3.364-6.667a1.48 1.48 0 0 0-.077-.085l-8.339-12.415-11.18-7.164z" transform="translate(-69.577 -127.821)" style="fill-rule:evenodd;fill:#ffead9"/>
                        </g>
                        <g id="Group_182" data-name="Group 182" transform="translate(25.394 100.73)">
                            <path id="Path_536" data-name="Path 536" class="cls-31" d="M198.7 398.614c3.1-3.3-1.422-7.105-3.922-4.865L192.1 396.3a.844.844 0 0 1-.089.081c-2.248 2.26 1.837 7.408 5.216 3.805z" transform="translate(-191.363 -393.076)"/>
                        </g>
                        <g id="Group_183" data-name="Group 183" transform="translate(20.615 95.389)">
                            <path id="Path_537" data-name="Path 537" class="cls-31" d="m158.872 354.237-2.829 2.966-.012.016c-1.418 1.507-.434 3.817 1.244 4.718a2.923 2.923 0 0 0 3.5-.462l3.03-.047-.264-2.582.387-.365c3.03-2.881-1.345-7.859-4.759-4.558z" transform="translate(-155.351 -352.833)"/>
                        </g>
                        <g id="Group_184" data-name="Group 184" transform="translate(15.293 90.001)">
                            <path id="Path_538" data-name="Path 538" class="cls-31" d="m119.032 314.956-2.651 2.815-.372.4c-2.616 2.776 2.069 7.148 4.77 4.314l.465-.481c.039-.043 2.879-.338 3.189-.373l-.05-2.924.907-.951c3.119-3.273-1.755-7.583-4.724-4.426z" transform="translate(-115.241 -312.228)"/>
                        </g>
                        <g id="Group_185" data-name="Group 185" transform="translate(11.072 87.248)">
                            <path id="Path_539" data-name="Path 539" class="cls-31" d="m85.248 293.778-.9.975c-2.767 3.005 1.356 7.8 4.449 5.024l2.538-.392.112-2.423c2.507-2.838-1.864-7.89-5.305-4.155z" transform="translate(-83.437 -291.482)"/>
                        </g>
                        <g id="Group_186" data-name="Group 186" transform="translate(0 56.298)">
                            <path id="Path_540" data-name="Path 540" d="M16.681 59.051 4.377 70.9l-3.5 3.366A2.887 2.887 0 0 0 .8 78.329l5.22 5.444a.8.8 0 0 0 1.128.023l2.089-2.011 14.857-14.3 1.845-1.778a.8.8 0 0 0 .023-1.13l-5.22-5.444a2.873 2.873 0 0 0-4.061-.082z" transform="translate(0 -58.253)" style="fill:#ffc8c6;fill-rule:evenodd"/>
                        </g>
                        <g id="Group_187" data-name="Group 187" transform="translate(36.343 77.691)">
                            <path id="Path_541" data-name="Path 541" class="cls-33" d="m277.608 219.46-3.736.854 1.465 1.487 11.315 11.252.078.085a4.1 4.1 0 0 1 1.147 4.248c2.236-.854 3.658-3.9 1.124-6.589l-.078-.085-3.395-3.374z" transform="translate(-273.872 -219.46)"/>
                        </g>
                        <g id="Group_188" data-name="Group 188" transform="translate(21.711 65.53)">
                            <path id="Path_542" data-name="Path 542" class="cls-33" d="m165.985 127.821-2.379 2.287 7.436 3.669 2.732-2.116z" transform="translate(-163.606 -127.821)"/>
                        </g>
                        <g id="Group_189" data-name="Group 189" transform="translate(23.541 64.68)">
                            <path id="Path_543" data-name="Path 543" class="cls-31" d="M185.735 126.1 183 128.22l-2.573 1.988c-6.5 5.032-1.108 10 2.747 8.3l4.336-2.613 2.685-.613 3.736-.854 7.921 7.878 3.395 3.374c2.135-.8 5.154-3.106 8.413-8.356l-4.954-10.365-11.57-5.543-2.968 2.372c-.488.388-.341.314-.957.3-2.228-.07-5.061.151-6.723 1.437z" transform="translate(-177.397 -121.414)"/>
                        </g>
                        <g id="Group_190" data-name="Group 190" transform="translate(23.935 76.364)">
                            <path id="Path_544" data-name="Path 544" class="cls-34" d="m188.3 210.53-4.336 2.613a4.232 4.232 0 0 1-3.6-.124 4.272 4.272 0 0 0 5.386 1.852l4.336-2.613 2.686-.613 3.689-.843c-1.709-1.464-2.015-1.677-5.483-.881z" transform="translate(-180.368 -209.464)"/>
                        </g>
                        <g id="Group_191" data-name="Group 191" transform="translate(48.759 77.99)">
                            <path id="Path_545" data-name="Path 545" class="cls-34" d="M375.785 221.713c-2.9 4.671-5.611 7.012-7.677 8.037a7.007 7.007 0 0 1-.674.3l2.635 2.621c2.135-.8 5.154-3.106 8.413-8.356z" transform="translate(-367.434 -221.713)"/>
                        </g>
                        <g id="Group_192" data-name="Group 192" transform="translate(12.472 56.298)">
                            <path id="Path_546" data-name="Path 546" d="M93.99 63.1a2.873 2.873 0 0 1 4.042.093l5.22 5.444a.8.8 0 0 1-.023 1.13l2.379-2.287 1.845-1.778a.8.8 0 0 0 .023-1.13l-5.22-5.444a2.873 2.873 0 0 0-4.056-.078z" transform="translate(-93.99 -58.251)" style="fill:#ff9995;fill-rule:evenodd"/>
                        </g>
                        <g id="Group_193" data-name="Group 193" transform="translate(11.074 88.858)">
                            <path id="Path_547" data-name="Path 547" class="cls-34" d="M83.448 307.57c.027 2.543 3 4.846 5.359 2.726l1.662-1.763.988-1.052a3.131 3.131 0 0 0 .139-3.871 2.91 2.91 0 0 1-.744 1.937l-1.759 1.868-.887.947a3.052 3.052 0 0 1-4.758-.792z" transform="translate(-83.448 -303.61)"/>
                        </g>
                        <g id="Group_194" data-name="Group 194" transform="translate(15.414 90.663)">
                            <path id="Path_548" data-name="Path 548" class="cls-34" d="M116.154 325.14c.62 2.081 3.515 3.669 5.417 1.67l.465-.481a.049.049 0 0 1 .012-.016l2.829-2.966c.1-.113.2-.217.3-.314l.907-.951a3.106 3.106 0 0 0-.372-4.865 3.133 3.133 0 0 1-.9 3.048l-.907.951c-.1.1-.2.2-.3.311l-2.829 2.966a.051.051 0 0 1-.016.012l-.461.485a2.964 2.964 0 0 1-4.143.148z" transform="translate(-116.154 -317.215)"/>
                        </g>
                        <g id="Group_195" data-name="Group 195" transform="translate(20.726 96.219)">
                            <path id="Path_549" data-name="Path 549" class="cls-34" d="m161.59 366.816 2.065-1.961.612-.586.387-.365a3.178 3.178 0 0 0-.2-4.819 3.018 3.018 0 0 1-.9 3.087l-.384.365-1.093 1.037-1.589 1.514-.089.078a2.93 2.93 0 0 1-3.5.466 3.671 3.671 0 0 1-.713-.509 3.757 3.757 0 0 0 1.814 2.236 2.923 2.923 0 0 0 3.5-.462z" transform="translate(-156.188 -359.085)"/>
                        </g>
                        <g id="Group_196" data-name="Group 196" transform="translate(25.396 101.756)">
                            <path id="Path_550" data-name="Path 550" class="cls-34" d="M198.708 405.32a3.091 3.091 0 0 0 .139-4.512 3.485 3.485 0 0 1-1.046 2.279l-1.473 1.573a3.125 3.125 0 0 1-4.952.047c.016 2.357 3.162 5.059 5.859 2.182z" transform="translate(-191.376 -400.808)"/>
                        </g>
                        <g id="Group_197" data-name="Group 197" transform="translate(42.952 90.821)">
                            <path id="Path_551" data-name="Path 551" class="cls-36" d="M328.827 324.307a1.022 1.022 0 0 1-.7-.275L324 320.184a1.026 1.026 0 0 1 1.4-1.5l4.131 3.848a1.026 1.026 0 0 1-.7 1.777z" transform="translate(-323.671 -318.407)"/>
                        </g>
                        <g id="Group_198" data-name="Group 198" transform="translate(39.022 95.112)">
                            <path id="Path_552" data-name="Path 552" class="cls-36" d="M299.221 356.643a1.021 1.021 0 0 1-.7-.275l-4.135-3.852a1.026 1.026 0 0 1 1.4-1.5l4.135 3.852a1.026 1.026 0 0 1-.7 1.777z" transform="translate(-294.061 -350.739)"/>
                        </g>
                        <g id="Group_199" data-name="Group 199" transform="translate(36.705 100.781)">
                            <path id="Path_553" data-name="Path 553" class="cls-36" d="M279.728 397.466a1.022 1.022 0 0 1-.7-.274l-2.1-1.957a1.026 1.026 0 0 1 1.4-1.5l2.1 1.957a1.026 1.026 0 0 1-.7 1.778z" transform="translate(-276.599 -393.457)"/>
                        </g>
                        <g id="Group_200" data-name="Group 200" transform="translate(41.763 55.999)">
                            <path id="Path_554" data-name="Path 554" d="m316.233 64.68 13.826 13.31 2.7 2.6.992.955a.8.8 0 0 0 1.128-.023l2.724-2.842 2.5-2.6a2.887 2.887 0 0 0-.081-4.065l-2.422-2.327L324.212 56.8a2.873 2.873 0 0 0-4.057.081l-5.22 5.444a.8.8 0 0 0 .023 1.13z" transform="translate(-314.712 -55.999)" style="fill:#de3a32;fill-rule:evenodd"/>
                        </g>
                        <g id="Group_201" data-name="Group 201" transform="translate(57.354 68.702)">
                            <path id="Path_555" data-name="Path 555" d="M438.48 151.725zm-2.426 6.655-2.724 2.846a.8.8 0 0 1-1.128.019l2.453 2.365.992.955a.8.8 0 0 0 1.128-.023l2.725-2.842 2.5-2.6a2.887 2.887 0 0 0-.081-4.065l-3.054-2.939.26.252-.639-.617a2.886 2.886 0 0 1 .07 4.05z" transform="translate(-432.202 -151.725)" style="fill:#b92821;fill-rule:evenodd"/>
                        </g>
                    </g>
                </g>
            </g>
        </g>
        <g id="Group_207" data-name="Group 207" transform="translate(-66 18)">
            <g id="Group_203" data-name="Group 203">
                <g id="Ellipse_39" data-name="Ellipse 39" transform="translate(251 2218)" style="stroke:#e87a42;stroke-width:2px;fill:#fff">
                    <circle cx="55" cy="55" r="55" style="stroke:none"/>
                    <circle cx="55" cy="55" r="54" style="fill:none"/>
                </g>
                <g id="department" transform="translate(279.357 2246.643)">
                    <path id="Path_463" data-name="Path 463" class="cls-40" d="M40 0v51.51h13.322V3.552zm0 0" transform="translate(-35.559)"/>
                    <path id="Path_464" data-name="Path 464" d="M173.322 35.552 160 32v47.958h13.322zm0 0" transform="translate(-142.238 -28.448)" style="fill:#e87a42"/>
                    <path id="Path_465" data-name="Path 465" d="M280 112v39.077h8.881V114.22zm0 0" transform="translate(-248.916 -99.566)" style="fill:#f7f4d2"/>
                    <path id="Path_466" data-name="Path 466" d="M368.881 134.22 360 132v36.857h8.881zm0 0" transform="translate(-320.035 -117.346)" style="fill:#fffde6"/>
                    <path id="Path_467" data-name="Path 467" d="M96 368h7.1v10.657H96zm0 0" transform="translate(-85.343 -327.147)" style="opacity:.183;fill:#6d6e71"/>
                    <path id="Path_468" data-name="Path 468" d="M160 368h7.1v10.657H160zm0 0" transform="translate(-142.238 -327.147)" style="fill:#939598;opacity:.183"/>
                    <path id="Path_469" data-name="Path 469" class="cls-46" d="M104 288h3.552v3.552H104zm0 0" transform="translate(-92.455 -256.028)"/>
                    <path id="Path_470" data-name="Path 470" class="cls-46" d="M184 288h3.552v3.552H184zm0 0" transform="translate(-163.573 -256.028)"/>
                    <path id="Path_471" data-name="Path 471" class="cls-40" d="M312 304h3.552v3.552H312zm0 0" transform="translate(-277.364 -270.252)"/>
                    <path id="Path_472" data-name="Path 472" class="cls-40" d="M376 304h3.552v3.552H376zm0 0" transform="translate(-334.259 -270.252)"/>
                    <path id="Path_473" data-name="Path 473" class="cls-40" d="M312 240h3.552v3.552H312zm0 0" transform="translate(-277.364 -213.357)"/>
                    <path id="Path_474" data-name="Path 474" class="cls-40" d="M376 240h3.552v3.552H376zm0 0" transform="translate(-334.259 -213.357)"/>
                    <path id="Path_475" data-name="Path 475" class="cls-40" d="M312 176h3.552v3.552H312zm0 0" transform="translate(-277.364 -156.462)"/>
                    <path id="Path_476" data-name="Path 476" class="cls-40" d="M376 176h3.552v3.552H376zm0 0" transform="translate(-334.259 -156.462)"/>
                    <g id="Group_160" data-name="Group 160" transform="translate(11.545 10.657)">
                        <path id="Path_477" data-name="Path 477" class="cls-46" d="M104 224h3.552v3.552H104zm0 0" transform="translate(-104 -209.79)"/>
                        <path id="Path_478" data-name="Path 478" class="cls-46" d="M184 224h3.552v3.552H184zm0 0" transform="translate(-175.119 -209.79)"/>
                        <path id="Path_479" data-name="Path 479" class="cls-46" d="M104 160h3.552v3.552H104zm0 0" transform="translate(-104 -152.895)"/>
                        <path id="Path_480" data-name="Path 480" class="cls-46" d="M184 160h3.552v3.552H184zm0 0" transform="translate(-175.119 -152.895)"/>
                        <path id="Path_481" data-name="Path 481" class="cls-46" d="M104 96h3.552v3.552H104zm0 0" transform="translate(-104 -96)"/>
                        <path id="Path_482" data-name="Path 482" class="cls-46" d="M184 96h3.552v3.552H184zm0 0" transform="translate(-175.119 -96)"/>
                    </g>
                    <path id="Path_483" data-name="Path 483" d="M360 384h3.552v8.881H360zm0 0" transform="translate(-320.035 -341.371)" style="opacity:.177;fill:#a7a8ab"/>
                    <path id="Path_484" data-name="Path 484" d="M328 384h3.552v8.881H328zm0 0" transform="translate(-291.587 -341.371)" style="opacity:.177;fill:#939598"/>
                    <path id="Path_485" data-name="Path 485" d="M0 456h53.287v1.776H0zm0 0" transform="translate(0 -405.378)" style="fill:#626262"/>
                </g>
            </g>
        </g>
    </g>
</svg>
