<svg xmlns="http://www.w3.org/2000/svg" width="328" height="336">
    <defs>
        <clipPath id="clip-path">
            <path id="Rectangle_36" data-name="Rectangle 36" transform="translate(1049 145)" style="stroke:#707070;fill:#fff" d="M0 0h328v336H0z"/>
        </clipPath>
        <style>
            .cls-20,.cls-4{fill:#fff}.cls-3{fill:#357c71}.cls-5{fill:#010101}.cls-6{fill:#b9d8d4}.cls-20{stroke-miterlimit:10;stroke-width:2px}.cls-12{fill:#696969}.cls-14{fill:#eaeaea}.cls-15{fill:#d6d6d6}.cls-20{stroke:#cad1de}.cls-21{fill:#cad1de}.cls-22{fill:#b1b1b1}.cls-24{fill:#cec9ae}.cls-27{fill:#393939}.cls-28{fill:#7c8489}.cls-33{fill:#c96b3b}.cls-39{fill:#f1f2f2}.cls-45,.cls-47,.cls-48{fill-rule:evenodd}.cls-45{fill:#ffe5c1}.cls-47,.cls-50{fill:#fddec5}.cls-48{fill:#fed1a3}
        </style>
    </defs>
    <g id="Mask_Group_4" data-name="Mask Group 4" transform="translate(-1049 -145)" style="clip-path:url(#clip-path)">
        <g id="miz1" transform="translate(1070.249 145)">
            <path id="Path_317" data-name="Path 317" class="cls-3" d="M295.173 164.981c-1.245 1.452-.207 3.942-.519 8.61s1.141 3.32-1.037 8.922a29.339 29.339 0 0 0-1.556 14.939c.622 3.527-3.216 5.187-4.253 6.121s2.282 4.253 1.556 6.536c-.83 2.282-1.141 2.7-.622 4.046a8.412 8.412 0 0 1 .934 3.008 17.421 17.421 0 0 1 .207 3.008 16.3 16.3 0 0 1-.622 4.772c-.622 2.179-.726 6.536 1.037 8.2 1.867 1.66-3.216 2.9-3.216 2.9a13.714 13.714 0 0 1-1.245 6.847c-1.66 3.527-4.876 8.714-9.648 8.2-4.668-.519-6.951-7.158-8.818-7.262-1.867-.207-2.594 1.349-3.527 1.349-1.037 0-2.49-1.556-3.112-.311-.415.934-1.764 2.9-1.764 5.083v.726a4.588 4.588 0 0 0 .519 1.556.321.321 0 0 1 .1.207 14.519 14.519 0 0 1-.415 2.7V257l.726 1.141s-1.245 1.764.622 3.838a2.386 2.386 0 0 0 .83.726l-.934 1.037s-1.971.83-2.179 1.66a3.321 3.321 0 0 0 0 1.556v1.764a4.836 4.836 0 0 0-.207 1.66s-.1 1.556-2.49 3.942v2.593l-2.075.726v.311s1.764 2.282 1.764 3.008a14.135 14.135 0 0 1-1.971 2.8v2.594l.207 1.349.207 3.942c.311 3.942 0 0-.207 1.556a4.34 4.34 0 0 0-.1.726 2.91 2.91 0 0 1-.1.519s2.9 1.349 2.9 2.8v3.527l2.594 1.452c1.66 4.046-.207 5.291-1.764 6.951a2.544 2.544 0 0 0-.622 1.66v.622c.207.1.415.1.415.208a22.007 22.007 0 0 0 1.971 3.838c.934 1.66 1.452 1.556 1.245 3.735-.208 2.282.519 3.216 2.7 5.187 2.282 1.971 3.942 3.527 3.527 8.4-.521 4.881 1.969 10.172 1.869 12.872-.519 2.594.934 4.876-1.556 4.876s-6.121-1.452-4.772 2.9c1.349 4.461-.311 6.951-2.9 5.083-2.594-1.971-5.5-6.328-8.818-.519-3.32 5.706-1.245 6.224-.622 7.262.726 1.037 4.253 4.461 2.282 4.772s-6.432-1.556-6.432-1.556l-1.349 3.216s-1.867 0-1.867 2.9 1.349 4.668 1.349 6.639c0 2.075-.934 5.291-3.216 2.282-2.282-3.112-3.112-6.328-5.395-.207s.415 6.328-2.282 6.121c-2.593-.208-3.32-4.357-3.32-6.432 0-1.971-2.7-6.639-2.9-7.469-.207-.726.415-1.141-1.245-1.349h-.622l-.311-.1c-1.141 0-1.556.622-2.9-1.037-1.556-1.971-2.593-3.735-5.291-4.565-2.7-.726-4.15-2.282-5.6-3.631-1.556-1.349-2.282-5.913-3.942-3.32s-2.282 7.573-2.282 8.092c0 .415-.726 6.432-.311 8.61.519 2.282-2.7 2.594-2.7 2.594a3.192 3.192 0 0 0-1.971 1.037c-.519.934-1.245 1.971-1.245 1.971s-.207 0-1.037.83c-.934.726-2.179 2.386-2.386.726-.311-1.764.207-1.867-.934-8.2a26.726 26.726 0 0 0-3.942-10.478l.311-1.66s1.764-1.452 3.735.934c1.971 2.282 3.216-1.971.83-6.847-2.49-4.876-.415-9.544-1.971-11.2s-1.867.519-1.867-2.386-.934-9.337-1.245-12.656a52.194 52.194 0 0 0-1.556-9.129c-.415-1.349-1.556-3.008-1.556-3.735s-1.245-1.245-.519-2.9 1.037-1.971.934-3.216a10.3 10.3 0 0 0-1.556-3.216 2.853 2.853 0 0 1 .934-3.631c1.349-1.245-.1-3.423-.934-6.432-.83-3.112-.415-3.216-.622-5.083a6.5 6.5 0 0 0-.934-3.527c-.622-1.037.83-3.838-2.075-6.121a22.352 22.352 0 0 1-1.971-1.66c.207-.1.311-.1.519-.207-.726-.83-.934-1.764-1.452-4.357-.934-4.253-1.556-7.469-1.556-7.469l1.349-1.971s-4.772-4.772-7.469-8.092-4.046-2.282-4.046-4.046c0-1.867 1.349-5.913 1.349-10.374s2.594-3.631-.207-7.469c-2.7-3.735-2.179-4.253-2.179-6.639 0-2.49 0-3.423-.622-4.772s-1.037-1.66-1.245-2.386-.311-.311.311-1.867a7.681 7.681 0 0 0 .83-2.7 12.764 12.764 0 0 0-.519-2.282 6.487 6.487 0 0 1 1.867-2.594 3.875 3.875 0 0 0 .622-.726h.1c1.037-1.141 1.452-1.867 1.452-2.386 0-.622 1.245-.726 0-2.594s-2.282-2.7-2.386-3.527c-.1-.726 1.764-.934.415-4.046-1.245-3.216-4.772-7.262-4.772-8.818s-1.245-1.037-1.037-4.253c.1-3.216-2.179-7.781-2.179-8.4v-6.432c0-1.245.83-1.867-.622-2.9-1.349-1.037-3.008-1.141-3.008-2.386a16.178 16.178 0 0 1 0-3.216c.1-.415-.415-3.112-.1-5.083.311-1.867-.1-2.386 1.556-3.527.83 0 1.867-1.037.415-.207-.207.1-.311.207-.415.207-.415 0-.622-.207-.622-.934 0-1.037-2.179-1.556-3.32-2.282-1.349-.83 1.452-2.282 1.452-2.8a6.058 6.058 0 0 0-.83-4.772 4.235 4.235 0 0 1 .1-4.565c.311-.726 2.594 2.49 2.8-.519 0-.415-1.971-1.971-1.971-3.112.1-1.452 2.282-2.49 2.282-2.9.1-1.556 3.942.622 3.942.311v-3.021s1.971-1.764 1.556-3.735c-.519-1.971-1.867-2.386-1.867-4.357s-.311-3.942.311-5.291.519-5.913-.311-6.536 1.867-11.826 1.867-15.976.934-4.772 0-5.809a7.248 7.248 0 0 1-1.349-2.594 10.194 10.194 0 0 0-1.971-2.179 6.508 6.508 0 0 1-1.556-2.386c2.7-.311 8.2.622 8.2.622a6.1 6.1 0 0 1 2.386-1.245c.415 0 1.037-.1 1.66-.1a6.5 6.5 0 0 0 1.141-.1 11.632 11.632 0 0 1 2.8 4.876c1.245 4.565 3.527 7.158 3.527 8.4a3.087 3.087 0 0 0 2.49 2.594c.934 0 1.764-.311 2.282 0s.726-.311 1.245 0c.415.207 1.245-2.594 2.49-3.735.1-.1.207-.1.207-.207a.539.539 0 0 1 .415-.207h-.519c0-.1-.1-.1-.1-.207h.1c1.764-.311 1.867-6.328 2.593-9.855s6.017-.207 6.847-1.037c.934-.934 3.112-9.44 4.772-10.27s7.262-1.764 7.469-5.913c.1-4.046 2.7-14.42 6.017-14.939s4.565 5.083 5.291 7.781c.83 2.7 2.075 5.083 4.668 6.121.934.311 3.942-.207 6.432-1.452a10.872 10.872 0 0 0 2.7-1.349l1.452.934h1.23l1.245-.311 1.556.519 1.037-.207 1.141-.934.83.519a.1.1 0 0 0 .1.1 32.281 32.281 0 0 1 2.594 2.075c1.971 1.971 1.867 4.253 3.735 7.158 1.764 2.8-3.112 6.121-2.9 7.262.519 2.282 1.971 3.216 2.179 3.942s-.622 1.971-.622 1.971v3.32a11.69 11.69 0 0 0-1.245 1.037c-.519.622-.207-1.037-.519.622a3.612 3.612 0 0 0 .311 2.7c.1.519.415.83.311 1.349-.726.311-1.245.519-1.245.519l-1.141 3.735a10.2 10.2 0 0 0-2.49 1.764l.1.207 4.15.726c.83 1.971 2.593 2.282 4.668 3.32.726.311 3.216-1.66 4.046-1.037.207.207.519 2.179.726 2.386a21.723 21.723 0 0 1 1.452 1.764c.83 1.141-.622 2.594.1 3.32s1.349-1.867 2.8-2.386c1.245-.311.934-1.971 1.764-2.593a1.379 1.379 0 0 1 .83-.311c.83 0 1.764.83 3.008 1.556l.207 3.112.207-.207a10.808 10.808 0 0 1 4.668-1.349c1.452 0 .83-3.735 1.764-3.423 1.245.622 2.8-.726 4.046 1.037.622.934-.726 4.357-.207 5.809.207.519 2.386-.83 2.7-.415.415.83.519-1.764 1.037-1.867 3.631-.622 6.017.934 6.017 2.075s-1.037 1.764.311 4.15.311 3.735 1.971 5.6 4.565 2.282 5.187 4.772c.622 2.386 0 4.876 0 7.158s.207 6.847 1.556 8.507 0 3.423 0 4.565.726.934.622 3.32c-.207 2.386-1.349 3.32 0 4.046s3.942 1.349 3.942 3.008a10.349 10.349 0 0 1-2.176 4.972z" transform="translate(-81.575 -53.945)"/>
            <path id="Path_318" data-name="Path 318" class="cls-4" d="M184.023 304.906a9.178 9.178 0 0 0 3.631-.519h.207l-.415 10.581H155.6v-56.537c.726 0 1.66.1 2.49.1l3.008.1c1.971 0 4.15.1 6.432.1 6.432 0 12.864-.1 19.192-.311a85.88 85.88 0 0 0-.415 9.959 3.2 3.2 0 0 0 .1 1.037l-.1.1a24.257 24.257 0 0 0-6.328-.622H166.7V279.7h10.063a27.146 27.146 0 0 0 5.6-.311l.1 10.478a69.664 69.664 0 0 0-5.291-.207H166.7v15.25z" transform="translate(-83.296 -156.317)"/>
            <path id="Path_319" data-name="Path 319" class="cls-4" d="M409.1 306.975a22.594 22.594 0 0 1-8.092 3.838 45.577 45.577 0 0 1-12.138 1.349 91.4 91.4 0 0 1-15.354-1.349V255a99.426 99.426 0 0 1 14.212-1.349 32.5 32.5 0 0 1 9.855 1.141 17.2 17.2 0 0 1 6.328 3.112 11.761 11.761 0 0 1 4.876 9.752 12.688 12.688 0 0 1-4.357 9.855 13.914 13.914 0 0 1 7.988 6.121 15.759 15.759 0 0 1 2.594 8.922 20.656 20.656 0 0 1-1.452 8.4 14.113 14.113 0 0 1-4.46 6.021zm-24.379-30.915a26.4 26.4 0 0 0 4.461.311 10.625 10.625 0 0 0 4.357-.726 6.328 6.328 0 0 0 2.593-1.764 7.057 7.057 0 0 0 1.556-4.876c0-4.253-2.49-6.432-7.573-6.432a39.817 39.817 0 0 0-5.395.311zm6.328 9.129a38.846 38.846 0 0 0-6.328.415v16.6a24.37 24.37 0 0 0 6.224.726 23.119 23.119 0 0 0 5.706-.726 14.116 14.116 0 0 0 4.15-2.075 8.788 8.788 0 0 0 3.423-7.054c.003-5.292-4.354-7.885-13.172-7.885z" transform="translate(-192.393 -153.925)"/>
            <path id="Path_320" data-name="Path 320" class="cls-5" d="M300.483 311.607a24.873 24.873 0 0 0 .207-4.772v2.8a19.94 19.94 0 0 1-4.668 12.345 13.354 13.354 0 0 1-7.884 4.565 12.523 12.523 0 0 0 6.847-3.32c3.008-2.801 4.772-6.743 5.498-11.618z" transform="translate(-149.648 -180.549)"/>
            <path id="Path_321" data-name="Path 321" class="cls-5" d="M276.39 277.348a15.833 15.833 0 0 1 3.112.311 11.687 11.687 0 0 0-1.867-.311 14.374 14.374 0 0 0-9.44 1.556h1.349a14.489 14.489 0 0 1 6.846-1.556z" transform="translate(-139.664 -165.69)"/>
            <g id="Group_69" data-name="Group 69" transform="translate(91.806 99.313)">
                <path id="Path_322" data-name="Path 322" class="cls-6" d="M229.45 296.655a27.811 27.811 0 0 0-.726 2.8h12.76a28.614 28.614 0 0 1 .83-2.8z" transform="translate(-211.71 -274.766)"/>
                <path id="Path_323" data-name="Path 323" class="cls-6" d="M255.521 296.655h-.415a17.956 17.956 0 0 0-.83 2.8h.311q.467-1.555.934-2.8z" transform="translate(-224.502 -274.766)"/>
                <path id="Path_324" data-name="Path 324" class="cls-6" d="M240.548 319.091h-13.279a25.432 25.432 0 0 0 .208 2.8h13.694c0-.1-.1-.311-.1-.415a19.625 19.625 0 0 1-.523-2.385z" transform="translate(-210.982 -285.998)"/>
                <path id="Path_325" data-name="Path 325" class="cls-6" d="M280.909 261.017c-4.668-5.395-11.411-8.2-20.022-8.2-8.714 0-15.976 2.9-21.785 8.61a27.655 27.655 0 0 0-3.838 4.772h15.872a14.393 14.393 0 0 1 9.233-1.452c.622.1 1.245.207 1.764.311a12.007 12.007 0 0 1 7.988 4.668 15.918 15.918 0 0 1 3.008 9.337 22.779 22.779 0 0 1-.208 4.565c-.726 4.876-2.49 8.61-5.394 11.308a12.8 12.8 0 0 1-6.743 3.216 16.105 16.105 0 0 1-3.216.311 15.829 15.829 0 0 1-6.847-1.452h-18.466a21.659 21.659 0 0 0 3.112 4.876c4.772 5.6 11.619 8.507 20.644 8.507 8.818 0 15.976-2.9 21.682-8.61 5.395-5.395 8.4-12.345 8.922-20.644.726-8.193-1.245-14.94-5.706-20.123z" transform="translate(-213.478 -252.822)"/>
                <path id="Path_326" data-name="Path 326" class="cls-6" d="M222.7 288.962h17.636a15.512 15.512 0 0 1 3.112-4.98h-17.222c-2.386.001-3.526 2.283-3.526 4.98z" transform="translate(-208.694 -268.422)"/>
                <path id="Path_327" data-name="Path 327" class="cls-6" d="M232.748 305.588v-.415h-16.6c-2.386 0-4.253 2.179-4.253 4.98h20.748a33.539 33.539 0 0 1 .105-4.565z" transform="translate(-203.286 -279.03)"/>
                <path id="Path_328" data-name="Path 328" class="cls-6" d="M226.71 329.788a10.93 10.93 0 0 1-.726-1.141h-26.662a4.649 4.649 0 0 0-4.668 4.668v.311h36a15.386 15.386 0 0 1-3.944-3.838z" transform="translate(-194.654 -290.782)"/>
                <path id="Path_329" data-name="Path 329" class="cls-6" d="M313.607 278.355c-.208.207 0 .519 0 1.245 0 .622.207.415-.1 1.245a3.74 3.74 0 0 0-.207 2.075c.1.519-.415.726-.622.83-.1.1.311.622.207.934s-.207.311-.1.622a.624.624 0 0 1 .1.415v.415a2.738 2.738 0 0 1-.1.726 1.427 1.427 0 0 0 .1 1.141c.311.207-.415.415-.415.415a2.779 2.779 0 0 1-.207.934c-.207.519-.726 1.245-1.349 1.141-.726 0-1.037-1.037-1.245-1.037-.311 0-.311.208-.519.208-.1 0-.311-.208-.415 0a3.216 3.216 0 0 0-.207.726v.933l.1.1s-.207.207.1.519l.1.1-.1.1s-.311.1-.311.207v.726s0 .207-.311.519v.311l-.311.1s.311.311.208.415c0 .1-.311.415-.311.415v1.465s.415.207.415.415v.519l.311.208c.207.622 0 .726-.207 1.037 0 .1-.1.1-.1.208v.1a.882.882 0 0 0 .311.519c.1.207.207.207.207.519s.1.415.311.726a1.338 1.338 0 0 1 .519 1.141 14.4 14.4 0 0 0 .311 1.764c-.1.311.1.726-.208.726s-.83-.207-.726.415c.207.622 0 1.037-.415.726-.311-.311-.726-.83-1.245 0-.415.83-.207.83-.1 1.037.1.1.622.622.311.726s-.934-.208-.934-.208l-.207.415s-.311 0-.311.415.207.622.207.934-.1.726-.415.311-.415-.83-.726 0 0 .83-.311.83-.415-.622-.415-.934a2.407 2.407 0 0 0-.415-1.037c0-.1 0-.208-.207-.208h-.1c-.207 0-.207.1-.415-.1-.207-.311-.311-.519-.726-.622a1.027 1.027 0 0 1-.726-.519c-.207-.207-.311-.83-.519-.415a3.148 3.148 0 0 0-.311 1.141 4.827 4.827 0 0 0 0 1.245c.1.311-.311.311-.311.311a.512.512 0 0 0-.311.1c0 .1-.208.311-.208.311l-.1.1c-.1.1-.311.311-.311.1a7.753 7.753 0 0 0-.1-1.141 3 3 0 0 0-.519-1.452v-.207s.207-.207.519.1.415-.311.1-.934c-.311-.726 0-1.349-.311-1.556-.207-.207-.311 0-.311-.311a10.221 10.221 0 0 0-.208-1.764 3.872 3.872 0 0 0-.207-1.245c0-.207-.207-.415-.207-.519s-.207-.207 0-.415a.784.784 0 0 0 .1-.415.539.539 0 0 0-.208-.415c-.1-.1-.1-.311.1-.519s0-.415-.1-.934c-.1-.415 0-.415-.1-.726a.777.777 0 0 0-.1-.519c-.1-.1.1-.519-.311-.83-.1-.1-.207-.207-.311-.207h.1c-.1-.1-.1-.208-.207-.622-.1-.622-.207-1.037-.207-1.037l.207-.311a15.2 15.2 0 0 1-1.037-1.141c-.311-.415-.622-.311-.622-.622s.207-.83.207-1.452.311-.519 0-1.037a1.382 1.382 0 0 1-.311-.934 1.765 1.765 0 0 0-.1-.726.8.8 0 0 0-.207-.311v-.311c0-.311.1-.311.1-.311v-.311s0-.1.311-.311l.1-.1a1.285 1.285 0 0 1 .207-.311c0-.1.207-.1 0-.311-.207-.311-.311-.311-.311-.519 0-.1.207-.1 0-.622-.207-.415-.726-1.037-.726-1.245s-.207-.1-.1-.623a5.507 5.507 0 0 0-.311-1.141v-.934c0-.208.1-.311-.1-.415s-.415-.207-.415-.311v-1.141c0-.311 0-.311.207-.519a.1.1 0 0 1-.1-.1c0-.1-.311-.207-.415-.311-.207-.1.208-.311.208-.415a1.016 1.016 0 0 0-.1-.726c-.207-.311 0-.519 0-.622s.311.311.415-.1c0 0-.311-.311-.311-.415 0-.208.311-.311.311-.415 0-.207.519.1.519 0v-.414a.484.484 0 0 0 .207-.519c0-.311-.311-.311-.311-.622v-.726a2.8 2.8 0 0 0 0-.934c-.1-.1.311-1.66.311-2.178 0-.622.1-.726 0-.83a1.489 1.489 0 0 1-.207-.311l-.311-.311a1.282 1.282 0 0 1-.207-.311c.311 0 1.141.1 1.141.1s.207-.208.311-.208h.415a.942.942 0 0 1 .311.726c.207.622.519 1.037.519 1.141a.331.331 0 0 0 .311.311h.519s.207-.311.311-.519h-.1c.207 0 .311-.934.311-1.452.1-.519.83 0 .934-.1s.415-1.349.726-1.452c.208-.1 1.037-.207 1.037-.83s.311-2.075.83-2.075c.415 0 .622.726.726 1.037s.311.726.622.83a2.119 2.119 0 0 0 .934-.207c.1 0 .311-.1.311-.207l.208.1H305l.207.1h.1l.207-.1.1.1c.1.1.311.208.311.311.311.311.311.622.519 1.037s-.415.83-.415 1.037c0 .311.311.415.311.519a1.045 1.045 0 0 1-.1.311v.415a.321.321 0 0 0-.207.1c-.1.1 0-.1-.1.1s0 .311 0 .311v.207h-.208l-.1.519s-.311.1-.311.208l.622.1c.1.311.311.311.622.415.1 0 .415-.207.519-.1l.1.311s.1.207.207.207c.1.1-.1.311 0 .415s.208-.311.415-.311.1-.311.208-.311h.1c.1 0 .207.1.415.207v.415a1.606 1.606 0 0 1 .622-.207c.207 0 .1-.519.207-.415.207.1.415-.1.519.1.1.1-.1.622 0 .83 0 .1.311-.1.311 0s.1-.207.1-.311c.519-.1.83.1.83.311s-.1.207 0 .622c.207.311 0 .519.311.726.207.311.622.311.726.726a3.476 3.476 0 0 1 0 1.037c0 .311 0 .934.207 1.141s0 .415 0 .622.1.1.1.415-.207.415 0 .622c.207.1.519.207.519.415.944.23.84.437.633.645z" transform="translate(-244.204 -257.918)"/>
            </g>
            <g id="Group_70" data-name="Group 70" transform="translate(132.576 98.691)">
                <path id="Path_330" data-name="Path 330" class="cls-4" d="M295.2 292.039c.1 0 .207-.1 0 0z" transform="translate(-285.761 -271.809)"/>
                <path id="Path_331" data-name="Path 331" class="cls-4" d="M303.269 253.65a42.948 42.948 0 0 0-13.59-2.075 98.61 98.61 0 0 0-13.175.726v2.593h29.981c-1.037-.414-2.178-.829-3.216-1.244z" transform="translate(-276.4 -251.575)"/>
                <path id="Path_332" data-name="Path 332" class="cls-4" d="M323.038 279.309a.1.1 0 0 0 .1-.1l-.1.1z" transform="translate(-299.697 -265.407)"/>
                <path id="Path_333" data-name="Path 333" class="cls-4" d="M325.531 279.2z" transform="translate(-300.945 -265.407)"/>
                <path id="Path_334" data-name="Path 334" class="cls-4" d="M336.312 270.48h-16.7c.1.311.311.415.311.519a1.045 1.045 0 0 1-.1.311v.415a.321.321 0 0 0-.207.1c-.1.1 0-.1-.1.1v.622h-.216v.207h18.777a11.278 11.278 0 0 0-1.765-2.274z" transform="translate(-297.825 -261.039)"/>
                <path id="Path_335" data-name="Path 335" class="cls-4" d="M328.336 279.412c0 .1.311-.1.311 0s.1-.1.1-.208h-.519a.321.321 0 0 1 .108.208z" transform="translate(-302.297 -265.407)"/>
                <path id="Path_336" data-name="Path 336" class="cls-4" d="M286.152 280.968v-.726a2.8 2.8 0 0 0 0-.934v-.1H276.3v2.075h9.959c-.107-.107-.107-.107-.107-.315z" transform="translate(-276.296 -265.407)"/>
                <path id="Path_337" data-name="Path 337" class="cls-4" d="M345.248 279.2h-14.523a.331.331 0 0 1 .311.311c0 .207-.1.207 0 .622s0 .519.311.83a2.171 2.171 0 0 0 .622.415h14.42c-.414-.825-.829-1.551-1.141-2.178z" transform="translate(-303.545 -265.407)"/>
                <path id="Path_338" data-name="Path 338" class="cls-4" d="M285.114 289.278c-.207-.1.207-.311.207-.415a1.016 1.016 0 0 0-.1-.726.586.586 0 0 1 0-.622c0-.1.311.311.415-.1a.1.1 0 0 0-.1-.1H276.3v2.075h9.129c-.107-.008-.211-.112-.315-.112z" transform="translate(-276.296 -269.463)"/>
                <path id="Path_339" data-name="Path 339" class="cls-4" d="M348.364 287.307h-14.939c0 .208.1.311.207.519.207.208 0 .519 0 .622 0 .208.1.1.1.415a2.111 2.111 0 0 1-.1.519h15.458a16.463 16.463 0 0 0-.726-2.075z" transform="translate(-304.897 -269.463)"/>
                <path id="Path_340" data-name="Path 340" class="cls-4" d="M349.817 295.409h-15.561v.415c0 .726.207.415-.1 1.245 0 .1-.1.311-.1.415h16.287c-.215-.623-.318-1.349-.526-2.075z" transform="translate(-305.209 -273.52)"/>
                <path id="Path_341" data-name="Path 341" class="cls-4" d="M285.944 297.173v-.83c0-.207.1-.311-.1-.415s-.415-.207-.415-.311H276.3v2.075h9.855a1.752 1.752 0 0 1-.211-.519z" transform="translate(-276.296 -273.623)"/>
                <path id="Path_342" data-name="Path 342" class="cls-4" d="M349.591 303.718h-16.6a1.21 1.21 0 0 1-.622.622c-.1.1.311.622.207.934s-.207.415-.1.622a.362.362 0 0 0 .1.207h17.013z" transform="translate(-304.36 -277.68)"/>
                <path id="Path_343" data-name="Path 343" class="cls-4" d="M287.4 305.793c0-.1.207-.1 0-.311-.207-.311-.311-.415-.311-.519s.207-.1 0-.622l-.311-.622H276.3V306h11a.321.321 0 0 0 .1-.207z" transform="translate(-276.296 -277.68)"/>
                <path id="Path_344" data-name="Path 344" class="cls-4" d="M324.908 316.391z" transform="translate(-300.633 -284.024)"/>
                <path id="Path_345" data-name="Path 345" class="cls-4" d="M326.258 316.391a.381.381 0 0 0-.311.1h.519c-.104-.1-.104-.1-.208-.1z" transform="translate(-301.153 -284.024)"/>
                <path id="Path_346" data-name="Path 346" class="cls-4" d="M344.928 320.545h-20.956a.526.526 0 0 0 .1.519l.1.1-.1.1s-.311.1-.311.207v.726s0 .207-.311.519v.311h21.059a17.8 17.8 0 0 0 .419-2.482z" transform="translate(-299.905 -286.104)"/>
                <path id="Path_347" data-name="Path 347" class="cls-4" d="M343.786 329.686h-20.955v.622s.415.208.415.415v.519l.311.207c0 .208.1.311.1.415h19.5z" transform="translate(-299.593 -290.68)"/>
                <path id="Path_348" data-name="Path 348" class="cls-4" d="M289.783 331.138c-.1-.415 0-.415-.1-.726a.777.777 0 0 0-.1-.519v-.207H276.3v2.075h13.59c-.004-.208-.107-.415-.107-.623z" transform="translate(-276.296 -290.68)"/>
                <path id="Path_349" data-name="Path 349" class="cls-4" d="M343.374 337.788H324.7c0 .311.1.415.415.726s.622.519.519 1.141v.311h16.7c.313-.518.625-1.348 1.04-2.178z" transform="translate(-300.529 -294.736)"/>
                <path id="Path_350" data-name="Path 350" class="cls-4" d="M339.365 346.513h-15.25c0 .1 0 .1-.207.1-.311 0-.83-.207-.726.415.207.622 0 1.037-.415.726s-.726-.934-1.245 0c-.311.519-.311.726-.207.83h16.495c.518-.618 1.036-1.345 1.555-2.071z" transform="translate(-298.803 -299.104)"/>
                <path id="Path_351" data-name="Path 351" class="cls-4" d="M309.119 349.738c0 .1-.1.207-.207.311h.622c-.103-.103-.207-.622-.415-.311z" transform="translate(-292.625 -300.669)"/>
                <path id="Path_352" data-name="Path 352" class="cls-4" d="M291.028 347.862a2.258 2.258 0 0 1-.207-1.349H276.3v2.075h14.939a2.64 2.64 0 0 0-.211-.726z" transform="translate(-276.296 -299.104)"/>
                <path id="Path_353" data-name="Path 353" class="cls-4" d="M312.4 355.549c.311-.311.726-.622 1.037-.934h-15.459c0 .1.1.311.1.415 0 .311-.1.726-.415.311s-.415-.934-.726 0 0 .934-.311.83c-.311 0-.415-.622-.415-.934a2.638 2.638 0 0 0-.208-.726h-3.423c0 .311-.415.311-.415.311a.512.512 0 0 0-.311.1c0 .1-.207.311-.207.311l-.1.1c-.1.1-.311.311-.311.1a6.026 6.026 0 0 0-.1-1.037H276.3v2.075h34.649a6.959 6.959 0 0 0 1.451-.922z" transform="translate(-276.296 -303.056)"/>
                <path id="Path_354" data-name="Path 354" class="cls-4" d="M276.3 365.726a75.97 75.97 0 0 0 13.175 1.141c7.262 0 13.383-1.349 18.362-3.942H276.3v2.8z" transform="translate(-276.296 -307.32)"/>
                <path id="Path_355" data-name="Path 355" class="cls-4" d="M308.5 352.743h3.423a1.285 1.285 0 0 0-.207-.311c0-.1 0-.207-.207-.207h-.1c-.208 0-.208.1-.415-.1-.207-.311-.311-.519-.726-.622a1.637 1.637 0 0 1-.83-.519l-.1-.1h-.638a2.736 2.736 0 0 0-.1.726s-.1.822-.1 1.133z" transform="translate(-292.417 -301.288)"/>
                <path id="Path_356" data-name="Path 356" class="cls-4" d="M290.405 339.759a5.259 5.259 0 0 0-.207-1.349c0-.207-.207-.415-.207-.519v-.1H276.3v2.386h14.109z" transform="translate(-276.296 -294.736)"/>
                <path id="Path_357" data-name="Path 357" class="cls-4" d="m288.642 322.516.208-.311a15.2 15.2 0 0 1-1.037-1.141c-.311-.415-.519-.311-.622-.519H276.3v2.593h12.449a2.9 2.9 0 0 1-.107-.622z" transform="translate(-276.296 -286.104)"/>
                <path id="Path_358" data-name="Path 358" class="cls-4" d="M349.192 312.236h-17.118a.539.539 0 0 0 .207.415c.311.208-.415.415-.415.415a2.779 2.779 0 0 1-.207.934c0 .1-.1.1-.1.207h17.532a11.3 11.3 0 0 0 .101-1.971z" transform="translate(-303.961 -281.944)"/>
                <path id="Path_359" data-name="Path 359" class="cls-4" d="M287.293 313.9a.992.992 0 0 1-.311-.934v-.519H276.3v2.075h11.1c.1-.211.2-.315-.107-.622z" transform="translate(-276.296 -282.048)"/>
                <path id="Path_360" data-name="Path 360" class="cls-4" d="M286.463 272.866c0-.622.1-.726 0-.83a1.494 1.494 0 0 1-.207-.311l-.311-.311a1.49 1.49 0 0 0-.207-.311 10.813 10.813 0 0 1 1.141.1s.207-.207.311-.207h.415a1.673 1.673 0 0 1 .415.726c.207.622.519 1.037.519 1.141a.322.322 0 0 0 .1.208h.934c0-.1.1-.311.207-.311h-.1c.207 0 .311-.934.311-1.452.1-.519.83 0 1.037-.1a1.045 1.045 0 0 0 .1-.311H276.3v2.386h10.167z" transform="translate(-276.296 -261.247)"/>
                <path id="Path_361" data-name="Path 361" class="cls-4" d="M301.121 275.258h.519s.1 0 .1-.207h-.934c.108.103.211.207.315.207z" transform="translate(-288.569 -263.327)"/>
                <path id="Path_362" data-name="Path 362" class="cls-4" d="M293.621 262.378c.415 0 .622.726.726 1.141a1 1 0 0 0 .726.83 2.118 2.118 0 0 0 .934-.208.787.787 0 0 0 .415-.207l.207.1h.415l.208.1h.1l.207-.1.1.1c.1.1.311.208.311.311a.1.1 0 0 0 .1.1h14.627a19.617 19.617 0 0 0-2.8-2.075H276.3v2.075h16.6c-.005-.715.306-2.167.721-2.167z" transform="translate(-276.296 -256.983)"/>
            </g>
            <path id="Path_388" data-name="Path 388" class="cls-3" d="M60.363 257.855 56.48 252.2l.855-.587 3.379 4.924 4.994-2.4.449.935z" transform="translate(-33.674 -152.902)"/>
            <path id="Path_389" data-name="Path 389" class="cls-3" d="m89.78 511.77-6.663-1.221.187-1.02 5.786 1.061 1.826-5.285.981.339z" transform="translate(-47.009 -279.909)"/>
            <path id="Path_390" data-name="Path 390" class="cls-3" d="m400.08 590.78-1-.271 1.544-5.695-5.1-2.308.428-.945 5.9 2.672z" transform="translate(-203.411 -318.085)"/>
            <path id="Path_391" data-name="Path 391" class="cls-3" d="m550.656 390.237-4.24-4.047-4.416 3.458-.639-.817 5.125-4.011 4.889 4.667z" transform="translate(-276.418 -219.591)"/>
            <path id="Path_392" data-name="Path 392" class="cls-3" d="m471.572 165.487-1.036-.054.334-6.463 6.772-.666.1 1.032-5.884.579z" transform="translate(-240.962 -106.19)"/>
            <path id="Path_402" data-name="Path 402" class="cls-3" d="m68.563 206.223-.966-.378c.3-.774.62-1.557.944-2.326l.956.4c-.32.763-.634 1.538-.934 2.304zm1.924-4.58-.946-.425c.341-.759.7-1.525 1.057-2.277l.935.448c-.356.745-.708 1.503-1.046 2.254zm2.148-4.48-.924-.471c.378-.742.771-1.489 1.168-2.221l.912.494c-.391.724-.781 1.464-1.156 2.198zM75 192.8l-.9-.516c.415-.723.844-1.45 1.276-2.161l.887.538c-.427.7-.852 1.419-1.263 2.139zm2.579-4.247-.873-.56c.45-.7.915-1.406 1.381-2.095l.859.582a87.027 87.027 0 0 0-1.367 2.069zm2.787-4.114-.844-.6c.484-.678.983-1.359 1.485-2.024l.829.624a81.391 81.391 0 0 0-1.47 1.996zm2.989-3.967-.812-.645a98.103 98.103 0 0 1 1.585-1.945l.8.666a73.897 73.897 0 0 0-1.573 1.92zm3.186-3.811-.779-.685a101.65 101.65 0 0 1 1.682-1.863l.761.7c-.56.606-1.12 1.227-1.664 1.844zm3.374-3.645-.744-.723c.58-.6 1.176-1.194 1.772-1.777l.725.742a90.595 90.595 0 0 0-1.753 1.754zm3.551-3.474-.707-.759c.608-.566 1.233-1.134 1.857-1.689l.689.776a88.556 88.556 0 0 0-1.839 1.668zm3.716-3.3-.67-.792c.632-.535 1.283-1.073 1.934-1.6l.652.807c-.645.52-1.29 1.053-1.916 1.583zm3.866-3.121-.633-.822c.651-.5 1.325-1.01 2-1.51l.616.835c-.67.494-1.338.997-1.983 1.494z" transform="translate(-39.239 -107.433)"/>
            <path id="Path_403" data-name="Path 403" class="cls-3" d="M61.158 437.553a123.053 123.053 0 0 1-1.535-1.981l.826-.627c.5.657 1.011 1.318 1.522 1.964zm-3.031-3.992c-.49-.673-.98-1.36-1.456-2.043l.851-.594c.473.677.959 1.359 1.444 2.026zm-2.869-4.112c-.462-.692-.924-1.4-1.373-2.1l.874-.559c.445.7.9 1.4 1.362 2.082zm-2.7-4.224c-.434-.709-.867-1.432-1.288-2.15l.9-.524c.417.712.846 1.429 1.277 2.132zm-2.537-4.325c-.406-.726-.81-1.466-1.2-2.2l.915-.488c.388.728.789 1.462 1.192 2.182zm-2.36-4.424c-.377-.741-.752-1.5-1.114-2.246l.934-.452c.359.743.731 1.492 1.1 2.228zm-2.183-4.514c-.347-.756-.692-1.526-1.024-2.289l.951-.414c.33.757.672 1.52 1.016 2.27zm-2-4.6c-.317-.768-.631-1.551-.933-2.326l.967-.377c.3.769.611 1.545.925 2.307zm-1.82-4.67-.187-.512c-.224-.61-.447-1.232-.663-1.848l.979-.343a128.971 128.971 0 0 0 .844 2.345zM40 397.959a124.89 124.89 0 0 1-.757-2.389l.992-.3c.241.789.494 1.586.751 2.37zm-1.466-4.794c-.227-.8-.45-1.613-.662-2.419l1-.264c.21.8.431 1.606.657 2.4zm-1.276-4.849c-.2-.808-.386-1.629-.566-2.442l1.013-.224c.179.806.368 1.621.562 2.422zm-1.085-4.894a135.37 135.37 0 0 1-.471-2.463l1.021-.185c.147.813.3 1.635.467 2.444zm-.895-4.935c-.132-.82-.259-1.654-.376-2.478l1.027-.146c.116.818.242 1.645.373 2.459zm-.7-4.962c-.1-.824-.2-1.663-.282-2.492l1.032-.107c.086.823.18 1.655.28 2.473zm-.519-4.987a140.89 140.89 0 0 1-.191-2.5l1.035-.07c.056.827.119 1.661.189 2.479z" transform="translate(-22.352 -210.154)"/>
            <path id="Path_404" data-name="Path 404" class="cls-3" d="m235.353 599.707-.011-1.037c.825-.008 1.661-.027 2.485-.054l.035 1.037c-.832.027-1.676.047-2.509.054zm-2.512 0c-.833-.01-1.677-.029-2.508-.058l.036-1.037c.824.029 1.659.048 2.484.058zm7.526-.165-.059-1.036c.823-.047 1.657-.1 2.479-.169l.083 1.034c-.829.064-1.67.121-2.503.169zm-12.539-.01c-.832-.048-1.675-.107-2.5-.175l.084-1.034c.822.067 1.657.125 2.481.173zm17.541-.39-.107-1.032c.819-.085 1.649-.18 2.467-.284l.13 1.029c-.824.103-1.659.2-2.49.285zm-22.542-.017c-.828-.087-1.668-.185-2.494-.291l.132-1.029c.818.105 1.649.2 2.47.288zm27.52-.614-.154-1.026a93.45 93.45 0 0 0 2.453-.4l.178 1.022c-.824.143-1.654.278-2.477.402zm-32.5-.025c-.823-.125-1.657-.262-2.478-.406l.18-1.022c.813.143 1.638.278 2.454.4zm37.437-.834-.2-1.018c.809-.16 1.628-.332 2.434-.511l.225 1.013c-.812.178-1.643.352-2.455.513zm-42.378-.035c-.816-.163-1.643-.338-2.456-.521l.227-1.012c.806.18 1.624.354 2.433.516zm47.279-1.052-.248-1.007c.8-.2 1.61-.406 2.406-.621l.271 1c-.801.215-1.614.426-2.426.625zm-52.176-.045c-.807-.2-1.623-.413-2.426-.632l.273-1c.8.217 1.6.428 2.4.626zm57.019-1.265-.294-.995c.791-.233 1.59-.479 2.375-.731l.316.988c-.789.251-1.596.499-2.394.735zm-61.86-.056c-.8-.237-1.6-.487-2.4-.743l.318-.987c.785.253 1.584.5 2.374.736zm66.638-1.473-.339-.981c.78-.269 1.567-.551 2.34-.838l.361.973c-.777.286-1.568.571-2.358.843zm-71.412-.066c-.785-.273-1.579-.559-2.359-.85l.363-.972c.773.288 1.559.571 2.337.842zm76.115-1.679-.383-.964c.767-.3 1.54-.622 2.3-.943l.4.955c-.759.321-1.539.641-2.313.949zM193.7 591.9c-.773-.308-1.553-.63-2.32-.956l.406-.955c.759.323 1.532.641 2.3.947zm85.434-1.884-.427-.946c.753-.34 1.511-.692 2.253-1.048l.448.935c-.75.363-1.515.72-2.275 1.062zm-90.051-.079c-.759-.343-1.524-.7-2.275-1.059l.448-.935c.744.356 1.5.709 2.254 1.049zm94.575-2.09-.47-.925c.734-.374 1.475-.761 2.2-1.152l.492.913c-.733.398-1.48.79-2.223 1.167zm-99.1-.079c-.743-.377-1.491-.767-2.224-1.16l.49-.914c.726.389 1.467.776 2.2 1.149zm-4.421-2.371c-.726-.411-1.455-.835-2.168-1.26l.532-.891c.706.421 1.428.841 2.147 1.248zm-4.308-2.572c-.7-.441-1.409-.9-2.1-1.359l.573-.865c.689.456 1.39.909 2.084 1.346z" transform="translate(-92.368 -317.605)"/>
            <path id="Path_405" data-name="Path 405" class="cls-3" d="m492.97 457.916-.763-.7c.56-.609 1.12-1.229 1.663-1.845l.778.686c-.548.618-1.113 1.243-1.678 1.859zm3.317-3.759-.792-.67c.533-.631 1.066-1.275 1.584-1.915l.807.653a121.23 121.23 0 0 1-1.599 1.932zm3.155-3.9-.82-.635c.505-.653 1.01-1.32 1.5-1.983l.834.617a104.89 104.89 0 0 1-1.513 2.001zm2.982-4.033-.847-.6c.476-.675.951-1.363 1.411-2.047l.861.579c-.464.692-.944 1.387-1.424 2.068zm2.8-4.162-.873-.56c.445-.695.889-1.4 1.318-2.107l.886.54c-.432.711-.879 1.426-1.329 2.127zm2.613-4.283-.9-.52c.414-.714.825-1.443 1.222-2.165l.909.5a90.704 90.704 0 0 1-1.229 2.185zm2.416-4.4-.92-.479c.381-.732.758-1.478 1.121-2.217l.931.457c-.365.75-.745 1.503-1.13 2.242zm2.212-4.5-.941-.436c.347-.749.689-1.511 1.018-2.267l.951.414c-.33.764-.676 1.534-1.025 2.29zm2-4.6-.961-.391c.311-.764.617-1.542.91-2.312l.97.369c-.292.775-.601 1.56-.915 2.331zm1.784-4.689-.978-.347c.276-.777.547-1.568.8-2.352l.985.325a84.84 84.84 0 0 1-.802 2.371zm1.571-4.765-.992-.3c.24-.788.475-1.591.7-2.385l1 .28c-.228.796-.461 1.606-.704 2.402zm1.354-4.829-1-.257c.2-.8.4-1.612.59-2.416l1.01.235c-.189.808-.389 1.629-.596 2.435zm1.136-4.887-1.015-.212c.169-.807.33-1.628.481-2.439l1.02.189c-.149.816-.312 1.644-.482 2.459zm.915-4.931-1.024-.166c.132-.814.257-1.641.371-2.458l1.027.143c-.11.821-.237 1.656-.37 2.477zm.694-4.97-1.03-.12c.1-.818.184-1.649.261-2.47l1.033.1a98.907 98.907 0 0 1-.26 2.482z" transform="translate(-251.811 -223.493)"/>
            <path id="Path_406" data-name="Path 406" class="cls-3" d="M511.9 223.972c-.24-.792-.488-1.591-.74-2.374l.988-.317c.253.788.5 1.593.745 2.391zm-1.52-4.736c-.266-.783-.543-1.574-.822-2.35l.976-.351c.281.782.56 1.578.828 2.367zm-1.685-4.682c-.293-.772-.6-1.552-.9-2.318l.963-.386c.309.771.615 1.557.911 2.335zm-1.85-4.62a144.13 144.13 0 0 0-.986-2.284l.949-.42c.336.76.671 1.534.994 2.3zm-2.013-4.549c-.348-.749-.707-1.5-1.068-2.246l.933-.454c.364.747.725 1.509 1.076 2.263zm-2.176-4.473c-.374-.736-.761-1.478-1.148-2.207l.916-.487c.39.734.78 1.482 1.157 2.223zm-2.337-4.392c-.4-.722-.814-1.45-1.228-2.164l.9-.52c.417.72.834 1.453 1.238 2.18zm-2.495-4.3c-.265-.439-.536-.882-.807-1.318l-.5-.795.875-.558.508.8c.272.439.546.887.813 1.329zm-2.667-4.2c-.457-.686-.927-1.378-1.4-2.058l.853-.591c.475.685.949 1.383 1.409 2.074zm-2.833-4.088a119.61 119.61 0 0 0-1.474-2l.83-.623c.5.666 1 1.346 1.486 2.019zm-2.985-3.979c-.506-.65-1.027-1.305-1.547-1.948l.806-.653c.524.648 1.049 1.308 1.559 1.963zm-3.129-3.867a143.01 143.01 0 0 0-1.617-1.891l.782-.681c.547.629 1.1 1.27 1.629 1.906zm-3.267-3.753a143.547 143.547 0 0 0-1.682-1.833l.758-.708c.569.609 1.139 1.23 1.694 1.846zm-3.4-3.637c-.271-.28-.547-.564-.821-.843l.74-.727c.276.281.554.567.827.849z" transform="translate(-245.063 -110.608)"/>
            <g id="Group_206" data-name="Group 206" transform="translate(204.193 231.67)">
                <circle id="Ellipse_43" data-name="Ellipse 43" cx="18.292" cy="18.292" r="18.292" style="stroke-width:2px;stroke-miterlimit:10;stroke:#696969;fill:#fff"/>
                <g id="access" transform="translate(7.972 10.616)">
                    <path id="Path_505" data-name="Path 505" d="M19.2 88.152h15.48V76.8H19.2z" transform="translate(-18.426 -76.026)" style="fill:#b5b5b5"/>
                    <path id="Path_506" data-name="Path 506" d="M218.94 76.8h-7.74v11.352h7.74z" transform="translate(-202.686 -76.026)" style="fill:#8b8b8b"/>
                    <path id="Path_507" data-name="Path 507" d="M16.8 57.827a.774.774 0 0 0-.547-.227H.774a.774.774 0 0 0-.774.775v11.351a.774.774 0 0 0 .774.774h4.9v1.548H4.9a.774.774 0 0 0 0 1.548h7.224a.774.774 0 0 0 0-1.548h-.774V70.5h4.9a.774.774 0 0 0 .774-.774V58.374a.774.774 0 0 0-.224-.547zm-1.32 11.125H1.548v-9.8H15.48z" transform="translate(0 -57.6)" style="fill:#dbdbdb"/>
                    <path id="Path_508" data-name="Path 508" d="M219.488 57.827a.774.774 0 0 0-.547-.227H211.2v1.548h6.966v9.8H211.2V73.6h3.612a.774.774 0 0 0 0-1.548h-.774V70.5h4.9a.774.774 0 0 0 .774-.774V58.374a.774.774 0 0 0-.224-.547z" transform="translate(-202.686 -57.6)" style="fill:#d5d5d5"/>
                    <g id="Group_166" data-name="Group 166" transform="translate(10.836 5.16)">
                        <path id="Path_509" data-name="Path 509" class="cls-12" d="M276.041 191.355a3.354 3.354 0 1 0-4.678 0 4.906 4.906 0 0 0-2.563 4.307.774.774 0 0 0 .774.774h8.256a.774.774 0 0 0 .774-.774 4.906 4.906 0 0 0-2.563-4.307z" transform="translate(-268.8 -185.6)"/>
                    </g>
                    <g id="Group_167" data-name="Group 167" transform="translate(15.738 5.16)">
                        <path id="Path_511" data-name="Path 511" class="cls-12" d="M392.739 191.355a3.352 3.352 0 0 0-2.339-5.755v10.836h4.128a.774.774 0 0 0 .774-.774 4.906 4.906 0 0 0-2.563-4.307z" transform="translate(-390.4 -185.6)"/>
                    </g>
                </g>
            </g>
            <g id="Group_205" data-name="Group 205" transform="translate(42.83 229.675)">
                <circle id="Ellipse_40" data-name="Ellipse 40" cx="18.292" cy="18.292" r="18.292" style="stroke:#58bc6e;stroke-width:2px;stroke-miterlimit:10;fill:#fff"/>
                <g id="desktop" transform="translate(9.11 9.396)">
                    <path id="Path_495" data-name="Path 495" class="cls-14" d="m154.682 401-3.137 1.119-.119.416A1.574 1.574 0 0 1 150 403.61v.28h6.507z" transform="translate(-144.407 -386.458)"/>
                    <path id="Path_496" data-name="Path 496" class="cls-15" d="m195.8 373.653-.438-1.534-1.804-1.119-1.808 1.119-.32 1.119h3.137l.119.416a1.574 1.574 0 0 0 1.426 1.076l.559.28.559-.28a1.574 1.574 0 0 1-1.43-1.077z" transform="translate(-184.292 -357.577)"/>
                    <path id="Path_497" data-name="Path 497" class="cls-15" d="M437 256.593h1.119a1.122 1.122 0 0 0 1.119-1.119v-2.237L437 251z" transform="translate(-420.705 -242.051)"/>
                    <path id="Path_498" data-name="Path 498" class="cls-14" d="M0 197.712a1.122 1.122 0 0 0 1.119 1.119h15.176a1.122 1.122 0 0 0 1.119-1.119V191L0 195.474z" transform="translate(0 -184.288)"/>
                    <path id="Path_499" data-name="Path 499" d="M438.119 11H437l1.119 11.186h1.119V12.119A1.122 1.122 0 0 0 438.119 11z" transform="translate(-420.705 -11)" style="fill:#555"/>
                    <path id="Path_500" data-name="Path 500" d="M17.413 12.119A1.122 1.122 0 0 0 16.295 11H1.119A1.122 1.122 0 0 0 0 12.119v10.067h17.413v-1.118l-8.147-4.475z" transform="translate(0 -11)" style="fill:#747474"/>
                    <path id="Path_501" data-name="Path 501" d="M256.647 40.975h-1.118l-7.029 4.474 7.029 4.475h1.119l-.001-8.949z" transform="translate(-239.234 -39.856)" style="fill:#58bc6e"/>
                    <path id="Path_502" data-name="Path 502" d="M45.176 40.974H30v8.95h15.176s-.002-8.95 0-8.95z" transform="translate(-28.881 -39.855)" style="fill:#8ce29f"/>
                    <circle id="Ellipse_41" data-name="Ellipse 41" class="cls-4" cx=".559" cy=".559" transform="translate(8.707 12.305)" r=".559"/>
                    <path id="Path_503" data-name="Path 503" class="cls-15" d="M97.839 471.559H86.28a.28.28 0 1 1 0-.559h11.559a.28.28 0 1 1 0 .559z" transform="translate(-82.793 -453.848)"/>
                </g>
            </g>
            <g id="Group_209" data-name="Group 209" transform="translate(0 110.172)">
                <circle id="Ellipse_31" data-name="Ellipse 31" class="cls-20" cx="18.292" cy="18.292" r="18.292"/>
                <g id="folder" transform="translate(10.131 8.607)">
                    <path id="Path_486" data-name="Path 486" class="cls-21" d="M15.407 37.31H.52a.52.52 0 0 1-.5-.656l3.38-9.27A.52.52 0 0 1 3.9 27h14.888c.343 0 .5.327.5.656l-3.381 9.269a.52.52 0 0 1-.5.385z" transform="translate(0 -18.02)"/>
                    <path id="Path_487" data-name="Path 487" class="cls-22" d="M48.754 18H48v2.993h1.33v-2.417a.576.576 0 0 0-.576-.576z" transform="translate(-32.036 -12.013)"/>
                    <path id="Path_488" data-name="Path 488" class="cls-21" d="M1.33 11H.576a.576.576 0 0 0-.576.576v14.211h.068l1.262-3.439z" transform="translate(0 -7.342)"/>
                    <path id="Path_489" data-name="Path 489" d="M10.074 9.364a.52.52 0 0 1 .5-.384h12.064V0H10v9.565z" transform="translate(-6.674)" style="fill:#fcfcfc"/>
                    <g id="Group_165" data-name="Group 165" transform="translate(5.321 2.328)">
                        <path id="Path_490" data-name="Path 490" class="cls-24" d="M16.333 14.665h7.982a.333.333 0 1 0 0-.665h-7.982a.333.333 0 1 0 0 .665z" transform="translate(-16 -11.672)"/>
                        <path id="Path_491" data-name="Path 491" class="cls-24" d="M16.333 7.665h3.326a.333.333 0 1 0 0-.665h-3.326a.333.333 0 1 0 0 .665z" transform="translate(-16 -7)"/>
                        <path id="Path_492" data-name="Path 492" class="cls-24" d="M24.315 21h-7.982a.333.333 0 1 0 0 .665h7.982a.333.333 0 1 0 0-.665z" transform="translate(-16 -16.344)"/>
                    </g>
                    <path id="Path_493" data-name="Path 493" d="M8 10.9V2H7v11.636z" transform="translate(-4.672 -1.335)" style="fill:#e3e3e3"/>
                    <path id="Path_494" data-name="Path 494" class="cls-22" d="M5 14.971V4H4v13.706z" transform="translate(-2.67 -2.67)"/>
                </g>
            </g>
            <g id="Group_208" data-name="Group 208" transform="translate(251.636 120.305)">
                <circle id="Ellipse_46" data-name="Ellipse 46" class="cls-20" cx="18.292" cy="18.292" r="18.292"/>
                <g id="clock" transform="translate(6.381 7.596)">
                    <g id="Group_169" data-name="Group 169">
                        <path id="Path_512" data-name="Path 512" class="cls-22" d="M6.61 79.33v10.944h.946a1.491 1.491 0 0 1 1.292 2.237L5.816 97.76a1.491 1.491 0 0 1-2.583 0L.2 92.511a1.491 1.491 0 0 1 1.291-2.237h.946V79.329a.938.938 0 0 1 .938-.938h2.296a.939.939 0 0 1 .939.939z" transform="translate(0 -78.391)"/>
                    </g>
                    <g id="Group_178" data-name="Group 178" transform="translate(4.358 4.028)">
                        <circle id="Ellipse_44" data-name="Ellipse 44" class="cls-24" cx="8.043" cy="8.043" r="8.043"/>
                        <circle id="Ellipse_45" data-name="Ellipse 45" cx="6.148" cy="6.148" transform="translate(1.896 1.896)" style="fill:#f8f8f8" r="6.148"/>
                        <path id="Path_517" data-name="Path 517" class="cls-14" d="M131.31 202.459a6.148 6.148 0 1 1 0-12.117 6.149 6.149 0 0 0 0 12.117z" transform="translate(-122.192 -188.357)"/>
                        <path id="Path_518" data-name="Path 518" class="cls-27" d="M181.23 307.4h-2.856a.783.783 0 0 1 0-1.566h2.856a.783.783 0 0 1 0 1.566z" transform="translate(-173.187 -298.571)"/>
                        <path id="Path_519" data-name="Path 519" class="cls-27" d="M239.907 266.315a.783.783 0 0 1-.783-.783v-2a.783.783 0 0 1 1.566 0v2a.783.783 0 0 1-.783.783z" transform="translate(-231.864 -257.488)"/>
                        <g id="Group_177" data-name="Group 177" transform="translate(1.75 1.75)">
                            <g id="Group_171" data-name="Group 171" transform="translate(5.935)">
                                <path id="Path_520" data-name="Path 520" class="cls-28" d="M248.629 189.071a.359.359 0 0 1-.359-.359v-1.235a.359.359 0 1 1 .717 0v1.235a.359.359 0 0 1-.358.359z" transform="translate(-248.27 -187.118)"/>
                                <path id="Path_521" data-name="Path 521" class="cls-28" d="M248.629 418.175a.359.359 0 0 1-.359-.359v-1.235a.359.359 0 1 1 .717 0v1.235a.359.359 0 0 1-.358.359z" transform="translate(-248.27 -405.588)"/>
                            </g>
                            <g id="Group_172" data-name="Group 172" transform="translate(0 5.935)">
                                <path id="Path_522" data-name="Path 522" d="M351.109 315.694h-1.235a.359.359 0 0 1 0-.717h1.235a.359.359 0 0 1 0 .717z" transform="translate(-338.881 -314.977)" style="fill:#365e7d"/>
                                <path id="Path_523" data-name="Path 523" class="cls-28" d="M122 315.694h-1.23a.359.359 0 1 1 0-.717H122a.359.359 0 0 1 0 .717z" transform="translate(-120.411 -314.977)"/>
                            </g>
                        </g>
                        <path id="Path_532" data-name="Path 532" d="M122.331 195.544a6.506 6.506 0 1 1 6.506-6.506 6.514 6.514 0 0 1-6.506 6.506zm0-12.295a5.789 5.789 0 1 0 5.789 5.789 5.8 5.8 0 0 0-5.789-5.789z" transform="translate(-114.288 -180.995)" style="fill:#f0e4a0"/>
                    </g>
                    <g id="Group_179" data-name="Group 179" transform="translate(15.235 3.297)">
                        <path id="Path_533" data-name="Path 533" class="cls-21" d="M323.648 240.617v3.458h.946a1.491 1.491 0 0 1 1.292 2.237l-3.031 5.249a1.491 1.491 0 0 1-2.583 0l-3.031-5.249a1.491 1.491 0 0 1 1.291-2.237h.946v-3.458a.939.939 0 0 1 .939-.938h2.293a.939.939 0 0 1 .938.938z" transform="translate(-317.038 -239.678)"/>
                        <path id="Path_534" data-name="Path 534" d="M321.279 239.685h-.864a.938.938 0 0 0-.938.938v3.458h-.946a1.491 1.491 0 0 0-1.291 2.237l3.031 5.249a1.477 1.477 0 0 0 1.292.745 1 1 0 0 1-.865-.745l-2.031-5.249c-.385-.994.1-2.237.865-2.237h.389a.73.73 0 0 0 .73-.73v-2.728c-.001-.518.281-.938.628-.938z" transform="translate(-317.037 -239.685)" style="fill:#b7b8ba"/>
                    </g>
                </g>
            </g>
            <g id="Group_210" data-name="Group 210" transform="translate(65.016 19.365)">
                <g id="Group_203" data-name="Group 203">
                    <g id="Ellipse_39" data-name="Ellipse 39" style="stroke:#e87a42;stroke-width:2px;fill:#fff">
                        <circle cx="18.292" cy="18.292" r="18.292" style="stroke:none"/>
                        <circle cx="18.292" cy="18.292" r="17.292" style="fill:none"/>
                    </g>
                    <g id="department" transform="translate(9.431 9.526)">
                        <path id="Path_463" data-name="Path 463" class="cls-33" d="M40 0v17.132h4.431V1.181zm0 0" transform="translate(-38.523)"/>
                        <path id="Path_464" data-name="Path 464" d="M164.431 33.181 160 32v15.95h4.431zm0 0" transform="translate(-154.093 -30.819)" style="fill:#e87a42"/>
                        <path id="Path_465" data-name="Path 465" d="M280 112v13h2.954v-12.262zm0 0" transform="translate(-269.662 -107.865)" style="fill:#f7f4d2"/>
                        <path id="Path_466" data-name="Path 466" d="M362.954 132.738 360 132v12.258h2.954zm0 0" transform="translate(-346.708 -127.126)" style="fill:#fffde6"/>
                        <path id="Path_467" data-name="Path 467" d="M96 368h2.363v3.544H96zm0 0" transform="translate(-92.456 -354.413)" style="opacity:.183;fill:#6d6e71"/>
                        <path id="Path_468" data-name="Path 468" d="M160 368h2.363v3.544H160zm0 0" transform="translate(-154.093 -354.413)" style="fill:#939598;opacity:.183"/>
                        <path id="Path_469" data-name="Path 469" class="cls-39" d="M104 288h1.181v1.181H104zm0 0" transform="translate(-100.16 -277.367)"/>
                        <path id="Path_470" data-name="Path 470" class="cls-39" d="M184 288h1.182v1.181H184zm0 0" transform="translate(-177.206 -277.367)"/>
                        <path id="Path_471" data-name="Path 471" class="cls-33" d="M312 304h1.182v1.181H312zm0 0" transform="translate(-300.48 -292.776)"/>
                        <path id="Path_472" data-name="Path 472" class="cls-33" d="M376 304h1.181v1.181H376zm0 0" transform="translate(-362.117 -292.776)"/>
                        <path id="Path_473" data-name="Path 473" class="cls-33" d="M312 240h1.182v1.182H312zm0 0" transform="translate(-300.48 -231.139)"/>
                        <path id="Path_474" data-name="Path 474" class="cls-33" d="M376 240h1.181v1.182H376zm0 0" transform="translate(-362.117 -231.139)"/>
                        <path id="Path_475" data-name="Path 475" class="cls-33" d="M312 176h1.182v1.181H312zm0 0" transform="translate(-300.48 -169.502)"/>
                        <path id="Path_476" data-name="Path 476" class="cls-33" d="M376 176h1.181v1.181H376zm0 0" transform="translate(-362.117 -169.502)"/>
                        <g id="Group_160" data-name="Group 160" transform="translate(3.84 3.544)">
                            <path id="Path_477" data-name="Path 477" class="cls-39" d="M104 224h1.181v1.182H104zm0 0" transform="translate(-104 -219.274)"/>
                            <path id="Path_478" data-name="Path 478" class="cls-39" d="M184 224h1.182v1.182H184zm0 0" transform="translate(-181.046 -219.274)"/>
                            <path id="Path_479" data-name="Path 479" class="cls-39" d="M104 160h1.181v1.182H104zm0 0" transform="translate(-104 -157.637)"/>
                            <path id="Path_480" data-name="Path 480" class="cls-39" d="M184 160h1.182v1.182H184zm0 0" transform="translate(-181.046 -157.637)"/>
                            <path id="Path_481" data-name="Path 481" class="cls-39" d="M104 96h1.181v1.181H104zm0 0" transform="translate(-104 -96)"/>
                            <path id="Path_482" data-name="Path 482" class="cls-39" d="M184 96h1.182v1.181H184zm0 0" transform="translate(-181.046 -96)"/>
                        </g>
                        <path id="Path_483" data-name="Path 483" d="M360 384h1.181v2.954H360zm0 0" transform="translate(-346.708 -369.822)" style="opacity:.177;fill:#a7a8ab"/>
                        <path id="Path_484" data-name="Path 484" d="M328 384h1.181v2.954H328zm0 0" transform="translate(-315.89 -369.822)" style="opacity:.177;fill:#939598"/>
                        <path id="Path_485" data-name="Path 485" d="M0 456h17.722v.591H0zm0 0" transform="translate(0 -439.164)" style="fill:#626262"/>
                    </g>
                </g>
            </g>
            <g id="Group_213" data-name="Group 213" transform="translate(192.33 19.365)">
                <circle id="Ellipse_48" data-name="Ellipse 48" cx="18.292" cy="18.292" r="18.292" style="stroke:#de3a32;stroke-width:2px;stroke-miterlimit:10;fill:#fff"/>
                <g id="handshake" transform="translate(7.02 10.796)">
                    <g id="Group_181" data-name="Group 181" transform="translate(3.071 3.17)">
                        <path id="Path_535" data-name="Path 535" d="M74.518 127.821 70.478 129l-.9 3.575a4.892 4.892 0 0 0 1.214 3.231l6.7 5.446.811.624c1.221.939 2.377-.373 1.449-1.343l-.041-.043a1.2 1.2 0 0 0 .973.288.857.857 0 0 0 .518-1.5.972.972 0 1 0 1.306-1.428 1.274 1.274 0 0 0 1.119-2.217l-.026-.028-2.772-4.127-3.72-2.378z" transform="translate(-69.577 -127.821)" style="fill-rule:evenodd;fill:#ffead9"/>
                    </g>
                    <g id="Group_182" data-name="Group 182" transform="translate(8.446 14.877)">
                        <path id="Path_536" data-name="Path 536" class="cls-45" d="M193.8 394.918a1.041 1.041 0 0 0-1.3-1.618l-.891.847a.275.275 0 0 1-.03.027c-.748.752.611 2.464 1.735 1.266z" transform="translate(-191.363 -393.076)"/>
                    </g>
                    <g id="Group_183" data-name="Group 183" transform="translate(6.856 13.101)">
                        <path id="Path_537" data-name="Path 537" class="cls-45" d="m156.522 353.3-.941.987v.005a1.034 1.034 0 0 0 .414 1.569.972.972 0 0 0 1.164-.154l1.008-.015-.088-.859.129-.121a1.1 1.1 0 1 0-1.583-1.516z" transform="translate(-155.351 -352.833)"/>
                    </g>
                    <g id="Group_184" data-name="Group 184" transform="translate(5.086 11.309)">
                        <path id="Path_538" data-name="Path 538" class="cls-45" d="m116.5 313.136-.882.936-.124.133c-.87.923.688 2.377 1.587 1.435l.155-.16c.013-.014.958-.112 1.061-.124l-.017-.972.3-.316a1.077 1.077 0 1 0-1.571-1.472z" transform="translate(-115.241 -312.228)"/>
                    </g>
                    <g id="Group_185" data-name="Group 185" transform="translate(3.682 10.393)">
                        <path id="Path_539" data-name="Path 539" class="cls-45" d="m84.039 292.245-.3.324c-.92 1 .451 2.593 1.48 1.671l.844-.13.037-.806a1.121 1.121 0 0 0-1.764-1.382z" transform="translate(-83.437 -291.482)"/>
                    </g>
                    <g id="Group_186" data-name="Group 186" transform="translate(0 .099)">
                        <path id="Path_540" data-name="Path 540" d="m5.548 58.519-4.092 3.94-1.164 1.119a.96.96 0 0 0-.027 1.352L2 66.74a.267.267 0 0 0 .375.008l.695-.669 4.941-4.756.613-.591a.266.266 0 0 0 .008-.376L6.9 58.546a.956.956 0 0 0-1.352-.027z" transform="translate(0 -58.253)" style="fill:#ffc8c6;fill-rule:evenodd"/>
                    </g>
                    <g id="Group_187" data-name="Group 187" transform="translate(12.087 7.214)">
                        <path id="Path_541" data-name="Path 541" class="cls-47" d="m275.114 219.46-1.242.284.487.495 3.763 3.742.026.028a1.364 1.364 0 0 1 .381 1.413 1.3 1.3 0 0 0 .374-2.191l-.026-.028-1.129-1.122z" transform="translate(-273.872 -219.46)"/>
                    </g>
                    <g id="Group_188" data-name="Group 188" transform="translate(7.221 3.17)">
                        <path id="Path_542" data-name="Path 542" class="cls-47" d="m164.4 127.821-.791.761 2.473 1.22.909-.7z" transform="translate(-163.606 -127.821)"/>
                    </g>
                    <g id="Group_189" data-name="Group 189" transform="translate(7.829 2.887)">
                        <path id="Path_543" data-name="Path 543" class="cls-45" d="m180.17 122.974-.909.7-.856.661c-2.161 1.674-.369 3.326.914 2.76l1.442-.869.893-.2 1.242-.284 2.634 2.62 1.129 1.122a6.349 6.349 0 0 0 2.8-2.779l-1.648-3.447-3.848-1.843-.987.789c-.162.129-.113.1-.318.1a3.718 3.718 0 0 0-2.236.478z" transform="translate(-177.397 -121.414)"/>
                    </g>
                    <g id="Group_190" data-name="Group 190" transform="translate(7.961 6.773)">
                        <path id="Path_544" data-name="Path 544" class="cls-48" d="m183.006 209.819-1.442.869a1.407 1.407 0 0 1-1.2-.041 1.421 1.421 0 0 0 1.791.616l1.442-.869.893-.2 1.227-.28c-.568-.487-.67-.558-1.824-.293z" transform="translate(-180.368 -209.464)"/>
                    </g>
                    <g id="Group_191" data-name="Group 191" transform="translate(16.217 7.314)">
                        <path id="Path_545" data-name="Path 545" class="cls-48" d="M370.211 221.713a6.953 6.953 0 0 1-2.553 2.673 2.324 2.324 0 0 1-.224.1l.876.872a6.348 6.348 0 0 0 2.8-2.779z" transform="translate(-367.434 -221.713)"/>
                    </g>
                    <g id="Group_192" data-name="Group 192" transform="translate(4.148 .099)">
                        <path id="Path_546" data-name="Path 546" d="M93.99 59.865a.955.955 0 0 1 1.344.031l1.736 1.81a.267.267 0 0 1-.008.376l.791-.761.613-.591a.266.266 0 0 0 .008-.376l-1.736-1.81a.956.956 0 0 0-1.349-.027z" transform="translate(-93.99 -58.251)" style="fill:#ff9995;fill-rule:evenodd"/>
                    </g>
                    <g id="Group_193" data-name="Group 193" transform="translate(3.683 10.928)">
                        <path id="Path_547" data-name="Path 547" class="cls-48" d="M83.448 304.927a1.094 1.094 0 0 0 1.782.907l.553-.586.329-.35a1.041 1.041 0 0 0 .046-1.287.968.968 0 0 1-.247.644l-.585.621-.3.315a1.015 1.015 0 0 1-1.578-.264z" transform="translate(-83.448 -303.61)"/>
                    </g>
                    <g id="Group_194" data-name="Group 194" transform="translate(5.126 11.529)">
                        <path id="Path_548" data-name="Path 548" class="cls-48" d="M116.154 319.851a1.1 1.1 0 0 0 1.8.555l.155-.16v-.005l.941-.987a.943.943 0 0 1 .1-.1l.3-.316a1.033 1.033 0 0 0-.124-1.618 1.042 1.042 0 0 1-.3 1.014l-.3.316-.1.1-.941.987h-.005l-.153.161a.986.986 0 0 1-1.373.053z" transform="translate(-116.154 -317.215)"/>
                    </g>
                    <g id="Group_195" data-name="Group 195" transform="translate(6.893 13.377)">
                        <path id="Path_549" data-name="Path 549" class="cls-48" d="m157.985 361.656.687-.652.2-.2.129-.121a1.057 1.057 0 0 0-.066-1.6 1 1 0 0 1-.3 1.027l-.128.121-.363.345-.528.5-.03.026a.974.974 0 0 1-1.164.155 1.221 1.221 0 0 1-.237-.169 1.249 1.249 0 0 0 .6.744.972.972 0 0 0 1.164-.154z" transform="translate(-156.188 -359.085)"/>
                    </g>
                    <g id="Group_196" data-name="Group 196" transform="translate(8.446 15.218)">
                        <path id="Path_550" data-name="Path 550" class="cls-48" d="M193.814 402.309a1.028 1.028 0 0 0 .046-1.5 1.159 1.159 0 0 1-.348.758l-.49.523a1.039 1.039 0 0 1-1.647.016 1.1 1.1 0 0 0 1.949.726z" transform="translate(-191.376 -400.808)"/>
                    </g>
                    <g id="Group_197" data-name="Group 197" transform="translate(14.285 11.581)">
                        <path id="Path_551" data-name="Path 551" class="cls-50" d="M325.386 320.369a.34.34 0 0 1-.232-.091L323.78 319a.341.341 0 0 1 .465-.5l1.374 1.28a.341.341 0 0 1-.232.591z" transform="translate(-323.671 -318.407)"/>
                    </g>
                    <g id="Group_198" data-name="Group 198" transform="translate(12.978 13.008)">
                        <path id="Path_552" data-name="Path 552" class="cls-50" d="M295.777 352.7a.34.34 0 0 1-.232-.092l-1.375-1.281a.341.341 0 0 1 .465-.5l1.375 1.281a.341.341 0 0 1-.233.591z" transform="translate(-294.061 -350.739)"/>
                    </g>
                    <g id="Group_199" data-name="Group 199" transform="translate(12.208 14.894)">
                        <path id="Path_553" data-name="Path 553" class="cls-50" d="M277.64 394.791a.34.34 0 0 1-.232-.091l-.7-.651a.341.341 0 1 1 .464-.5l.7.651a.341.341 0 0 1-.232.591z" transform="translate(-276.599 -393.457)"/>
                    </g>
                    <g id="Group_200" data-name="Group 200" transform="translate(13.89)">
                        <path id="Path_554" data-name="Path 554" d="m315.218 58.886 4.6 4.427.9.864.33.318a.267.267 0 0 0 .375-.008l.906-.945.83-.865a.96.96 0 0 0-.027-1.352l-.8-.772-4.453-4.287a.956.956 0 0 0-1.349.027l-1.736 1.81a.266.266 0 0 0 .008.376z" transform="translate(-314.712 -55.999)" style="fill:#de3a32;fill-rule:evenodd"/>
                    </g>
                    <g id="Group_201" data-name="Group 201" transform="translate(19.075 4.225)">
                        <path id="Path_555" data-name="Path 555" d="M434.29 151.725zm-.807 2.213-.906.947a.266.266 0 0 1-.375.006l.816.786.33.318a.267.267 0 0 0 .375-.008l.906-.945.83-.865a.96.96 0 0 0-.027-1.352l-1.016-.978.086.084-.213-.205a.96.96 0 0 1 .023 1.347z" transform="translate(-432.202 -151.725)" style="fill:#b92821;fill-rule:evenodd"/>
                    </g>
                </g>
            </g>
        </g>
    </g>
</svg>
