<svg xmlns="http://www.w3.org/2000/svg" width="71" height="71">
    <defs>
        <clipPath id="clip-path">
            <path id="Rectangle_55" data-name="Rectangle 55" transform="translate(927 3330)" style="stroke:#707070;fill:#fff" d="M0 0h71v71H0z"/>
        </clipPath>
        <style>
            .cls-4{fill:#fff}.cls-3{fill:#f23d46}
        </style>
    </defs>
    <g id="Mask_Group_24" data-name="Mask Group 24" transform="translate(-927 -3330)" style="clip-path:url(#clip-path)">
        <g id="msegslogo_white_text" data-name="msegslogo white text" transform="translate(926.069 3331.44)">
            <g id="Group_40" data-name="Group 40">
                <path id="Path_136" data-name="Path 136" class="cls-3" d="M56.363 13.349h-6.778a19.1 19.1 0 0 0-27.564-2.154c-.032.032-.076.065-.108.1a1.8 1.8 0 0 0-.152.141 18.945 18.945 0 0 0-5.825 10.5 18.1 18.1 0 0 0-.314 3.443.953.953 0 0 1 .022.184l.022.736a17.256 17.256 0 0 0 .346 2.934h.011l.032.011a18.961 18.961 0 0 0 1.407 4.266l-.042-.01a19.067 19.067 0 0 0 8.932 9.116 18.75 18.75 0 0 0 7.156 1.895l2.079 5.689-.747.022c-.79 0-1.548-.032-2.284-.1a24.778 24.778 0 0 1-22.53-23.374.943.943 0 0 1-.054-.206l-.032-1a24.758 24.758 0 0 1 4.655-14.562c.249-.314.5-.65.747-.974a24.828 24.828 0 0 1 18.21-9.3c.032-.011.076-.011.108-.022.152 0 .3-.011.444-.022h.552a24.68 24.68 0 0 1 21.707 12.687z"/>
                <path id="Path_137" data-name="Path 137" class="cls-3" d="M38.932 47.29v-4.374a.714.714 0 0 1 .715-.715H53.19a.714.714 0 0 1 .715.715v4.374a.714.714 0 0 1-.715.71H39.657a.71.71 0 0 1-.725-.71z"/>
                <path id="Path_138" data-name="Path 138" class="cls-3" d="M60.314 16.878h-27.64a2.719 2.719 0 0 0-2.717 2.722v18.433a.947.947 0 0 0 .953.953h31.31a.7.7 0 0 0 .7-.7V19.488a2.618 2.618 0 0 0-2.606-2.61zM57.11 32.49a.693.693 0 0 1-.7.693H36.453a.684.684 0 0 1-.693-.693v-9.083a.693.693 0 0 1 .693-.7H56.4a.7.7 0 0 1 .7.7l.011 9.083z"/>
            </g>
            <g id="Group_41" data-name="Group 41">
                <path id="Path_139" data-name="Path 139" class="cls-4" d="M.931 52.714h4.19L9.213 62.8l4.049-10.09h4.168v14.577h-3.55V58.55l-3.259 8.737H7.752l-3.28-8.759v8.759H.931z"/>
                <path id="Path_140" data-name="Path 140" class="cls-4" d="M25.247 67.427c-3.129 0-5.586-1.559-5.684-4.5h3.778a1.669 1.669 0 0 0 1.809 1.653c1.039 0 1.7-.52 1.7-1.375 0-2.7-7.286-1.245-7.243-6.409 0-2.761 2.263-4.3 5.316-4.3 3.172 0 5.316 1.581 5.457 4.363h-3.844a1.58 1.58 0 0 0-1.678-1.516 1.288 1.288 0 0 0-1.494 1.332c0 2.533 7.2 1.386 7.2 6.269-.001 2.448-1.906 4.483-5.317 4.483z"/>
                <path id="Path_141" data-name="Path 141" class="cls-4" d="M37.893 67.449a5.589 5.589 0 0 1-5.857-5.955 5.561 5.561 0 0 1 5.857-5.955 5.455 5.455 0 0 1 5.771 5.771 8.638 8.638 0 0 1-.064 1.04h-8.035a2.143 2.143 0 0 0 2.2 2.219 1.891 1.891 0 0 0 1.851-1.126h3.778a5.418 5.418 0 0 1-5.501 4.006zm-2.306-7.081h4.439a2 2 0 0 0-2.176-1.992 2.2 2.2 0 0 0-2.263 1.992z"/>
                <path id="Path_142" data-name="Path 142" class="cls-4" d="M59.123 57.315H55.2a3.06 3.06 0 0 0-2.869-1.494c-2.284 0-3.8 1.624-3.8 4.147 0 2.7 1.537 4.276 4.092 4.276a3.489 3.489 0 0 0 3.529-2.577h-4.5v-2.62h7.719v3.313a7.132 7.132 0 0 1-7.016 5.023 7.108 7.108 0 0 1-7.427-7.416 7.108 7.108 0 0 1 7.416-7.427c3.477.001 6.011 1.787 6.779 4.775z"/>
                <path id="Path_143" data-name="Path 143" class="cls-4" d="M66.615 67.427c-3.129 0-5.586-1.559-5.684-4.5h3.779a1.669 1.669 0 0 0 1.808 1.656c1.039 0 1.7-.52 1.7-1.375 0-2.7-7.286-1.245-7.243-6.409 0-2.761 2.263-4.3 5.316-4.3 3.172 0 5.316 1.581 5.457 4.363H67.9a1.58 1.58 0 0 0-1.678-1.516 1.288 1.288 0 0 0-1.494 1.332c0 2.533 7.2 1.386 7.2 6.269.003 2.445-1.913 4.48-5.313 4.48z"/>
            </g>
        </g>
    </g>
</svg>
