<svg xmlns="http://www.w3.org/2000/svg" width="298.284" height="493.32">
    <defs>
        <style>
            .cls-1,.cls-2{stroke-miterlimit:10}.cls-1{fill:none;stroke:#c6c6c5;stroke-width:1.759px;stroke-dasharray:5}.cls-2{fill:#fff;stroke:#cad1de;stroke-width:2px}.cls-3{fill:#cad1de}.cls-4{fill:#b1b1b1}.cls-6{fill:#cec9ae}.cls-9{fill:#eaeaea}.cls-10{fill:#d6d6d6}.cls-21{fill:#696969}.cls-23{fill:#393939}.cls-24{fill:#7c8489}.cls-30,.cls-32,.cls-33{fill-rule:evenodd}.cls-30{fill:#ffe5c1}.cls-32,.cls-35{fill:#fddec5}.cls-33{fill:#fed1a3}.cls-39{fill:#c96b3b}.cls-45{fill:#f1f2f2}
        </style>
    </defs>
    <g id="Abous_us_New_MOB" data-name="Abous us New MOB" transform="translate(-168.036 -2236)">
        <g id="process" transform="translate(180.009 2238.624)">
            <path id="Path_424" data-name="Path 424" class="cls-1" d="M359.514 72.993c6.652 1.035 15.374 3.4 22.322 10.2 5.47 5.174 5.765 9.165 9.461 12.122 5.322 4.287 22.167.148 46.854-12.122" transform="rotate(90 269.71 35.55)"/>
            <path id="Path_556" data-name="Path 556" class="cls-1" d="M359.514 72.861c6.652 1.035 15.374 3.4 22.322 10.2 5.47 5.174 33.25-13.156 36.946-10.2 14.468 4.384 8.171-8.025 19.077 7" transform="translate(-260.078 143.499)"/>
            <path id="Path_425" data-name="Path 425" class="cls-1" d="M230.389 70.883c-7.479 1.025-17.285 3.367-25.1 10.1-6.15 5.124-6.482 9.078-10.637 12.006-5.983 4.246-18.449 5.71-46.205-6.442" transform="translate(-52.608 -37.127)"/>
            <path id="Path_426" data-name="Path 426" class="cls-1" d="M141.862 279.179c6.652 1.035 13.814 4.1 20.762 10.9 5.47 5.174 5.765 9.165 9.461 12.122 5.322 4.287 24.774 1.753 49.46-10.517" transform="translate(-43.412 118.872)"/>
            <path id="Path_427" data-name="Path 427" class="cls-1" d="M438.342 289.466c-6.652 1.035-22.722 1.812-29.67 8.612-5.47 5.174-5.765 9.165-9.461 12.122-5.322 4.287-24.7.148-49.388-12.122" transform="rotate(90 194.75 154.459)"/>
            <path id="Path_665" data-name="Path 665" d="M4.669-12.546a6.51 6.51 0 0 1 2.988.643 4.519 4.519 0 0 1 1.936 1.838 5.64 5.64 0 0 1 .673 2.814 5.6 5.6 0 0 1-.673 2.806 4.44 4.44 0 0 1-1.936 1.816A6.642 6.642 0 0 1 4.669-2H1.386v-10.546zm0 9.41a4.2 4.2 0 0 0 3.116-1.082 4.118 4.118 0 0 0 1.074-3.033 4.2 4.2 0 0 0-1.082-3.071 4.157 4.157 0 0 0-3.109-1.1H2.763v8.29zm14.977-3.328a8.1 8.1 0 0 1-.045.832h-6.627a2.68 2.68 0 0 0 .84 1.914 2.67 2.67 0 0 0 1.853.688 2.546 2.546 0 0 0 1.49-.416A2.2 2.2 0 0 0 18-4.558h1.483a3.564 3.564 0 0 1-1.331 1.944 4.018 4.018 0 0 1-2.481.749 4.191 4.191 0 0 1-2.11-.529A3.748 3.748 0 0 1 12.1-3.9a4.668 4.668 0 0 1-.529-2.262 4.735 4.735 0 0 1 .514-2.254 3.611 3.611 0 0 1 1.445-1.49 4.3 4.3 0 0 1 2.141-.522 4.161 4.161 0 0 1 2.088.514 3.562 3.562 0 0 1 1.4 1.414 4.174 4.174 0 0 1 .487 2.036zm-1.422-.287a2.539 2.539 0 0 0-.348-1.354 2.263 2.263 0 0 0-.946-.862 2.949 2.949 0 0 0-1.324-.3 2.552 2.552 0 0 0-1.778.666 2.712 2.712 0 0 0-.84 1.846zm4.614-2.012a3.283 3.283 0 0 1 1.218-1.188 3.643 3.643 0 0 1 1.883-.477 3.88 3.88 0 0 1 2 .529 3.732 3.732 0 0 1 1.414 1.49 4.657 4.657 0 0 1 .514 2.231 4.759 4.759 0 0 1-.514 2.239 3.8 3.8 0 0 1-1.409 1.529 3.8 3.8 0 0 1-2 .545 3.613 3.613 0 0 1-1.868-.477 3.408 3.408 0 0 1-1.238-1.188v5.462h-1.377v-12.224h1.377zm5.628 2.587a3.37 3.37 0 0 0-.378-1.634 2.618 2.618 0 0 0-1.022-1.06 2.827 2.827 0 0 0-1.414-.363 2.753 2.753 0 0 0-1.4.371 2.71 2.71 0 0 0-1.029 1.074 3.328 3.328 0 0 0-.386 1.626 3.36 3.36 0 0 0 .386 1.641 2.71 2.71 0 0 0 1.029 1.074 2.753 2.753 0 0 0 1.4.371 2.782 2.782 0 0 0 1.414-.371 2.659 2.659 0 0 0 1.021-1.074 3.448 3.448 0 0 0 .378-1.656zm2.708 0a4.657 4.657 0 0 1 .514-2.231A3.732 3.732 0 0 1 33.1-9.9a3.88 3.88 0 0 1 2-.529 3.679 3.679 0 0 1 1.9.47 3.125 3.125 0 0 1 1.2 1.18v-1.513h1.392V-2h-1.399v-1.545a3.243 3.243 0 0 1-1.218 1.2 3.643 3.643 0 0 1-1.883.477 3.758 3.758 0 0 1-2-.545 3.82 3.82 0 0 1-1.407-1.528 4.758 4.758 0 0 1-.512-2.236zm7.019.015a3.371 3.371 0 0 0-.378-1.639 2.671 2.671 0 0 0-1.021-1.067 2.782 2.782 0 0 0-1.414-.371 2.785 2.785 0 0 0-1.407.363 2.634 2.634 0 0 0-1.014 1.059 3.37 3.37 0 0 0-.378 1.634 3.448 3.448 0 0 0 .378 1.657 2.676 2.676 0 0 0 1.014 1.074 2.741 2.741 0 0 0 1.407.371 2.782 2.782 0 0 0 1.414-.371 2.659 2.659 0 0 0 1.021-1.074 3.415 3.415 0 0 0 .378-1.637zm5.1-2.784a2.641 2.641 0 0 1 1.036-1.1 3.2 3.2 0 0 1 1.641-.393v1.422h-.363q-2.315 0-2.315 2.511V-2h-1.378v-8.29h1.377zm5.945-.212v4.886a1.162 1.162 0 0 0 .257.855 1.268 1.268 0 0 0 .893.25H51.4V-2h-1.241a2.469 2.469 0 0 1-1.725-.529 2.272 2.272 0 0 1-.575-1.74v-4.888h-1.073v-1.135h1.074v-2.088h1.377v2.088H51.4v1.135zm13.8-1.286a3.626 3.626 0 0 1 1.725.4 2.893 2.893 0 0 1 1.2 1.2 4.015 4.015 0 0 1 .439 1.952V-2H65.03v-4.69a2.687 2.687 0 0 0-.613-1.9 2.154 2.154 0 0 0-1.657-.658 2.213 2.213 0 0 0-1.709.688 2.831 2.831 0 0 0-.635 1.989V-2h-1.361v-4.69a2.686 2.686 0 0 0-.613-1.9 2.154 2.154 0 0 0-1.657-.658 2.213 2.213 0 0 0-1.709.688 2.831 2.831 0 0 0-.635 1.989V-2h-1.377v-8.29h1.377v1.2a2.72 2.72 0 0 1 1.1-1 3.321 3.321 0 0 1 1.52-.348 3.588 3.588 0 0 1 1.846.469A2.862 2.862 0 0 1 60.1-8.6a2.719 2.719 0 0 1 1.15-1.362 3.387 3.387 0 0 1 1.783-.481zM76.21-6.464a8.1 8.1 0 0 1-.045.832h-6.627a2.68 2.68 0 0 0 .84 1.914 2.67 2.67 0 0 0 1.853.688 2.546 2.546 0 0 0 1.49-.416 2.2 2.2 0 0 0 .84-1.112h1.483a3.564 3.564 0 0 1-1.331 1.944 4.018 4.018 0 0 1-2.481.749 4.191 4.191 0 0 1-2.11-.529A3.748 3.748 0 0 1 68.661-3.9a4.668 4.668 0 0 1-.529-2.262 4.735 4.735 0 0 1 .514-2.254 3.611 3.611 0 0 1 1.445-1.49 4.3 4.3 0 0 1 2.141-.522 4.161 4.161 0 0 1 2.088.514 3.562 3.562 0 0 1 1.4 1.414 4.174 4.174 0 0 1 .49 2.036zm-1.422-.287a2.539 2.539 0 0 0-.348-1.354 2.263 2.263 0 0 0-.946-.862 2.949 2.949 0 0 0-1.324-.3 2.552 2.552 0 0 0-1.778.666 2.712 2.712 0 0 0-.84 1.846zm7.277-3.691a3.36 3.36 0 0 1 2.451.915 3.523 3.523 0 0 1 .938 2.64V-2h-1.362v-4.69a2.666 2.666 0 0 0-.62-1.9 2.216 2.216 0 0 0-1.694-.658 2.269 2.269 0 0 0-1.732.681 2.781 2.781 0 0 0-.646 1.982V-2h-1.375v-8.29H79.4v1.18a2.733 2.733 0 0 1 1.112-.983 3.449 3.449 0 0 1 1.553-.35zm7.322 1.286v4.886a1.162 1.162 0 0 0 .257.855 1.268 1.268 0 0 0 .893.25h1.013V-2h-1.241a2.469 2.469 0 0 1-1.725-.529 2.272 2.272 0 0 1-.575-1.74v-4.888h-1.073v-1.135h1.074v-2.088h1.377v2.088h2.163v1.135zm6.762 7.292a4.288 4.288 0 0 1-1.709-.325 2.884 2.884 0 0 1-1.2-.908 2.415 2.415 0 0 1-.484-1.339h1.422a1.4 1.4 0 0 0 .582 1.014 2.216 2.216 0 0 0 1.369.393 1.992 1.992 0 0 0 1.241-.348 1.063 1.063 0 0 0 .454-.877.865.865 0 0 0-.484-.809 6.787 6.787 0 0 0-1.5-.522 11.008 11.008 0 0 1-1.505-.492 2.671 2.671 0 0 1-1-.741 1.935 1.935 0 0 1-.416-1.293 1.96 1.96 0 0 1 .381-1.167 2.564 2.564 0 0 1 1.074-.84 3.865 3.865 0 0 1 1.588-.31 3.392 3.392 0 0 1 2.224.7 2.507 2.507 0 0 1 .914 1.902h-1.378A1.423 1.423 0 0 0 97.2-8.87a1.946 1.946 0 0 0-1.278-.393 1.972 1.972 0 0 0-1.18.318.982.982 0 0 0-.439.832.912.912 0 0 0 .265.673 1.934 1.934 0 0 0 .666.424 11.469 11.469 0 0 0 1.112.356 11.976 11.976 0 0 1 1.452.477 2.54 2.54 0 0 1 .961.7 1.881 1.881 0 0 1 .416 1.225A2.1 2.1 0 0 1 98.8-3.03a2.522 2.522 0 0 1-1.067.855 3.812 3.812 0 0 1-1.584.309z" transform="translate(.262 117.758)"/>
            <path id="Path_664" data-name="Path 664" d="M7.347-12.73v1.119H2.763v3.555h3.721v1.119H2.763v4.75H1.386V-12.73zm2.375.908a.905.905 0 0 1-.666-.272.905.905 0 0 1-.272-.666.905.905 0 0 1 .272-.666.905.905 0 0 1 .666-.272.863.863 0 0 1 .643.272.919.919 0 0 1 .265.666.919.919 0 0 1-.265.666.863.863 0 0 1-.643.272zm.666 1.346v8.29H9.011v-8.29zm3.722-2.9v11.191h-1.378V-13.38zm9.909 6.732a8.1 8.1 0 0 1-.045.832h-6.628a2.68 2.68 0 0 0 .84 1.914 2.67 2.67 0 0 0 1.853.688 2.546 2.546 0 0 0 1.49-.416 2.2 2.2 0 0 0 .84-1.112h1.483A3.564 3.564 0 0 1 22.52-2.8a4.018 4.018 0 0 1-2.481.749 4.191 4.191 0 0 1-2.11-.529 3.748 3.748 0 0 1-1.46-1.505 4.668 4.668 0 0 1-.529-2.262 4.735 4.735 0 0 1 .514-2.253 3.611 3.611 0 0 1 1.446-1.49 4.3 4.3 0 0 1 2.141-.522 4.161 4.161 0 0 1 2.088.514 3.562 3.562 0 0 1 1.4 1.414 4.174 4.174 0 0 1 .489 2.036zM22.6-6.936a2.539 2.539 0 0 0-.348-1.354 2.263 2.263 0 0 0-.946-.862 2.949 2.949 0 0 0-1.324-.295 2.552 2.552 0 0 0-1.778.666 2.712 2.712 0 0 0-.84 1.846zm6.172 4.886a4.288 4.288 0 0 1-1.709-.325 2.884 2.884 0 0 1-1.2-.908 2.415 2.415 0 0 1-.484-1.339H26.8a1.4 1.4 0 0 0 .582 1.014 2.217 2.217 0 0 0 1.369.393 1.992 1.992 0 0 0 1.241-.348 1.063 1.063 0 0 0 .454-.877.865.865 0 0 0-.484-.809 6.787 6.787 0 0 0-1.5-.522 11.008 11.008 0 0 1-1.505-.492 2.671 2.671 0 0 1-1-.741 1.935 1.935 0 0 1-.411-1.296 1.96 1.96 0 0 1 .378-1.165A2.564 2.564 0 0 1 27-10.3a3.865 3.865 0 0 1 1.588-.31 3.392 3.392 0 0 1 2.224.7 2.507 2.507 0 0 1 .908 1.906h-1.379a1.422 1.422 0 0 0-.522-1.044 1.946 1.946 0 0 0-1.278-.393 1.972 1.972 0 0 0-1.18.318.982.982 0 0 0-.439.832.912.912 0 0 0 .265.673 1.934 1.934 0 0 0 .666.424 11.469 11.469 0 0 0 1.112.356 11.976 11.976 0 0 1 1.452.477 2.54 2.54 0 0 1 .961.7 1.881 1.881 0 0 1 .416 1.225 2.1 2.1 0 0 1-.378 1.225 2.522 2.522 0 0 1-1.067.855 3.812 3.812 0 0 1-1.581.307z" transform="translate(210.778 118.911)"/>
            <path id="Path_662" data-name="Path 662" d="M8.436-9.583a2.913 2.913 0 0 1-.9 2.186 3.818 3.818 0 0 1-2.746.87H2.763v4.4H1.386v-10.542h3.4a3.858 3.858 0 0 1 2.716.862 2.9 2.9 0 0 1 .934 2.224zM4.79-7.662a2.447 2.447 0 0 0 1.694-.5 1.832 1.832 0 0 0 .545-1.422q0-1.952-2.239-1.952H2.763v3.873zm8.971 5.673a4.244 4.244 0 0 1-2.11-.529 3.769 3.769 0 0 1-1.483-1.505 4.615 4.615 0 0 1-.537-2.262 4.482 4.482 0 0 1 .552-2.247 3.8 3.8 0 0 1 1.505-1.5 4.367 4.367 0 0 1 2.133-.522 4.367 4.367 0 0 1 2.133.522 3.818 3.818 0 0 1 1.505 1.49 4.471 4.471 0 0 1 .552 2.254 4.418 4.418 0 0 1-.567 2.262 3.932 3.932 0 0 1-1.536 1.505 4.4 4.4 0 0 1-2.147.532zm0-1.21a2.907 2.907 0 0 0 1.392-.348A2.647 2.647 0 0 0 16.2-4.591a3.343 3.343 0 0 0 .4-1.694 3.4 3.4 0 0 0-.393-1.694 2.576 2.576 0 0 0-1.029-1.036 2.87 2.87 0 0 0-1.377-.34 2.857 2.857 0 0 0-1.384.34 2.5 2.5 0 0 0-1.001 1.035 3.506 3.506 0 0 0-.378 1.694 3.6 3.6 0 0 0 .371 1.709A2.464 2.464 0 0 0 12.4-3.54a2.783 2.783 0 0 0 1.361.34zm7.439-5.87a2.641 2.641 0 0 1 1.036-1.1 3.2 3.2 0 0 1 1.641-.393v1.422h-.363q-2.315 0-2.315 2.511v4.508h-1.372v-8.29H21.2zm5.945-.212v4.886a1.162 1.162 0 0 0 .257.855 1.268 1.268 0 0 0 .893.25h1.014v1.165h-1.237a2.469 2.469 0 0 1-1.725-.529 2.272 2.272 0 0 1-.575-1.74v-4.887H24.7v-1.135h1.074V-12.5h1.377v2.088h2.163v1.135zM30.462-6.3a4.657 4.657 0 0 1 .514-2.231 3.732 3.732 0 0 1 1.414-1.49 3.88 3.88 0 0 1 2-.529 3.679 3.679 0 0 1 1.891.469 3.125 3.125 0 0 1 1.2 1.18v-1.513h1.392v8.29h-1.391v-1.544a3.243 3.243 0 0 1-1.218 1.2 3.643 3.643 0 0 1-1.883.477 3.758 3.758 0 0 1-2-.545 3.82 3.82 0 0 1-1.407-1.528 4.759 4.759 0 0 1-.512-2.236zm7.019.015a3.37 3.37 0 0 0-.381-1.634 2.671 2.671 0 0 0-1.021-1.067 2.782 2.782 0 0 0-1.414-.371 2.785 2.785 0 0 0-1.407.363 2.634 2.634 0 0 0-1.014 1.059 3.37 3.37 0 0 0-.375 1.635 3.448 3.448 0 0 0 .378 1.657 2.675 2.675 0 0 0 1.014 1.073 2.741 2.741 0 0 0 1.407.371 2.782 2.782 0 0 0 1.414-.371A2.659 2.659 0 0 0 37.1-4.644a3.415 3.415 0 0 0 .382-1.641zm5.1-7.035v11.195H41.2V-13.32z" transform="translate(205.385 291.534)"/>
            <g id="Group" transform="translate(-11.973 274.924)">
                <path id="Path_666" data-name="Path 666" d="M2.763-11.61v3.525h3.842v1.135H2.763v3.63h4.3v1.135H1.386v-10.56h5.673v1.135zm5.87 5.249a4.657 4.657 0 0 1 .514-2.231 3.732 3.732 0 0 1 1.414-1.49 3.88 3.88 0 0 1 2-.529 3.679 3.679 0 0 1 1.891.469 3.125 3.125 0 0 1 1.2 1.18v-1.513h1.392v8.29h-1.392v-1.544a3.243 3.243 0 0 1-1.218 1.2 3.643 3.643 0 0 1-1.883.477 3.758 3.758 0 0 1-2-.545 3.82 3.82 0 0 1-1.404-1.525 4.759 4.759 0 0 1-.515-2.239zm7.019.015a3.37 3.37 0 0 0-.378-1.634 2.671 2.671 0 0 0-1.021-1.067 2.782 2.782 0 0 0-1.414-.371 2.785 2.785 0 0 0-1.407.363 2.634 2.634 0 0 0-1.014 1.059 3.37 3.37 0 0 0-.378 1.634 3.448 3.448 0 0 0 .378 1.662 2.676 2.676 0 0 0 1.013 1.07 2.741 2.741 0 0 0 1.407.371 2.782 2.782 0 0 0 1.414-.371 2.659 2.659 0 0 0 1.022-1.07 3.415 3.415 0 0 0 .378-1.646zm6.656 4.3a4.288 4.288 0 0 1-1.708-.329 2.884 2.884 0 0 1-1.2-.908 2.415 2.415 0 0 1-.484-1.339h1.422a1.4 1.4 0 0 0 .582 1.014 2.217 2.217 0 0 0 1.369.393 1.992 1.992 0 0 0 1.241-.348 1.063 1.063 0 0 0 .454-.877.865.865 0 0 0-.484-.809 6.788 6.788 0 0 0-1.5-.522 11.008 11.008 0 0 1-1.5-.491 2.671 2.671 0 0 1-1-.738 1.935 1.935 0 0 1-.414-1.3 1.96 1.96 0 0 1 .378-1.165 2.564 2.564 0 0 1 1.074-.84 3.865 3.865 0 0 1 1.588-.31 3.392 3.392 0 0 1 2.224.7 2.507 2.507 0 0 1 .908 1.906h-1.376a1.423 1.423 0 0 0-.522-1.044 1.946 1.946 0 0 0-1.278-.393 1.972 1.972 0 0 0-1.18.318.982.982 0 0 0-.439.832.912.912 0 0 0 .265.673 1.934 1.934 0 0 0 .666.424 11.469 11.469 0 0 0 1.112.356 11.976 11.976 0 0 1 1.452.477 2.54 2.54 0 0 1 .961.7 1.881 1.881 0 0 1 .416 1.225 2.1 2.1 0 0 1-.378 1.225 2.522 2.522 0 0 1-1.067.855 3.812 3.812 0 0 1-1.582.312zm5.673-9.773a.905.905 0 0 1-.666-.272.905.905 0 0 1-.272-.666.905.905 0 0 1 .272-.666.905.905 0 0 1 .666-.272.863.863 0 0 1 .643.272.919.919 0 0 1 .265.666.919.919 0 0 1-.265.666.863.863 0 0 1-.643.269zm.666 1.346v8.29H27.27v-8.29zm3.722-2.9v11.188h-1.377V-13.38zm9.485 2.9L36.862 1.718H35.44l1.634-3.994-3.343-8.2h1.528l2.6 6.717 2.572-6.717zm4.9 4.115a4.657 4.657 0 0 1 .514-2.231 3.732 3.732 0 0 1 1.414-1.49 3.88 3.88 0 0 1 2-.529 3.679 3.679 0 0 1 1.891.469 3.125 3.125 0 0 1 1.2 1.18v-1.513h1.392v8.29h-1.39v-1.547a3.243 3.243 0 0 1-1.218 1.2 3.643 3.643 0 0 1-1.883.477 3.758 3.758 0 0 1-2-.545 3.82 3.82 0 0 1-1.404-1.525 4.759 4.759 0 0 1-.515-2.239zm7.019.015A3.37 3.37 0 0 0 53.4-7.98a2.671 2.671 0 0 0-1.021-1.067 2.782 2.782 0 0 0-1.414-.371 2.785 2.785 0 0 0-1.407.363 2.634 2.634 0 0 0-1.014 1.059 3.37 3.37 0 0 0-.378 1.634 3.448 3.448 0 0 0 .375 1.662 2.675 2.675 0 0 0 1.013 1.07 2.741 2.741 0 0 0 1.407.371 2.782 2.782 0 0 0 1.414-.371A2.659 2.659 0 0 0 53.4-4.7a3.415 3.415 0 0 0 .375-1.646zm3.207 0a4.69 4.69 0 0 1 .52-2.249 3.7 3.7 0 0 1 1.43-1.49 4.108 4.108 0 0 1 2.1-.529 4.09 4.09 0 0 1 2.519.741 3.5 3.5 0 0 1 1.309 2.057h-1.492a2.129 2.129 0 0 0-.824-1.2 2.544 2.544 0 0 0-1.52-.439 2.439 2.439 0 0 0-1.906.809 3.316 3.316 0 0 0-.726 2.292 3.369 3.369 0 0 0 .726 2.315 2.428 2.428 0 0 0 1.906.817 2.575 2.575 0 0 0 1.513-.424 2.148 2.148 0 0 0 .832-1.21h1.483a3.646 3.646 0 0 1-1.331 2.035 3.988 3.988 0 0 1-2.5.764 4.108 4.108 0 0 1-2.1-.529 3.689 3.689 0 0 1-1.43-1.5 4.769 4.769 0 0 1-.507-2.263zm9.183 0a4.69 4.69 0 0 1 .514-2.247 3.7 3.7 0 0 1 1.43-1.49 4.108 4.108 0 0 1 2.1-.529 4.09 4.09 0 0 1 2.519.741 3.5 3.5 0 0 1 1.309 2.057h-1.486a2.129 2.129 0 0 0-.824-1.2 2.544 2.544 0 0 0-1.52-.439 2.439 2.439 0 0 0-1.906.809 3.316 3.316 0 0 0-.726 2.292 3.369 3.369 0 0 0 .727 2.318 2.428 2.428 0 0 0 1.906.817 2.575 2.575 0 0 0 1.513-.424 2.148 2.148 0 0 0 .832-1.21h1.483A3.646 3.646 0 0 1 72.7-2.813a3.988 3.988 0 0 1-2.5.764 4.108 4.108 0 0 1-2.1-.529 3.689 3.689 0 0 1-1.43-1.5 4.769 4.769 0 0 1-.505-2.268zm17.261-.3a8.1 8.1 0 0 1-.045.832h-6.624a2.68 2.68 0 0 0 .84 1.914 2.67 2.67 0 0 0 1.853.688 2.546 2.546 0 0 0 1.49-.416 2.2 2.2 0 0 0 .84-1.112h1.482A3.564 3.564 0 0 1 81.928-2.8a4.018 4.018 0 0 1-2.481.749 4.191 4.191 0 0 1-2.11-.529 3.748 3.748 0 0 1-1.46-1.505 4.668 4.668 0 0 1-.529-2.262 4.735 4.735 0 0 1 .514-2.253 3.611 3.611 0 0 1 1.445-1.49 4.3 4.3 0 0 1 2.141-.522 4.161 4.161 0 0 1 2.088.514 3.562 3.562 0 0 1 1.4 1.414 4.174 4.174 0 0 1 .49 2.036zM82-6.936a2.539 2.539 0 0 0-.348-1.354 2.263 2.263 0 0 0-.946-.862 2.949 2.949 0 0 0-1.324-.295 2.552 2.552 0 0 0-1.778.666 2.712 2.712 0 0 0-.84 1.846zm6.172 4.886a4.288 4.288 0 0 1-1.709-.325 2.884 2.884 0 0 1-1.2-.908 2.415 2.415 0 0 1-.484-1.339h1.431a1.4 1.4 0 0 0 .582 1.014 2.217 2.217 0 0 0 1.369.393 1.992 1.992 0 0 0 1.239-.347 1.063 1.063 0 0 0 .454-.877.865.865 0 0 0-.484-.809 6.787 6.787 0 0 0-1.5-.522 11.007 11.007 0 0 1-1.505-.492 2.671 2.671 0 0 1-1-.741 1.935 1.935 0 0 1-.411-1.297 1.96 1.96 0 0 1 .378-1.165 2.564 2.564 0 0 1 1.074-.84 3.865 3.865 0 0 1 1.588-.31 3.392 3.392 0 0 1 2.224.7 2.507 2.507 0 0 1 .908 1.906H89.75a1.423 1.423 0 0 0-.522-1.044 1.946 1.946 0 0 0-1.278-.393 1.972 1.972 0 0 0-1.18.318.982.982 0 0 0-.439.832.912.912 0 0 0 .265.673 1.934 1.934 0 0 0 .666.424 11.469 11.469 0 0 0 1.112.356 11.977 11.977 0 0 1 1.452.477 2.54 2.54 0 0 1 .961.7A1.881 1.881 0 0 1 91.2-4.44a2.1 2.1 0 0 1-.378 1.225 2.522 2.522 0 0 1-1.067.855 3.812 3.812 0 0 1-1.579.311zm7.9 0a4.288 4.288 0 0 1-1.709-.325 2.884 2.884 0 0 1-1.2-.908 2.415 2.415 0 0 1-.484-1.339h1.422a1.4 1.4 0 0 0 .582 1.014 2.217 2.217 0 0 0 1.369.393 1.992 1.992 0 0 0 1.248-.347 1.063 1.063 0 0 0 .454-.877.865.865 0 0 0-.484-.809 6.788 6.788 0 0 0-1.5-.522 11.007 11.007 0 0 1-1.505-.492 2.671 2.671 0 0 1-1-.741 1.935 1.935 0 0 1-.414-1.297 1.96 1.96 0 0 1 .378-1.165A2.564 2.564 0 0 1 94.3-10.3a3.865 3.865 0 0 1 1.588-.31 3.392 3.392 0 0 1 2.224.7 2.507 2.507 0 0 1 .908 1.906h-1.373a1.423 1.423 0 0 0-.522-1.044 1.946 1.946 0 0 0-1.278-.393 1.972 1.972 0 0 0-1.18.318.982.982 0 0 0-.439.832.912.912 0 0 0 .265.673 1.934 1.934 0 0 0 .666.424 11.468 11.468 0 0 0 1.112.356 11.976 11.976 0 0 1 1.452.477 2.54 2.54 0 0 1 .961.7A1.881 1.881 0 0 1 99.1-4.44a2.1 2.1 0 0 1-.378 1.225 2.522 2.522 0 0 1-1.067.855 3.812 3.812 0 0 1-1.582.311zm10.378-6.883a3.255 3.255 0 0 1 1.241-1.21 3.67 3.67 0 0 1 1.861-.469 3.868 3.868 0 0 1 2.012.529 3.748 3.748 0 0 1 1.407 1.49 4.657 4.657 0 0 1 .514 2.231 4.759 4.759 0 0 1-.514 2.239 3.8 3.8 0 0 1-1.414 1.528 3.8 3.8 0 0 1-2 .545 3.689 3.689 0 0 1-1.883-.469 3.19 3.19 0 0 1-1.218-1.2v1.528h-1.377V-13.38h1.377zm5.628 2.572a3.371 3.371 0 0 0-.378-1.634 2.619 2.619 0 0 0-1.021-1.059 2.827 2.827 0 0 0-1.414-.363 2.753 2.753 0 0 0-1.4.371 2.71 2.71 0 0 0-1.029 1.074 3.328 3.328 0 0 0-.386 1.626 3.36 3.36 0 0 0 .386 1.641 2.71 2.71 0 0 0 1.029 1.074 2.753 2.753 0 0 0 1.4.371 2.782 2.782 0 0 0 1.414-.371A2.659 2.659 0 0 0 111.7-4.7a3.448 3.448 0 0 0 .379-1.661zm10.363-4.115-4.992 12.194h-1.422l1.634-3.994-3.343-8.2h1.528l2.6 6.717 2.572-6.717z" transform="translate(-1.386 13.698)"/>
                <path id="Path_667" data-name="Path 667" d="M.774-7.465a5.548 5.548 0 0 1 .7-2.776 5.055 5.055 0 0 1 1.9-1.929 5.235 5.235 0 0 1 2.67-.7 5.418 5.418 0 0 1 3.011.832 4.768 4.768 0 0 1 1.876 2.36H9.276a3.311 3.311 0 0 0-1.263-1.467 3.655 3.655 0 0 0-1.974-.514 3.845 3.845 0 0 0-1.982.514A3.6 3.6 0 0 0 2.68-9.681a4.681 4.681 0 0 0-.5 2.216 4.647 4.647 0 0 0 .5 2.2A3.6 3.6 0 0 0 4.057-3.8a3.845 3.845 0 0 0 1.982.514A3.7 3.7 0 0 0 8.013-3.8a3.264 3.264 0 0 0 1.263-1.46h1.649a4.733 4.733 0 0 1-1.876 2.341 5.455 5.455 0 0 1-3.011.824 5.279 5.279 0 0 1-2.67-.688A5.015 5.015 0 0 1 1.47-4.7a5.506 5.506 0 0 1-.696-2.765zm12.9-4.357a.905.905 0 0 1-.666-.272.905.905 0 0 1-.272-.666.905.905 0 0 1 .272-.666.905.905 0 0 1 .666-.272.863.863 0 0 1 .643.272.919.919 0 0 1 .265.666.919.919 0 0 1-.265.666.863.863 0 0 1-.639.272zm.666 1.346v8.29h-1.373v-8.29zm4.024 1.135v4.886a1.162 1.162 0 0 0 .257.855 1.268 1.268 0 0 0 .893.25h1.014v1.165h-1.237a2.469 2.469 0 0 1-1.725-.529 2.272 2.272 0 0 1-.575-1.74v-4.887h-1.074v-1.135h1.074v-2.088h1.377v2.088h2.163v1.135zm4.538-2.481a.905.905 0 0 1-.666-.272.905.905 0 0 1-.272-.666.905.905 0 0 1 .272-.666.905.905 0 0 1 .666-.272.863.863 0 0 1 .643.272.919.919 0 0 1 .265.666.919.919 0 0 1-.265.666.863.863 0 0 1-.638.272zm.666 1.346v8.29H22.2v-8.29zm3.378 7.156h4.069v1.135h-5.643V-3.32L29.4-9.356h-4v-1.119h5.582v1.119zm13.418-3.328a8.1 8.1 0 0 1-.045.832h-6.626a2.68 2.68 0 0 0 .84 1.914 2.67 2.67 0 0 0 1.853.688 2.546 2.546 0 0 0 1.49-.416 2.2 2.2 0 0 0 .84-1.112H40.2A3.564 3.564 0 0 1 38.867-2.8a4.018 4.018 0 0 1-2.481.749 4.191 4.191 0 0 1-2.11-.529 3.748 3.748 0 0 1-1.46-1.505 4.668 4.668 0 0 1-.529-2.262A4.735 4.735 0 0 1 32.8-8.6a3.611 3.611 0 0 1 1.445-1.49 4.3 4.3 0 0 1 2.141-.522 4.161 4.161 0 0 1 2.088.514 3.562 3.562 0 0 1 1.4 1.414 4.174 4.174 0 0 1 .49 2.036zm-1.422-.287a2.539 2.539 0 0 0-.348-1.354 2.263 2.263 0 0 0-.946-.862 2.949 2.949 0 0 0-1.324-.295 2.552 2.552 0 0 0-1.778.666 2.712 2.712 0 0 0-.84 1.846zm7.277-3.691a3.36 3.36 0 0 1 2.451.915 3.523 3.523 0 0 1 .938 2.64v4.886h-1.362v-4.69a2.666 2.666 0 0 0-.62-1.9 2.216 2.216 0 0 0-1.694-.658 2.269 2.269 0 0 0-1.732.681 2.781 2.781 0 0 0-.643 1.982v4.584H42.18v-8.29h1.377V-9.3a2.733 2.733 0 0 1 1.112-.983 3.449 3.449 0 0 1 1.55-.344z" transform="translate(33.598 31.437)"/>
            </g>
            <path id="Path_663" data-name="Path 663" d="M12.082-12.663v10.469H10.7V-10L7.225-2.194h-.968l-3.494-7.821v7.821H1.386v-10.469h1.483l3.872 8.654 3.873-8.653zm5.945 10.6a4.244 4.244 0 0 1-2.11-.529 3.769 3.769 0 0 1-1.483-1.505 4.615 4.615 0 0 1-.534-2.257 4.482 4.482 0 0 1 .549-2.246 3.8 3.8 0 0 1 1.505-1.5 4.367 4.367 0 0 1 2.133-.522 4.367 4.367 0 0 1 2.133.522 3.818 3.818 0 0 1 1.505 1.49 4.471 4.471 0 0 1 .552 2.254 4.418 4.418 0 0 1-.567 2.262 3.932 3.932 0 0 1-1.536 1.505 4.4 4.4 0 0 1-2.147.531zm0-1.21a2.907 2.907 0 0 0 1.392-.348A2.647 2.647 0 0 0 20.47-4.66a3.343 3.343 0 0 0 .4-1.694 3.4 3.4 0 0 0-.393-1.694 2.576 2.576 0 0 0-1.029-1.036 2.87 2.87 0 0 0-1.377-.34 2.857 2.857 0 0 0-1.384.34 2.5 2.5 0 0 0-1.006 1.036 3.506 3.506 0 0 0-.381 1.694 3.6 3.6 0 0 0 .371 1.709 2.463 2.463 0 0 0 .991 1.036 2.783 2.783 0 0 0 1.365.341zm7.443-5.87a2.641 2.641 0 0 1 1.036-1.1 3.2 3.2 0 0 1 1.641-.393v1.422h-.363q-2.315 0-2.315 2.511v4.508h-1.376v-8.29h1.377zM37.3-6.657a8.1 8.1 0 0 1-.045.832h-6.626a2.68 2.68 0 0 0 .84 1.914 2.67 2.67 0 0 0 1.853.688 2.546 2.546 0 0 0 1.49-.416 2.2 2.2 0 0 0 .84-1.112h1.483A3.564 3.564 0 0 1 35.8-2.807a4.018 4.018 0 0 1-2.481.749 4.191 4.191 0 0 1-2.11-.529 3.748 3.748 0 0 1-1.46-1.505 4.668 4.668 0 0 1-.529-2.262 4.735 4.735 0 0 1 .514-2.254 3.611 3.611 0 0 1 1.445-1.49 4.3 4.3 0 0 1 2.141-.522 4.161 4.161 0 0 1 2.088.514 3.562 3.562 0 0 1 1.4 1.414 4.174 4.174 0 0 1 .492 2.035zm-1.422-.287A2.539 2.539 0 0 0 35.53-8.3a2.263 2.263 0 0 0-.946-.862 2.949 2.949 0 0 0-1.324-.295 2.552 2.552 0 0 0-1.778.666 2.712 2.712 0 0 0-.84 1.846zm14.841.287a8.1 8.1 0 0 1-.045.832h-6.627a2.68 2.68 0 0 0 .84 1.914 2.67 2.67 0 0 0 1.853.688 2.546 2.546 0 0 0 1.49-.416 2.2 2.2 0 0 0 .84-1.112h1.483a3.564 3.564 0 0 1-1.331 1.944 4.018 4.018 0 0 1-2.481.749 4.191 4.191 0 0 1-2.11-.529 3.748 3.748 0 0 1-1.46-1.505 4.668 4.668 0 0 1-.529-2.262 4.735 4.735 0 0 1 .514-2.254A3.611 3.611 0 0 1 44.6-10.1a4.3 4.3 0 0 1 2.141-.522 4.161 4.161 0 0 1 2.088.514 3.562 3.562 0 0 1 1.4 1.414 4.174 4.174 0 0 1 .49 2.037zM49.3-6.944a2.539 2.539 0 0 0-.351-1.356A2.263 2.263 0 0 0 48-9.161a2.949 2.949 0 0 0-1.324-.295 2.552 2.552 0 0 0-1.776.666 2.712 2.712 0 0 0-.84 1.846zm6.608-2.406h-1.74v7.156h-1.376V-9.35h-1.075v-1.135h1.074v-.59a2.6 2.6 0 0 1 .719-2.035 3.408 3.408 0 0 1 2.307-.643v1.15a1.828 1.828 0 0 0-1.278.356 1.571 1.571 0 0 0-.371 1.172v.59h1.74zm4.977 0h-1.74v7.156h-1.376V-9.35h-1.074v-1.135h1.074v-.59a2.6 2.6 0 0 1 .719-2.035 3.408 3.408 0 0 1 2.307-.643v1.15a1.828 1.828 0 0 0-1.278.356 1.571 1.571 0 0 0-.371 1.172v.59h1.74zm2.315-2.481a.905.905 0 0 1-.666-.272.905.905 0 0 1-.272-.666.905.905 0 0 1 .272-.666.905.905 0 0 1 .666-.272.863.863 0 0 1 .643.272.919.919 0 0 1 .265.666.919.919 0 0 1-.265.666.863.863 0 0 1-.643.272zm.666 1.346v8.29h-1.377v-8.29zm1.83 4.13A4.69 4.69 0 0 1 66.21-8.6a3.7 3.7 0 0 1 1.43-1.49 4.108 4.108 0 0 1 2.1-.529 4.09 4.09 0 0 1 2.519.741 3.5 3.5 0 0 1 1.309 2.057H72.08a2.129 2.129 0 0 0-.824-1.2 2.544 2.544 0 0 0-1.52-.439 2.439 2.439 0 0 0-1.906.809 3.316 3.316 0 0 0-.73 2.297 3.369 3.369 0 0 0 .726 2.315 2.428 2.428 0 0 0 1.906.817 2.575 2.575 0 0 0 1.513-.424 2.148 2.148 0 0 0 .832-1.21h1.483a3.646 3.646 0 0 1-1.331 2.035 3.988 3.988 0 0 1-2.5.764 4.108 4.108 0 0 1-2.1-.529 3.689 3.689 0 0 1-1.43-1.5 4.769 4.769 0 0 1-.499-2.268zM76.1-11.831a.905.905 0 0 1-.666-.272.905.905 0 0 1-.272-.666.905.905 0 0 1 .272-.666.905.905 0 0 1 .666-.272.863.863 0 0 1 .643.272.919.919 0 0 1 .265.666.919.919 0 0 1-.265.666.863.863 0 0 1-.643.272zm.666 1.346v8.29h-1.373v-8.29zm9.909 3.827a8.1 8.1 0 0 1-.045.832h-6.623a2.68 2.68 0 0 0 .84 1.914 2.67 2.67 0 0 0 1.853.688 2.546 2.546 0 0 0 1.49-.416 2.2 2.2 0 0 0 .84-1.112h1.483a3.564 3.564 0 0 1-1.331 1.944 4.018 4.018 0 0 1-2.481.749 4.191 4.191 0 0 1-2.11-.529 3.748 3.748 0 0 1-1.46-1.505 4.668 4.668 0 0 1-.531-2.261 4.735 4.735 0 0 1 .514-2.254 3.611 3.611 0 0 1 1.445-1.49 4.3 4.3 0 0 1 2.141-.522 4.161 4.161 0 0 1 2.088.514 3.562 3.562 0 0 1 1.4 1.414 4.174 4.174 0 0 1 .491 2.035zm-1.422-.287a2.539 2.539 0 0 0-.344-1.355 2.263 2.263 0 0 0-.946-.862 2.949 2.949 0 0 0-1.324-.295 2.552 2.552 0 0 0-1.778.666 2.712 2.712 0 0 0-.84 1.846zm7.277-3.691a3.36 3.36 0 0 1 2.451.915 3.523 3.523 0 0 1 .938 2.64v4.886H94.56v-4.69a2.666 2.666 0 0 0-.62-1.9 2.216 2.216 0 0 0-1.694-.658 2.269 2.269 0 0 0-1.732.681 2.781 2.781 0 0 0-.643 1.982v4.584h-1.377v-8.29h1.377V-9.3a2.733 2.733 0 0 1 1.112-.983 3.449 3.449 0 0 1 1.55-.353zm7.325 1.286v4.886a1.162 1.162 0 0 0 .257.855 1.268 1.268 0 0 0 .893.25h1.014v1.165h-1.241a2.469 2.469 0 0 1-1.725-.529 2.273 2.273 0 0 1-.575-1.74V-9.35H97.4v-1.135h1.074v-2.088h1.377v2.088h2.163v1.135z" transform="translate(-7.239 475.06)"/>
            <g id="Group-2" data-name="Group" transform="translate(174.755 461.308)">
                <path id="Path_669" data-name="Path 669" d="M6.666-7.616a2.228 2.228 0 0 1 1.051.469 2.752 2.752 0 0 1 .756.938 2.636 2.636 0 0 1 .28 1.2 2.637 2.637 0 0 1-.408 1.439 2.775 2.775 0 0 1-1.188 1.014 4.24 4.24 0 0 1-1.838.371H1.386V-12.73h3.782A4.278 4.278 0 0 1 7-12.374a2.591 2.591 0 0 1 1.135.961 2.516 2.516 0 0 1 .378 1.362A2.352 2.352 0 0 1 8-8.5a2.836 2.836 0 0 1-1.334.884zm-3.9-.56h2.311a2.233 2.233 0 0 0 1.5-.454A1.566 1.566 0 0 0 7.1-9.886a1.566 1.566 0 0 0-.529-1.256 2.284 2.284 0 0 0-1.524-.458H2.763zM5.2-3.32a2.417 2.417 0 0 0 1.6-.48 1.665 1.665 0 0 0 .575-1.346A1.71 1.71 0 0 0 6.77-6.53a2.44 2.44 0 0 0-1.619-.507H2.763v3.717zm12.814-7.156v8.29h-1.379v-1.225a2.68 2.68 0 0 1-1.1.991 3.388 3.388 0 0 1-1.551.356 3.717 3.717 0 0 1-1.74-.4 2.915 2.915 0 0 1-1.218-1.2 3.96 3.96 0 0 1-.446-1.952v-4.856h1.362V-5.8a2.643 2.643 0 0 0 .62 1.883 2.216 2.216 0 0 0 1.694.658A2.264 2.264 0 0 0 16-3.94a2.8 2.8 0 0 0 .635-1.982v-4.554zm5.265 8.426a4.288 4.288 0 0 1-1.709-.325 2.884 2.884 0 0 1-1.2-.908 2.415 2.415 0 0 1-.484-1.339h1.424a1.4 1.4 0 0 0 .582 1.014 2.217 2.217 0 0 0 1.369.393 1.992 1.992 0 0 0 1.239-.347 1.063 1.063 0 0 0 .454-.877.865.865 0 0 0-.484-.809 6.788 6.788 0 0 0-1.5-.522 11.007 11.007 0 0 1-1.505-.492 2.671 2.671 0 0 1-1-.741 1.935 1.935 0 0 1-.411-1.297 1.96 1.96 0 0 1 .378-1.165 2.564 2.564 0 0 1 1.074-.84 3.865 3.865 0 0 1 1.588-.31 3.392 3.392 0 0 1 2.224.7 2.507 2.507 0 0 1 .908 1.906H24.85a1.423 1.423 0 0 0-.522-1.044 1.946 1.946 0 0 0-1.278-.393 1.972 1.972 0 0 0-1.18.318.982.982 0 0 0-.439.832.912.912 0 0 0 .265.673 1.934 1.934 0 0 0 .666.424 11.469 11.469 0 0 0 1.112.356 11.976 11.976 0 0 1 1.452.477 2.54 2.54 0 0 1 .961.7A1.881 1.881 0 0 1 26.3-4.44a2.1 2.1 0 0 1-.378 1.225 2.522 2.522 0 0 1-1.067.855 3.812 3.812 0 0 1-1.579.311zm5.673-9.773a.905.905 0 0 1-.666-.272.905.905 0 0 1-.272-.666.905.905 0 0 1 .272-.666.905.905 0 0 1 .666-.272.863.863 0 0 1 .643.272.919.919 0 0 1 .265.666.919.919 0 0 1-.265.666.863.863 0 0 1-.645.273zm.666 1.346v8.29h-1.379v-8.29zm6.382-.15a3.36 3.36 0 0 1 2.451.915 3.523 3.523 0 0 1 .938 2.64v4.886h-1.363v-4.69a2.666 2.666 0 0 0-.62-1.9 2.216 2.216 0 0 0-1.694-.658 2.269 2.269 0 0 0-1.732.681 2.781 2.781 0 0 0-.643 1.982v4.584H31.96v-8.29h1.377V-9.3a2.733 2.733 0 0 1 1.112-.983A3.449 3.449 0 0 1 36-10.627zm13.206 3.979a8.1 8.1 0 0 1-.045.832h-6.626a2.68 2.68 0 0 0 .84 1.914 2.67 2.67 0 0 0 1.853.688 2.546 2.546 0 0 0 1.49-.416 2.2 2.2 0 0 0 .84-1.112h1.482A3.564 3.564 0 0 1 47.708-2.8a4.018 4.018 0 0 1-2.481.749 4.191 4.191 0 0 1-2.11-.529 3.748 3.748 0 0 1-1.46-1.505 4.668 4.668 0 0 1-.529-2.262 4.735 4.735 0 0 1 .514-2.253 3.611 3.611 0 0 1 1.445-1.49 4.3 4.3 0 0 1 2.141-.522 4.161 4.161 0 0 1 2.088.514 3.562 3.562 0 0 1 1.4 1.414 4.174 4.174 0 0 1 .49 2.036zm-1.422-.287a2.539 2.539 0 0 0-.348-1.354 2.263 2.263 0 0 0-.946-.862 2.949 2.949 0 0 0-1.324-.295 2.552 2.552 0 0 0-1.778.666 2.712 2.712 0 0 0-.84 1.846zm6.172 4.886a4.288 4.288 0 0 1-1.709-.325 2.884 2.884 0 0 1-1.2-.908 2.415 2.415 0 0 1-.484-1.339h1.427a1.4 1.4 0 0 0 .582 1.014 2.217 2.217 0 0 0 1.369.393 1.992 1.992 0 0 0 1.241-.348 1.063 1.063 0 0 0 .454-.877.865.865 0 0 0-.484-.809 6.788 6.788 0 0 0-1.5-.522 11.008 11.008 0 0 1-1.505-.492 2.671 2.671 0 0 1-1-.741 1.935 1.935 0 0 1-.413-1.297 1.96 1.96 0 0 1 .378-1.165 2.564 2.564 0 0 1 1.074-.84 3.865 3.865 0 0 1 1.588-.31 3.392 3.392 0 0 1 2.224.7 2.507 2.507 0 0 1 .908 1.906H55.53a1.423 1.423 0 0 0-.522-1.044 1.946 1.946 0 0 0-1.278-.393 1.972 1.972 0 0 0-1.18.318.982.982 0 0 0-.439.832.912.912 0 0 0 .265.673 1.934 1.934 0 0 0 .666.424 11.469 11.469 0 0 0 1.112.356 11.977 11.977 0 0 1 1.452.477 2.54 2.54 0 0 1 .961.7 1.881 1.881 0 0 1 .416 1.225 2.1 2.1 0 0 1-.383 1.227 2.522 2.522 0 0 1-1.067.855 3.812 3.812 0 0 1-1.577.31zm7.9 0a4.288 4.288 0 0 1-1.709-.325 2.884 2.884 0 0 1-1.2-.908 2.415 2.415 0 0 1-.484-1.339h1.422a1.4 1.4 0 0 0 .582 1.014 2.217 2.217 0 0 0 1.369.393 1.992 1.992 0 0 0 1.241-.348 1.063 1.063 0 0 0 .454-.877.865.865 0 0 0-.484-.809 6.788 6.788 0 0 0-1.5-.522 11.007 11.007 0 0 1-1.505-.492 2.671 2.671 0 0 1-1-.741 1.935 1.935 0 0 1-.411-1.297 1.96 1.96 0 0 1 .378-1.165 2.564 2.564 0 0 1 1.074-.84 3.865 3.865 0 0 1 1.588-.31 3.392 3.392 0 0 1 2.224.7A2.507 2.507 0 0 1 64.8-8.01h-1.373a1.423 1.423 0 0 0-.527-1.044 1.946 1.946 0 0 0-1.278-.393 1.972 1.972 0 0 0-1.18.318.982.982 0 0 0-.439.832.912.912 0 0 0 .265.673 1.934 1.934 0 0 0 .666.424 11.468 11.468 0 0 0 1.112.356 11.977 11.977 0 0 1 1.452.477 2.54 2.54 0 0 1 .961.7 1.881 1.881 0 0 1 .416 1.225 2.1 2.1 0 0 1-.375 1.228 2.522 2.522 0 0 1-1.067.855 3.812 3.812 0 0 1-1.58.31zm16.565-4.6a8.1 8.1 0 0 1-.045.832h-6.629a2.68 2.68 0 0 0 .84 1.914 2.67 2.67 0 0 0 1.853.688 2.546 2.546 0 0 0 1.49-.416 2.2 2.2 0 0 0 .84-1.112h1.483A3.564 3.564 0 0 1 76.921-2.8a4.018 4.018 0 0 1-2.481.749 4.191 4.191 0 0 1-2.11-.529 3.748 3.748 0 0 1-1.46-1.505 4.668 4.668 0 0 1-.529-2.262 4.735 4.735 0 0 1 .514-2.253 3.611 3.611 0 0 1 1.445-1.49 4.3 4.3 0 0 1 2.141-.522 4.161 4.161 0 0 1 2.088.514 3.562 3.562 0 0 1 1.4 1.414 4.174 4.174 0 0 1 .49 2.036zM77-6.936a2.539 2.539 0 0 0-.348-1.354 2.263 2.263 0 0 0-.946-.862 2.949 2.949 0 0 0-1.324-.295 2.552 2.552 0 0 0-1.778.666 2.712 2.712 0 0 0-.84 1.846zm2.723.575a4.657 4.657 0 0 1 .514-2.231 3.732 3.732 0 0 1 1.414-1.49 3.88 3.88 0 0 1 2-.529 3.679 3.679 0 0 1 1.891.469 3.125 3.125 0 0 1 1.2 1.18v-1.513h1.392v8.29h-1.395v-1.544a3.243 3.243 0 0 1-1.218 1.2 3.643 3.643 0 0 1-1.883.477 3.758 3.758 0 0 1-2-.545 3.82 3.82 0 0 1-1.407-1.528 4.759 4.759 0 0 1-.511-2.236zm7.019.015a3.37 3.37 0 0 0-.378-1.634 2.671 2.671 0 0 0-1.024-1.066 2.782 2.782 0 0 0-1.414-.371 2.785 2.785 0 0 0-1.407.363A2.634 2.634 0 0 0 81.5-7.995a3.371 3.371 0 0 0-.378 1.634A3.448 3.448 0 0 0 81.5-4.7a2.676 2.676 0 0 0 1.018 1.07 2.741 2.741 0 0 0 1.407.371 2.782 2.782 0 0 0 1.415-.371 2.659 2.659 0 0 0 1.021-1.07 3.415 3.415 0 0 0 .378-1.646zm6.656 4.3a4.288 4.288 0 0 1-1.709-.325 2.884 2.884 0 0 1-1.2-.908 2.415 2.415 0 0 1-.484-1.339h1.422a1.4 1.4 0 0 0 .582 1.014 2.217 2.217 0 0 0 1.369.393 1.992 1.992 0 0 0 1.241-.348 1.063 1.063 0 0 0 .454-.877.865.865 0 0 0-.484-.809 6.788 6.788 0 0 0-1.5-.522 11.008 11.008 0 0 1-1.505-.492 2.671 2.671 0 0 1-1-.741 1.935 1.935 0 0 1-.411-1.3 1.96 1.96 0 0 1 .378-1.165 2.564 2.564 0 0 1 1.074-.84 3.865 3.865 0 0 1 1.588-.31 3.392 3.392 0 0 1 2.224.7 2.507 2.507 0 0 1 .908 1.906h-1.376a1.423 1.423 0 0 0-.522-1.044 1.946 1.946 0 0 0-1.278-.393 1.972 1.972 0 0 0-1.18.318.982.982 0 0 0-.439.832.912.912 0 0 0 .265.673 1.934 1.934 0 0 0 .666.424 11.468 11.468 0 0 0 1.112.356 11.977 11.977 0 0 1 1.452.477 2.54 2.54 0 0 1 .961.7 1.881 1.881 0 0 1 .416 1.225 2.1 2.1 0 0 1-.378 1.225 2.522 2.522 0 0 1-1.067.855 3.812 3.812 0 0 1-1.577.312zm5.673-9.773a.905.905 0 0 1-.666-.272.905.905 0 0 1-.272-.666.905.905 0 0 1 .272-.666.905.905 0 0 1 .666-.272.863.863 0 0 1 .643.272.919.919 0 0 1 .265.666.919.919 0 0 1-.265.666.863.863 0 0 1-.645.269zm.666 1.346v8.29h-1.379v-8.29zm3.722-2.9v11.188h-1.377V-13.38zm9.485 2.9-4.995 12.191h-1.422l1.634-3.994-3.343-8.2h1.528l2.6 6.717 2.572-6.717z" transform="translate(-1.386 13.698)"/>
                <path id="Path_668" data-name="Path 668" d="M.774-6.3a4.657 4.657 0 0 1 .514-2.231A3.732 3.732 0 0 1 2.7-10.022a3.908 3.908 0 0 1 2.02-.529 3.75 3.75 0 0 1 1.8.446 3.221 3.221 0 0 1 1.273 1.172v-4.387h1.392v11.195H7.793v-1.558a3.222 3.222 0 0 1-1.21 1.218 3.6 3.6 0 0 1-1.876.477 3.8 3.8 0 0 1-2-.545 3.8 3.8 0 0 1-1.419-1.529A4.759 4.759 0 0 1 .774-6.3zm7.019.015a3.37 3.37 0 0 0-.378-1.634 2.671 2.671 0 0 0-1.021-1.067 2.782 2.782 0 0 0-1.414-.37 2.785 2.785 0 0 0-1.407.363 2.634 2.634 0 0 0-1.014 1.059A3.37 3.37 0 0 0 2.181-6.3a3.448 3.448 0 0 0 .378 1.657A2.675 2.675 0 0 0 3.573-3.57a2.741 2.741 0 0 0 1.407.37 2.782 2.782 0 0 0 1.414-.37 2.659 2.659 0 0 0 1.021-1.074 3.415 3.415 0 0 0 .378-1.641zm7.337 4.3a4.244 4.244 0 0 1-2.11-.529 3.769 3.769 0 0 1-1.483-1.505A4.615 4.615 0 0 1 11-6.285a4.482 4.482 0 0 1 .552-2.247 3.8 3.8 0 0 1 1.505-1.5 4.367 4.367 0 0 1 2.133-.522 4.367 4.367 0 0 1 2.133.522 3.818 3.818 0 0 1 1.505 1.49 4.471 4.471 0 0 1 .552 2.254 4.418 4.418 0 0 1-.567 2.262 3.932 3.932 0 0 1-1.536 1.505 4.4 4.4 0 0 1-2.146.532zm0-1.21a2.907 2.907 0 0 0 1.392-.348 2.647 2.647 0 0 0 1.051-1.044 3.343 3.343 0 0 0 .4-1.694 3.4 3.4 0 0 0-.393-1.694 2.576 2.576 0 0 0-1.029-1.036 2.87 2.87 0 0 0-1.377-.34 2.857 2.857 0 0 0-1.384.34 2.5 2.5 0 0 0-1.004 1.031 3.506 3.506 0 0 0-.378 1.694 3.6 3.6 0 0 0 .371 1.709 2.464 2.464 0 0 0 .991 1.036 2.783 2.783 0 0 0 1.361.341zm10.106-7.367a3.36 3.36 0 0 1 2.451.915 3.523 3.523 0 0 1 .938 2.64v4.886h-1.362v-4.69a2.666 2.666 0 0 0-.62-1.9 2.216 2.216 0 0 0-1.694-.658 2.269 2.269 0 0 0-1.732.681 2.781 2.781 0 0 0-.643 1.982v4.584H21.2v-8.29h1.377v1.18a2.733 2.733 0 0 1 1.112-.983 3.449 3.449 0 0 1 1.547-.352zm13.207 3.974a8.1 8.1 0 0 1-.045.832h-6.626a2.68 2.68 0 0 0 .84 1.914 2.67 2.67 0 0 0 1.853.688 2.546 2.546 0 0 0 1.49-.416 2.2 2.2 0 0 0 .84-1.112h1.483a3.564 3.564 0 0 1-1.331 1.944 4.018 4.018 0 0 1-2.481.749 4.191 4.191 0 0 1-2.11-.529 3.748 3.748 0 0 1-1.46-1.505 4.668 4.668 0 0 1-.529-2.262 4.735 4.735 0 0 1 .514-2.254 3.611 3.611 0 0 1 1.445-1.49 4.3 4.3 0 0 1 2.141-.522 4.161 4.161 0 0 1 2.088.514 3.562 3.562 0 0 1 1.4 1.414 4.174 4.174 0 0 1 .488 2.035zm-1.422-.287a2.539 2.539 0 0 0-.348-1.354 2.263 2.263 0 0 0-.946-.862 2.949 2.949 0 0 0-1.324-.3 2.552 2.552 0 0 0-1.778.666 2.712 2.712 0 0 0-.84 1.846z" transform="translate(34.19 31.377)"/>
            </g>
            <g id="Group_204" data-name="Group 204" transform="translate(181.143)">
                <circle id="Ellipse_31" data-name="Ellipse 31" class="cls-2" cx="46.225" cy="46.225" r="46.225"/>
                <g id="folder" transform="translate(25.601 21.749)">
                    <path id="Path_486" data-name="Path 486" class="cls-3" d="M38.933 53.054H1.315A1.315 1.315 0 0 1 .046 51.4L8.59 27.972A1.314 1.314 0 0 1 9.859 27h37.618c.866 0 1.269.827 1.269 1.658L40.2 52.083a1.314 1.314 0 0 1-1.267.971z" transform="translate(0 -4.308)"/>
                    <path id="Path_487" data-name="Path 487" class="cls-4" d="M49.906 18H48v7.564h3.362v-6.108A1.456 1.456 0 0 0 49.906 18z" transform="translate(-7.658 -2.872)"/>
                    <path id="Path_488" data-name="Path 488" class="cls-3" d="M3.362 11H1.456A1.456 1.456 0 0 0 0 12.456v35.911c.058 0 .116.005.172.008l3.19-8.7z" transform="translate(0 -1.755)"/>
                    <path id="Path_489" data-name="Path 489" d="M10.186 23.664a1.314 1.314 0 0 1 1.269-.972h30.482V0H10v24.172z" transform="translate(-1.595)" style="fill:#fcfcfc"/>
                    <g id="Group_165" data-name="Group 165" transform="translate(13.447 5.883)">
                        <path id="Path_490" data-name="Path 490" class="cls-6" d="M16.84 15.681h20.171a.84.84 0 1 0 0-1.681H16.84a.84.84 0 1 0 0 1.681z" transform="translate(-16 -8.117)"/>
                        <path id="Path_491" data-name="Path 491" class="cls-6" d="M16.84 8.681h8.4a.84.84 0 1 0 0-1.681h-8.4a.84.84 0 1 0 0 1.681z" transform="translate(-16 -7)"/>
                        <path id="Path_492" data-name="Path 492" class="cls-6" d="M37.011 21H16.84a.84.84 0 0 0 0 1.681h20.171a.84.84 0 0 0 0-1.681z" transform="translate(-16 -9.234)"/>
                    </g>
                    <path id="Path_493" data-name="Path 493" d="M9.521 24.491V2H7v29.4z" transform="translate(-1.117 -.319)" style="fill:#e3e3e3"/>
                    <path id="Path_494" data-name="Path 494" class="cls-4" d="M6.521 31.723V4H4v34.636z" transform="translate(-.638 -.638)"/>
                </g>
            </g>
            <g id="Group_205" data-name="Group 205" transform="translate(181.143 173)">
                <circle id="Ellipse_40" data-name="Ellipse 40" cx="46.225" cy="46.225" r="46.225" style="stroke:#58bc6e;stroke-width:2px;fill:#fff;stroke-miterlimit:10"/>
                <g id="desktop" transform="translate(23.02 23.744)">
                    <path id="Path_495" data-name="Path 495" class="cls-9" d="m161.832 401-7.928 2.827-.3 1.051A3.977 3.977 0 0 1 150 407.6v.707h16.442z" transform="translate(-135.866 -364.252)"/>
                    <path id="Path_496" data-name="Path 496" class="cls-10" d="m202.486 377.7-1.108-3.877-4.571-2.823-4.57 2.827-.808 2.827h7.928l.3 1.051a3.977 3.977 0 0 0 3.6 2.718l1.413.707 1.413-.707a3.977 3.977 0 0 1-3.597-2.723z" transform="translate(-173.392 -337.078)"/>
                    <path id="Path_497" data-name="Path 497" class="cls-10" d="M437 265.134h2.827a2.835 2.835 0 0 0 2.827-2.827v-5.654L437 251z" transform="translate(-395.823 -228.386)"/>
                    <path id="Path_498" data-name="Path 498" class="cls-9" d="M0 207.961a2.835 2.835 0 0 0 2.827 2.827h38.35A2.835 2.835 0 0 0 44 207.961V191L0 202.307z" transform="translate(0 -174.039)"/>
                    <path id="Path_499" data-name="Path 499" d="M439.827 11H437l2.827 28.268h2.827V13.827A2.835 2.835 0 0 0 439.827 11z" transform="translate(-395.823 -11)" style="fill:#555"/>
                    <path id="Path_500" data-name="Path 500" d="M44 13.827A2.835 2.835 0 0 0 41.177 11H2.827A2.835 2.835 0 0 0 0 13.827v25.441h44v-2.827L23.415 25.133z" transform="translate(0 -11)" style="fill:#747474"/>
                    <path id="Path_501" data-name="Path 501" d="M269.088 40.976h-2.826L248.5 52.282l17.762 11.308h2.827l-.001-22.614z" transform="translate(-225.085 -38.15)" style="fill:#58bc6e"/>
                    <path id="Path_502" data-name="Path 502" d="M68.35 40.975H30.008L30 63.59h38.349s-.003-22.615.001-22.615z" transform="translate(-27.173 -38.149)" style="fill:#8ce29f"/>
                    <circle id="Ellipse_41" data-name="Ellipse 41" cx="1.413" cy="1.413" r="1.413" transform="translate(22.002 31.095)" style="fill:#fff"/>
                    <path id="Path_503" data-name="Path 503" class="cls-10" d="M115.917 472.413h-29.21a.707.707 0 1 1 0-1.413h29.21a.707.707 0 1 1 0 1.413z" transform="translate(-77.897 -427.656)"/>
                </g>
            </g>
            <g id="Group_206" data-name="Group 206" transform="translate(2.33 172.441)">
                <circle id="Ellipse_43" data-name="Ellipse 43" cx="46.225" cy="46.225" r="46.225" style="stroke:#696969;stroke-width:2px;fill:#fff;stroke-miterlimit:10"/>
                <g id="access" transform="translate(20.145 26.827)">
                    <path id="Path_505" data-name="Path 505" d="M19.2 105.488h39.12V76.8H19.2z" transform="translate(-17.244 -74.844)" style="fill:#b5b5b5"/>
                    <path id="Path_506" data-name="Path 506" d="M230.76 76.8H211.2v28.686h19.56z" transform="translate(-189.684 -74.844)" style="fill:#8b8b8b"/>
                    <path id="Path_507" data-name="Path 507" d="M42.459 58.173a1.956 1.956 0 0 0-1.383-.573H1.956A1.956 1.956 0 0 0 0 59.558v28.686A1.956 1.956 0 0 0 1.956 90.2h12.388v3.912h-1.956a1.956 1.956 0 0 0 0 3.912h18.256a1.956 1.956 0 0 0 0-3.912h-1.956V90.2h12.388a1.956 1.956 0 0 0 1.956-1.956V59.556a1.955 1.955 0 0 0-.573-1.383zM39.12 86.288H3.912V61.514H39.12z" transform="translate(0 -57.6)" style="fill:#dbdbdb"/>
                    <path id="Path_508" data-name="Path 508" d="M232.143 58.173a1.956 1.956 0 0 0-1.383-.573H211.2v3.912h17.6v24.776h-17.6v11.736h9.128a1.956 1.956 0 1 0 0-3.912h-1.956V90.2h12.388a1.956 1.956 0 0 0 1.956-1.956V59.556a1.956 1.956 0 0 0-.573-1.383z" transform="translate(-189.684 -57.6)" style="fill:#d5d5d5"/>
                    <g id="Group_166" data-name="Group 166" transform="translate(27.384 13.04)">
                        <path id="Path_509" data-name="Path 509" class="cls-21" d="M287.1 200.143a8.476 8.476 0 1 0-11.82 0 12.4 12.4 0 0 0-6.478 10.885 1.956 1.956 0 0 0 1.956 1.956h20.862a1.956 1.956 0 0 0 1.956-1.956 12.4 12.4 0 0 0-6.476-10.885z" transform="translate(-268.8 -185.6)"/>
                    </g>
                    <g id="Group_167" data-name="Group 167" transform="translate(39.772 13.04)">
                        <path id="Path_511" data-name="Path 511" class="cls-21" d="M396.31 200.143a8.47 8.47 0 0 0-5.91-14.543v27.384h10.432a1.956 1.956 0 0 0 1.956-1.956 12.4 12.4 0 0 0-6.478-10.885z" transform="translate(-390.4 -185.6)"/>
                    </g>
                </g>
            </g>
            <g id="Group_212" data-name="Group 212" transform="translate(0 358.825)">
                <circle id="Ellipse_46" data-name="Ellipse 46" class="cls-2" cx="46.225" cy="46.225" r="46.225"/>
                <g id="clock" transform="translate(16.126 19.194)">
                    <g id="Group_169" data-name="Group 169">
                        <path id="Path_512" data-name="Path 512" class="cls-4" d="M16.7 80.763v27.656h2.39a3.769 3.769 0 0 1 3.264 5.653L14.7 127.337a3.769 3.769 0 0 1-6.527 0L.51 114.072a3.769 3.769 0 0 1 3.264-5.654h2.391V80.763a2.372 2.372 0 0 1 2.372-2.372h5.8a2.372 2.372 0 0 1 2.363 2.372z" transform="translate(0 -78.391)"/>
                    </g>
                    <g id="Group_178" data-name="Group 178" transform="translate(11.013 10.178)">
                        <circle id="Ellipse_44" data-name="Ellipse 44" class="cls-6" cx="20.326" cy="20.326" r="20.326"/>
                        <circle id="Ellipse_45" data-name="Ellipse 45" cx="15.535" cy="15.535" transform="translate(4.791 4.791)" style="fill:#f8f8f8" r="15.535"/>
                        <path id="Path_517" data-name="Path 517" class="cls-9" d="M142.3 221.1a15.535 15.535 0 1 1 0-30.62 15.538 15.538 0 0 0 0 30.62z" transform="translate(-119.257 -185.463)"/>
                        <path id="Path_518" data-name="Path 518" class="cls-23" d="M186.788 309.789h-7.218a1.979 1.979 0 1 1 0-3.958h7.218a1.979 1.979 0 1 1 0 3.958z" transform="translate(-166.461 -287.484)"/>
                        <path id="Path_519" data-name="Path 519" class="cls-23" d="M241.1 271.76a1.979 1.979 0 0 1-1.979-1.979v-5.053a1.979 1.979 0 0 1 3.958 0v5.053a1.979 1.979 0 0 1-1.979 1.979z" transform="translate(-220.777 -249.455)"/>
                        <g id="Group_177" data-name="Group 177" transform="translate(4.423 4.423)">
                            <g id="Group_171" data-name="Group 171" transform="translate(14.997)">
                                <path id="Path_520" data-name="Path 520" class="cls-24" d="M249.176 192.052a.906.906 0 0 1-.906-.906v-3.122a.906.906 0 0 1 1.812 0v3.122a.906.906 0 0 1-.906.906z" transform="translate(-248.27 -187.118)"/>
                                <path id="Path_521" data-name="Path 521" class="cls-24" d="M249.176 421.156a.906.906 0 0 1-.906-.906v-3.122a.906.906 0 1 1 1.812 0v3.122a.906.906 0 0 1-.906.906z" transform="translate(-248.27 -389.349)"/>
                            </g>
                            <g id="Group_172" data-name="Group 172" transform="translate(0 14.997)">
                                <path id="Path_522" data-name="Path 522" d="M353.543 316.789h-3.122a.906.906 0 1 1 0-1.812h3.122a.906.906 0 0 1 0 1.812z" transform="translate(-322.642 -314.977)" style="fill:#365e7d"/>
                                <path id="Path_523" data-name="Path 523" class="cls-24" d="M124.439 316.789h-3.122a.906.906 0 1 1 0-1.812h3.122a.906.906 0 1 1 0 1.812z" transform="translate(-120.411 -314.977)"/>
                            </g>
                        </g>
                        <path id="Path_532" data-name="Path 532" d="M132.266 215.414a16.441 16.441 0 1 1 16.441-16.441 16.46 16.46 0 0 1-16.441 16.441zm0-31.07a14.629 14.629 0 1 0 14.634 14.629 14.645 14.645 0 0 0-14.634-14.628z" transform="translate(-111.94 -178.647)" style="fill:#f0e4a0"/>
                    </g>
                    <g id="Group_179" data-name="Group 179" transform="translate(38.499 8.331)">
                        <path id="Path_533" data-name="Path 533" class="cls-3" d="M333.742 242.05v8.738h2.39a3.769 3.769 0 0 1 3.264 5.653l-7.659 13.265a3.769 3.769 0 0 1-6.527 0l-7.66-13.265a3.769 3.769 0 0 1 3.264-5.653h2.386v-8.738a2.372 2.372 0 0 1 2.372-2.372h5.8a2.372 2.372 0 0 1 2.37 2.372z" transform="translate(-317.038 -239.678)"/>
                        <path id="Path_534" data-name="Path 534" d="M327.756 239.685h-2.182a2.371 2.371 0 0 0-2.371 2.371v8.744h-2.392a3.768 3.768 0 0 0-3.263 5.653l7.659 13.264a3.734 3.734 0 0 0 3.264 1.883 2.517 2.517 0 0 1-2.186-1.883l-5.131-13.264c-.973-2.513.243-5.653 2.186-5.653h.983a1.844 1.844 0 0 0 1.844-1.844v-6.894c0-1.315.712-2.377 1.589-2.377z" transform="translate(-317.037 -239.685)" style="fill:#b7b8ba"/>
                    </g>
                </g>
            </g>
            <g id="Group_202" data-name="Group 202" transform="translate(184.308 358.825)">
                <g id="Group_211" data-name="Group 211">
                    <circle id="Ellipse_48" data-name="Ellipse 48" cx="46.225" cy="46.225" r="46.225" style="stroke:#de3a32;stroke-width:2px;fill:#fff;stroke-miterlimit:10"/>
                    <g id="handshake" transform="translate(17.739 27.281)">
                        <g id="Group_181" data-name="Group 181" transform="translate(7.76 8.01)">
                            <path id="Path_535" data-name="Path 535" d="M82.064 127.821 71.855 130.8l-2.278 9.035c.394 3.319 1.016 6.425 3.068 8.165l16.932 13.761 2.049 1.576c3.084 2.372 6.006-.943 3.661-3.394l-.1-.108a3.026 3.026 0 0 0 2.459.728c1.713-.277 2.886-2.092 1.309-3.785 3.081 2.461 5.713-1.459 3.3-3.609 2.69.848 5.621-2.64 2.827-5.6-.02-.023-.042-.049-.065-.072l-7.006-10.429-9.4-6.021z" transform="translate(-69.577 -127.821)" style="fill-rule:evenodd;fill:#ffead9"/>
                        </g>
                        <g id="Group_182" data-name="Group 182" transform="translate(21.343 37.594)">
                            <path id="Path_536" data-name="Path 536" class="cls-30" d="M197.527 397.73c2.605-2.777-1.2-5.972-3.3-4.089l-2.25 2.141a.712.712 0 0 1-.075.068c-1.889 1.9 1.544 6.226 4.384 3.2z" transform="translate(-191.363 -393.076)"/>
                        </g>
                        <g id="Group_183" data-name="Group 183" transform="translate(17.326 33.106)">
                            <path id="Path_537" data-name="Path 537" class="cls-30" d="m158.31 354.013-2.378 2.493-.01.013c-1.192 1.266-.365 3.208 1.045 3.965a2.457 2.457 0 0 0 2.941-.388l2.547-.039-.222-2.17.326-.307c2.547-2.421-1.13-6.6-4-3.831z" transform="translate(-155.351 -352.833)"/>
                        </g>
                        <g id="Group_184" data-name="Group 184" transform="translate(12.853 28.577)">
                            <path id="Path_538" data-name="Path 538" class="cls-30" d="m118.427 314.521-2.228 2.366-.313.336c-2.2 2.333 1.739 6.008 4.009 3.626l.391-.4c.033-.036 2.42-.284 2.68-.313l-.042-2.457.762-.8c2.622-2.751-1.475-6.373-3.97-3.72z" transform="translate(-115.241 -312.229)"/>
                        </g>
                        <g id="Group_185" data-name="Group 185" transform="translate(9.306 26.264)">
                            <path id="Path_539" data-name="Path 539" class="cls-30" d="m84.959 293.412-.756.819c-2.325 2.526 1.14 6.553 3.739 4.223l2.133-.33.094-2.036c2.107-2.385-1.567-6.631-4.459-3.492z" transform="translate(-83.437 -291.482)"/>
                        </g>
                        <g id="Group_186" data-name="Group 186" transform="translate(0 .251)">
                            <path id="Path_540" data-name="Path 540" d="M14.019 58.924 3.679 68.88.738 71.71a2.426 2.426 0 0 0-.068 3.416L5.057 79.7a.674.674 0 0 0 .948.02l1.755-1.69 12.487-12.018 1.55-1.495a.672.672 0 0 0 .02-.95l-4.387-4.575a2.415 2.415 0 0 0-3.411-.068z" transform="translate(0 -58.253)" style="fill:#ffc8c6;fill-rule:evenodd"/>
                        </g>
                        <g id="Group_187" data-name="Group 187" transform="translate(30.545 18.231)">
                            <path id="Path_541" data-name="Path 541" class="cls-32" d="m277.012 219.46-3.14.718 1.231 1.25 9.51 9.457.065.072a3.447 3.447 0 0 1 .964 3.57c1.879-.718 3.074-3.28.944-5.538l-.065-.072-2.853-2.836z" transform="translate(-273.872 -219.46)"/>
                        </g>
                        <g id="Group_188" data-name="Group 188" transform="translate(18.247 8.01)">
                            <path id="Path_542" data-name="Path 542" class="cls-32" d="m165.606 127.821-2 1.922 6.25 3.084 2.3-1.778z" transform="translate(-163.606 -127.821)"/>
                        </g>
                        <g id="Group_189" data-name="Group 189" transform="translate(19.785 7.296)">
                            <path id="Path_543" data-name="Path 543" class="cls-30" d="m184.4 125.356-2.3 1.778-2.163 1.671c-5.462 4.229-.932 8.406 2.309 6.974l3.644-2.2 2.257-.516 3.14-.718 6.657 6.621 2.853 2.836c1.795-.672 4.332-2.611 7.071-7.023l-4.164-8.711-9.724-4.659-2.495 1.994c-.41.326-.287.264-.8.248-1.873-.059-4.253.127-5.651 1.207z" transform="translate(-177.397 -121.414)"/>
                        </g>
                        <g id="Group_190" data-name="Group 190" transform="translate(20.117 17.116)">
                            <path id="Path_544" data-name="Path 544" class="cls-33" d="m187.035 210.36-3.645 2.2a3.557 3.557 0 0 1-3.022-.1 3.591 3.591 0 0 0 4.527 1.557l3.644-2.2 2.257-.516 3.1-.708c-1.436-1.23-1.694-1.41-4.608-.741z" transform="translate(-180.368 -209.464)"/>
                        </g>
                        <g id="Group_191" data-name="Group 191" transform="translate(40.98 18.482)">
                            <path id="Path_545" data-name="Path 545" class="cls-33" d="M374.452 221.713c-2.439 3.926-4.716 5.893-6.452 6.755a5.878 5.878 0 0 1-.567.248l2.215 2.2c1.795-.672 4.332-2.611 7.071-7.023z" transform="translate(-367.434 -221.713)"/>
                        </g>
                        <g id="Group_192" data-name="Group 192" transform="translate(10.483 .251)">
                            <path id="Path_546" data-name="Path 546" d="M93.99 62.33a2.414 2.414 0 0 1 3.4.078l4.387 4.575a.675.675 0 0 1-.02.95l2-1.922 1.55-1.495a.672.672 0 0 0 .02-.95l-4.387-4.575a2.415 2.415 0 0 0-3.41-.068z" transform="translate(-93.99 -58.251)" style="fill:#ff9995;fill-rule:evenodd"/>
                        </g>
                        <g id="Group_193" data-name="Group 193" transform="translate(9.307 27.616)">
                            <path id="Path_547" data-name="Path 547" class="cls-33" d="M83.448 306.939c.023 2.137 2.518 4.073 4.5 2.291l1.4-1.482.83-.884a2.632 2.632 0 0 0 .117-3.253 2.445 2.445 0 0 1-.625 1.628l-1.479 1.57-.746.8a2.565 2.565 0 0 1-3.997-.67z" transform="translate(-83.448 -303.61)"/>
                        </g>
                        <g id="Group_194" data-name="Group 194" transform="translate(12.955 29.134)">
                            <path id="Path_548" data-name="Path 548" class="cls-33" d="M116.154 323.875c.521 1.749 2.954 3.084 4.553 1.4l.391-.4a.041.041 0 0 1 .01-.013l2.378-2.493c.085-.095.166-.183.251-.264l.762-.8a2.61 2.61 0 0 0-.313-4.089 2.633 2.633 0 0 1-.759 2.562l-.762.8c-.085.082-.166.17-.251.261l-2.377 2.493a.042.042 0 0 1-.013.01l-.388.408a2.491 2.491 0 0 1-3.482.124z" transform="translate(-116.154 -317.215)"/>
                        </g>
                        <g id="Group_195" data-name="Group 195" transform="translate(17.42 33.803)">
                            <path id="Path_549" data-name="Path 549" class="cls-33" d="m160.728 365.582 1.736-1.648.515-.493.326-.307a2.671 2.671 0 0 0-.166-4.05 2.537 2.537 0 0 1-.759 2.594l-.322.307-.918.871-1.34 1.274-.075.065a2.463 2.463 0 0 1-2.941.392 3.081 3.081 0 0 1-.6-.428 3.158 3.158 0 0 0 1.524 1.88 2.457 2.457 0 0 0 2.941-.388z" transform="translate(-156.188 -359.085)"/>
                        </g>
                        <g id="Group_196" data-name="Group 196" transform="translate(21.344 38.457)">
                            <path id="Path_550" data-name="Path 550" class="cls-33" d="M197.538 404.6a2.6 2.6 0 0 0 .117-3.792 2.929 2.929 0 0 1-.879 1.916l-1.238 1.322a2.626 2.626 0 0 1-4.162.039c.013 1.981 2.658 4.252 4.924 1.834z" transform="translate(-191.376 -400.808)"/>
                        </g>
                        <g id="Group_197" data-name="Group 197" transform="translate(36.099 29.267)">
                            <path id="Path_551" data-name="Path 551" class="cls-35" d="M328 323.366a.859.859 0 0 1-.587-.231l-3.472-3.234a.862.862 0 0 1 1.174-1.262l3.472 3.234a.862.862 0 0 1-.587 1.494z" transform="translate(-323.671 -318.407)"/>
                        </g>
                        <g id="Group_198" data-name="Group 198" transform="translate(32.797 32.873)">
                            <path id="Path_552" data-name="Path 552" class="cls-35" d="M298.4 355.7a.859.859 0 0 1-.587-.231l-3.475-3.237a.862.862 0 0 1 1.174-1.262l3.475 3.237a.862.862 0 0 1-.587 1.493z" transform="translate(-294.061 -350.739)"/>
                        </g>
                        <g id="Group_199" data-name="Group 199" transform="translate(30.849 37.637)">
                            <path id="Path_553" data-name="Path 553" class="cls-35" d="M279.229 396.827a.859.859 0 0 1-.586-.231l-1.768-1.645a.862.862 0 0 1 1.173-1.263l1.768 1.645a.862.862 0 0 1-.587 1.494z" transform="translate(-276.599 -393.457)"/>
                        </g>
                        <g id="Group_200" data-name="Group 200" transform="translate(35.1)">
                            <path id="Path_554" data-name="Path 554" d="m315.99 63.295 11.62 11.187 2.267 2.183.834.8a.674.674 0 0 0 .948-.02l2.29-2.389 2.1-2.186a2.426 2.426 0 0 0-.068-3.417l-2.032-1.953L322.7 56.67a2.415 2.415 0 0 0-3.41.068l-4.39 4.576a.672.672 0 0 0 .019.95z" transform="translate(-314.712 -55.999)" style="fill:#de3a32;fill-rule:evenodd"/>
                        </g>
                        <g id="Group_201" data-name="Group 201" transform="translate(48.204 10.676)">
                            <path id="Path_555" data-name="Path 555" d="M437.478 151.725zm-2.039 5.593-2.29 2.392a.671.671 0 0 1-.948.016l2.062 1.987.834.8a.674.674 0 0 0 .948-.02l2.29-2.389 2.1-2.186a2.426 2.426 0 0 0-.068-3.417l-2.566-2.47.218.212-.537-.519a2.426 2.426 0 0 1 .059 3.4z" transform="translate(-432.202 -151.725)" style="fill:#b92821;fill-rule:evenodd"/>
                        </g>
                    </g>
                </g>
            </g>
        </g>
        <g id="Group_207" data-name="Group 207" transform="translate(184.204 2236)">
            <g id="Group_203" data-name="Group 203">
                <g id="Ellipse_39" data-name="Ellipse 39" style="stroke:#e87a42;stroke-width:2px;fill:#fff">
                    <circle cx="46.225" cy="46.225" r="46.225" style="stroke:none"/>
                    <circle cx="46.225" cy="46.225" r="45.225" style="fill:none"/>
                </g>
                <g id="department" transform="translate(23.833 24.073)">
                    <path id="Path_463" data-name="Path 463" class="cls-39" d="M40 0v43.292h11.2V2.986zm0 0" transform="translate(-36.268)"/>
                    <path id="Path_464" data-name="Path 464" d="M171.2 34.986 160 32v40.306h11.2zm0 0" transform="translate(-145.072 -29.014)" style="fill:#e87a42"/>
                    <path id="Path_465" data-name="Path 465" d="M280 112v32.842h7.464v-30.976zm0 0" transform="translate(-253.875 -101.55)" style="fill:#f7f4d2"/>
                    <path id="Path_466" data-name="Path 466" d="M367.464 133.866 360 132v30.976h7.464zm0 0" transform="translate(-326.411 -119.684)" style="fill:#fffde6"/>
                    <path id="Path_467" data-name="Path 467" d="M96 368h5.971v8.957H96zm0 0" transform="translate(-87.043 -333.665)" style="opacity:.183;fill:#6d6e71"/>
                    <path id="Path_468" data-name="Path 468" d="M160 368h5.971v8.957H160zm0 0" transform="translate(-145.072 -333.665)" style="fill:#939598;opacity:.183"/>
                    <path id="Path_469" data-name="Path 469" class="cls-45" d="M104 288h2.986v2.986H104zm0 0" transform="translate(-94.297 -261.129)"/>
                    <path id="Path_470" data-name="Path 470" class="cls-45" d="M184 288h2.986v2.986H184zm0 0" transform="translate(-166.832 -261.129)"/>
                    <path id="Path_471" data-name="Path 471" class="cls-39" d="M312 304h2.986v2.986H312zm0 0" transform="translate(-282.89 -275.636)"/>
                    <path id="Path_472" data-name="Path 472" class="cls-39" d="M376 304h2.986v2.986H376zm0 0" transform="translate(-340.918 -275.636)"/>
                    <path id="Path_473" data-name="Path 473" class="cls-39" d="M312 240h2.986v2.986H312zm0 0" transform="translate(-282.89 -217.607)"/>
                    <path id="Path_474" data-name="Path 474" class="cls-39" d="M376 240h2.986v2.986H376zm0 0" transform="translate(-340.918 -217.607)"/>
                    <path id="Path_475" data-name="Path 475" class="cls-39" d="M312 176h2.986v2.986H312zm0 0" transform="translate(-282.89 -159.579)"/>
                    <path id="Path_476" data-name="Path 476" class="cls-39" d="M376 176h2.986v2.986H376zm0 0" transform="translate(-340.918 -159.579)"/>
                    <g id="Group_160" data-name="Group 160" transform="translate(9.703 8.957)">
                        <path id="Path_477" data-name="Path 477" class="cls-45" d="M104 224h2.986v2.986H104zm0 0" transform="translate(-104 -212.057)"/>
                        <path id="Path_478" data-name="Path 478" class="cls-45" d="M184 224h2.986v2.986H184zm0 0" transform="translate(-176.536 -212.057)"/>
                        <path id="Path_479" data-name="Path 479" class="cls-45" d="M104 160h2.986v2.986H104zm0 0" transform="translate(-104 -154.029)"/>
                        <path id="Path_480" data-name="Path 480" class="cls-45" d="M184 160h2.986v2.986H184zm0 0" transform="translate(-176.536 -154.029)"/>
                        <path id="Path_481" data-name="Path 481" class="cls-45" d="M104 96h2.986v2.986H104zm0 0" transform="translate(-104 -96)"/>
                        <path id="Path_482" data-name="Path 482" class="cls-45" d="M184 96h2.986v2.986H184zm0 0" transform="translate(-176.536 -96)"/>
                    </g>
                    <path id="Path_483" data-name="Path 483" d="M360 384h2.986v7.464H360zm0 0" transform="translate(-326.411 -348.172)" style="opacity:.177;fill:#a7a8ab"/>
                    <path id="Path_484" data-name="Path 484" d="M328 384h2.986v7.464H328zm0 0" transform="translate(-297.397 -348.172)" style="opacity:.177;fill:#939598"/>
                    <path id="Path_485" data-name="Path 485" d="M0 456h44.785v1.493H0zm0 0" transform="translate(0 -413.454)" style="fill:#626262"/>
                </g>
            </g>
        </g>
    </g>
</svg>
