<svg xmlns="http://www.w3.org/2000/svg" width="51" height="51">
    <defs>
        <clipPath id="a">
            <circle data-name="Ellipse 22" cx="25.5" cy="25.5" r="25.5" transform="translate(932 3693)" style="stroke:#707070;fill:#fff"/>
        </clipPath>
    </defs>
    <g data-name="Mask Group 3" transform="translate(-932 -3693)" style="clip-path:url(#a)">
        <path data-name="Path 316" d="M25.58 0a25.5 25.5 0 1 0 25.5 25.5A25.507 25.507 0 0 0 25.58 0zm23.7 27.083a1.192 1.192 0 0 0-1.158 1.209A1.168 1.168 0 0 0 49 29.4c-.1.579-.221 1.158-.357 1.719l-11.916-3.8-8.049-1.359a3.316 3.316 0 0 0 .034-.426l8.137.851 12.461-.868c.017.528 0 1.055-.034 1.566zm-1.141 5.89c-.017 0-.051-.017-.068-.017a1.179 1.179 0 0 0-.783 2.213 24.263 24.263 0 0 1-.8 1.634L35.913 30.1l-7.456-3.353a3.38 3.38 0 0 0 .153-.443l7.677 2.809 12.324 2.179a24.478 24.478 0 0 1-.476 1.681zM36.1 46.676a1.182 1.182 0 0 0-2.111 1.038c-.511.187-1.021.374-1.532.528L29.649 36l-2.928-7.609a4.09 4.09 0 0 0 .392-.187l3.387 7.424 7.133 10.333c-.477.289-.97.545-1.481.8a.372.372 0 0 1-.052-.085zm-6.213 2.06a1.175 1.175 0 0 0-2.3.409c-.6.051-1.209.085-1.821.085l.75-12.53-.664-8.12a5.212 5.212 0 0 0 .548-.08l1.5 8.018 4.4 11.758a22.061 22.061 0 0 1-2.383.562c-.017-.017-.017-.068-.03-.102zm-13.21-2.468a1.18 1.18 0 0 0-1.328.664c-.426-.2-.851-.426-1.26-.664l6.792-10.554 3.388-7.4a2.134 2.134 0 0 0 .426.153l-2.843 7.643-2.281 12.354c-.7-.187-1.379-.392-2.043-.63a.5.5 0 0 0 .051-.17 1.168 1.168 0 0 0-.902-1.396zm-11.933-12a1.174 1.174 0 0 0-1.4-.46c-.187-.494-.357-1-.511-1.515l12.188-2.809 7.626-2.945a2.769 2.769 0 0 0 .187.392l-7.4 3.439-10.3 7.218c-.306-.528-.6-1.055-.868-1.6a.51.51 0 0 0 .136-.068 1.2 1.2 0 0 0 .342-1.653zM1.936 23.559a.571.571 0 0 0 .17 0 1.185 1.185 0 0 0 .136-2.349q.128-.74.306-1.481l11.882 3.8 8.07 1.358a3.316 3.316 0 0 0-.034.426l-8.137-.851-12.462.868a15.538 15.538 0 0 1 .069-1.771zm1.209-5.822c.051.017.1.034.17.051a1.158 1.158 0 0 0 1.379-.936 1.2 1.2 0 0 0-.681-1.311c.221-.494.46-.97.732-1.447l10.52 6.673 7.473 3.37a2.134 2.134 0 0 0-.153.426l-7.695-2.808-12.308-2.162c.171-.63.358-1.243.562-1.855zM15.23 4.375a1.164 1.164 0 0 0 1.634.306 1.2 1.2 0 0 0 .426-1.43c.477-.187.97-.34 1.464-.494l2.775 12.1 2.945 7.66a2.562 2.562 0 0 0-.374.187l-3.422-7.473L13.63 4.988c.494-.289.987-.562 1.5-.8a.511.511 0 0 0 .1.187zM2.242 29.841c.051-.017.1-.017.153-.034a1.18 1.18 0 0 0-.46-2.3 26.015 26.015 0 0 1-.085-1.992l12.461.8 8.154-.63a3.2 3.2 0 0 0 .085.562L14.5 27.73 2.787 32.139a26.528 26.528 0 0 1-.545-2.298zM24.8 22.419l-1.5-8.069-4.376-11.643a27.566 27.566 0 0 1 2.026-.494c.017.068.034.136.051.221a1.188 1.188 0 0 0 1.515.715 1.175 1.175 0 0 0 .766-1.277c.7-.068 1.413-.1 2.111-.1l-.749 12.393.664 8.188a2.812 2.812 0 0 0-.508.066zM28.576 3a1.19 1.19 0 0 0 1.141-.868q.868.153 1.685.357L27.555 14.3l-1.413 8.086a4.217 4.217 0 0 0-.46-.051l.834-8.171L25.6 1.77c.613 0 1.209.034 1.8.068A1.185 1.185 0 0 0 28.576 3zm5.652 1.5a1.19 1.19 0 0 0 1.328-.562c.511.238 1 .477 1.481.749L30.312 15.15l-3.4 7.456a4.26 4.26 0 0 0-.426-.153l2.86-7.694 2.243-12.24c.613.153 1.209.34 1.8.545a1.155 1.155 0 0 0 .839 1.43zm5.055 2.9a1.185 1.185 0 0 0 1.43-.2 21.522 21.522 0 0 1 1.6 1.447l-9.362 8.2-5.345 6.23a2.446 2.446 0 0 0-.426-.306l4.72-6.719 5.273-11.269c.562.323 1.123.647 1.668 1.021a1.174 1.174 0 0 0 .442 1.596zm4.171 4.085a1.164 1.164 0 0 0 1.43.17c.357.494.7 1 1 1.515l-11.065 5.7-6.673 4.749a2.489 2.489 0 0 0-.272-.323l6.384-5.158 8.192-9.371c.34.34.664.7.987 1.072a1.146 1.146 0 0 0 .017 1.651zm2.962 5.039a1.191 1.191 0 0 0 1.362.528c.187.511.375 1 .528 1.532L36.151 21.38l-7.643 2.945a1.715 1.715 0 0 0-.2-.392l7.439-3.456 10.214-7.133c.306.511.6 1.038.851 1.566a1.194 1.194 0 0 0-.396 1.619zm2.451 4.324a.063.063 0 0 0-.051.017 1.183 1.183 0 0 0 .409 2.315c.068.715.1 1.447.119 2.179l-12.461-.8-8.154.647a3.25 3.25 0 0 0-.1-.562l8.052-1.515 11.678-4.392a21.2 21.2 0 0 1 .508 2.116zM10.175 7.456a.518.518 0 0 0 .136.136 1.184 1.184 0 0 0 1.668-.119 1.2 1.2 0 0 0 .068-1.464c.46-.323.953-.63 1.43-.919l5.617 11.082 4.7 6.707a2.04 2.04 0 0 0-.357.289l-5.209-6.332-9.448-8.1c.441-.446.92-.872 1.395-1.28zM8.643 8.869l8.29 9.277 6.267 5.277a2.446 2.446 0 0 0-.306.426l-6.744-4.664-11.3-5.226a18.324 18.324 0 0 1 1.072-1.736 1.5 1.5 0 0 0 .17.1 1.186 1.186 0 0 0 1.26-1.992 17.307 17.307 0 0 1 1.291-1.462zM7.417 40.786c.051-.051.1-.085.153-.136a1.184 1.184 0 0 0-.085-1.668 1.2 1.2 0 0 0-1.5-.068 17.714 17.714 0 0 1-.766-1.192l11.133-5.737 6.639-4.715a2.489 2.489 0 0 0 .272.323l-6.349 5.124-8.237 9.465a46.373 46.373 0 0 1-1.26-1.396zM8.8 42.3l9.414-8.273 5.311-6.2a4 4 0 0 0 .426.323l-4.681 6.673L13.937 46.2q-1-.562-1.941-1.226l.1-.153a1.175 1.175 0 0 0-1.958-1.277c-.457-.409-.917-.817-1.338-1.244zm14.81 6.86c0-.034.017-.085 0-.119a1.179 1.179 0 0 0-2.332-.187c-.528-.1-1.038-.2-1.549-.34l3.9-11.933 1.413-8.018a4.217 4.217 0 0 0 .46.051l-.817 8.1.915 12.533c-.684 0-1.348-.034-1.995-.085zm17.533-5.72a.74.74 0 0 0-.1-.119 1.182 1.182 0 0 0-1.668.051 1.166 1.166 0 0 0-.068 1.532 18.236 18.236 0 0 1-1.532 1l-5.692-11.178-4.683-6.673a1.548 1.548 0 0 0 .357-.306l5.175 6.3 9.535 8.153c-.426.425-.867.833-1.328 1.242zm1.447-1.362-8.341-9.345L28 27.475a2.447 2.447 0 0 0 .306-.426l6.705 4.651L46.4 36.939c-.357.63-.732 1.26-1.123 1.855a.721.721 0 0 0-.119-.085 1.178 1.178 0 0 0-1.294 1.958c-.41.494-.836.953-1.278 1.413z" transform="translate(931.92 3693)" style="fill:#fff"/>
    </g>
</svg>
