<svg xmlns="http://www.w3.org/2000/svg" width="1179.355" height="165.976" viewBox="0 0 1179.355 165.976">
  <g id="Abous_us_New_SVG" data-name="Abous us New SVG" transform="translate(-180.009 -2236)">
    <g id="process" transform="translate(145.595 2208.114)">
      <path id="Path_424" data-name="Path 424" d="M359.514,72.993c7.915,1.231,18.292,4.045,26.559,12.136,6.508,6.156,6.86,10.905,11.257,14.423,6.332,5.1,26.375.176,55.748-14.423" transform="translate(3)" fill="none" stroke="#c6c6c5" stroke-miterlimit="10" stroke-width="1.759" stroke-dasharray="5"/>
      <path id="Path_556" data-name="Path 556" d="M359.514,72.993c7.915,1.231,18.292,4.045,26.559,12.136,6.508,6.156,39.562-15.654,43.959-12.136,17.215,5.216,9.722-9.549,22.7,8.328" transform="translate(210.708)" fill="none" stroke="#c6c6c5" stroke-miterlimit="10" stroke-width="1.759" stroke-dasharray="5"/>
      <path id="Path_425" data-name="Path 425" d="M245.944,70.883c-8.9,1.219-20.567,4.007-29.861,12.02-7.317,6.1-7.713,10.8-12.656,14.285-7.119,5.052-21.951,6.794-54.977-7.665" transform="translate(0 0.289)" fill="none" stroke="#c6c6c5" stroke-miterlimit="10" stroke-width="1.759" stroke-dasharray="5"/>
      <path id="Path_426" data-name="Path 426" d="M141.862,279.179c7.915,1.231,16.437,4.88,24.7,12.97,6.508,6.156,6.86,10.905,11.257,14.423,6.332,5.1,29.476,2.085,58.85-12.513" transform="translate(848.668 -213.583)" fill="none" stroke="#c6c6c5" stroke-miterlimit="10" stroke-width="1.759" stroke-dasharray="5"/>
      <path id="Path_427" data-name="Path 427" d="M455.146,289.466c-7.915,1.231-27.036,2.156-35.3,10.247-6.508,6.156-6.86,10.9-11.257,14.423-6.332,5.1-29.39.176-58.763-14.423" transform="translate(431.963 -218.792)" fill="none" stroke="#c6c6c5" stroke-miterlimit="10" stroke-width="1.759" stroke-dasharray="5"/>
      <path id="Path_665" data-name="Path 665" d="M5.292-12.546a7.746,7.746,0,0,1,3.555.765,5.377,5.377,0,0,1,2.3,2.187,6.711,6.711,0,0,1,.8,3.348,6.66,6.66,0,0,1-.8,3.339,5.283,5.283,0,0,1-2.3,2.16A7.9,7.9,0,0,1,5.292,0H1.386V-12.546Zm0,11.2A5,5,0,0,0,9-2.637a4.9,4.9,0,0,0,1.278-3.609A5,5,0,0,0,8.991-9.9a4.946,4.946,0,0,0-3.7-1.314H3.024V-1.35Zm17.82-3.96a9.64,9.64,0,0,1-.054.99H15.174a3.189,3.189,0,0,0,1,2.277,3.177,3.177,0,0,0,2.2.819,3.029,3.029,0,0,0,1.773-.495,2.62,2.62,0,0,0,1-1.323h1.764A4.24,4.24,0,0,1,21.33-.729a4.781,4.781,0,0,1-2.952.891,4.986,4.986,0,0,1-2.511-.63A4.459,4.459,0,0,1,14.13-2.259,5.554,5.554,0,0,1,13.5-4.95a5.634,5.634,0,0,1,.612-2.682A4.3,4.3,0,0,1,15.831-9.4a5.117,5.117,0,0,1,2.547-.621,4.95,4.95,0,0,1,2.484.612,4.238,4.238,0,0,1,1.665,1.683A4.967,4.967,0,0,1,23.112-5.31ZM21.42-5.652a3.021,3.021,0,0,0-.414-1.611,2.692,2.692,0,0,0-1.125-1.026,3.509,3.509,0,0,0-1.575-.351,3.036,3.036,0,0,0-2.115.792,3.227,3.227,0,0,0-1,2.2Zm5.49-2.394a3.906,3.906,0,0,1,1.449-1.413,4.335,4.335,0,0,1,2.241-.567,4.616,4.616,0,0,1,2.385.63,4.44,4.44,0,0,1,1.683,1.773,5.541,5.541,0,0,1,.612,2.655A5.662,5.662,0,0,1,34.668-2.3,4.524,4.524,0,0,1,32.985-.486,4.518,4.518,0,0,1,30.6.162a4.3,4.3,0,0,1-2.223-.567A4.054,4.054,0,0,1,26.91-1.818v6.5H25.272V-9.864H26.91Zm6.7,3.078a4.01,4.01,0,0,0-.45-1.944,3.116,3.116,0,0,0-1.215-1.26A3.364,3.364,0,0,0,30.258-8.6a3.276,3.276,0,0,0-1.665.441,3.224,3.224,0,0,0-1.224,1.278A3.96,3.96,0,0,0,26.91-4.95,4,4,0,0,0,27.369-3a3.224,3.224,0,0,0,1.224,1.278,3.276,3.276,0,0,0,1.665.441,3.31,3.31,0,0,0,1.683-.441A3.164,3.164,0,0,0,33.156-3,4.1,4.1,0,0,0,33.606-4.968Zm3.222,0a5.541,5.541,0,0,1,.612-2.655A4.44,4.44,0,0,1,39.123-9.4a4.616,4.616,0,0,1,2.385-.63,4.377,4.377,0,0,1,2.25.558,3.718,3.718,0,0,1,1.422,1.4v-1.8h1.656V0H45.18V-1.836A3.859,3.859,0,0,1,43.731-.405,4.335,4.335,0,0,1,41.49.162a4.471,4.471,0,0,1-2.376-.648A4.545,4.545,0,0,1,37.44-2.3,5.662,5.662,0,0,1,36.828-4.968Zm8.352.018a4.01,4.01,0,0,0-.45-1.944,3.178,3.178,0,0,0-1.215-1.269A3.31,3.31,0,0,0,41.832-8.6a3.314,3.314,0,0,0-1.674.432,3.134,3.134,0,0,0-1.206,1.26,4.01,4.01,0,0,0-.45,1.944A4.1,4.1,0,0,0,38.952-3a3.183,3.183,0,0,0,1.206,1.278,3.262,3.262,0,0,0,1.674.441,3.31,3.31,0,0,0,1.683-.441A3.164,3.164,0,0,0,44.73-3,4.063,4.063,0,0,0,45.18-4.95Zm6.066-3.312a3.142,3.142,0,0,1,1.233-1.314,3.811,3.811,0,0,1,1.953-.468v1.692H54q-2.754,0-2.754,2.988V0H49.608V-9.864h1.638Zm7.074-.252V-2.7a1.383,1.383,0,0,0,.306,1.017,1.508,1.508,0,0,0,1.062.3h1.206V0H59.418a2.937,2.937,0,0,1-2.052-.63,2.7,2.7,0,0,1-.684-2.07V-8.514H55.4v-1.35h1.278v-2.484H58.32v2.484h2.574v1.35Zm16.416-1.53a4.315,4.315,0,0,1,2.052.477A3.442,3.442,0,0,1,78.21-8.136a4.778,4.778,0,0,1,.522,2.322V0h-1.62V-5.58a3.2,3.2,0,0,0-.729-2.259,2.563,2.563,0,0,0-1.971-.783,2.634,2.634,0,0,0-2.034.819,3.368,3.368,0,0,0-.756,2.367V0H70V-5.58a3.2,3.2,0,0,0-.729-2.259A2.563,2.563,0,0,0,67.3-8.622a2.634,2.634,0,0,0-2.034.819,3.368,3.368,0,0,0-.756,2.367V0H62.874V-9.864h1.638v1.422A3.237,3.237,0,0,1,65.817-9.63a3.952,3.952,0,0,1,1.809-.414,4.269,4.269,0,0,1,2.2.558,3.4,3.4,0,0,1,1.422,1.638,3.235,3.235,0,0,1,1.368-1.62A4.03,4.03,0,0,1,74.736-10.044ZM90.414-5.31a9.639,9.639,0,0,1-.054.99H82.476a3.189,3.189,0,0,0,1,2.277,3.177,3.177,0,0,0,2.205.819,3.029,3.029,0,0,0,1.773-.495,2.62,2.62,0,0,0,1-1.323h1.764A4.24,4.24,0,0,1,88.632-.729,4.781,4.781,0,0,1,85.68.162a4.986,4.986,0,0,1-2.511-.63,4.459,4.459,0,0,1-1.737-1.791A5.554,5.554,0,0,1,80.8-4.95a5.634,5.634,0,0,1,.612-2.682A4.3,4.3,0,0,1,83.133-9.4a5.117,5.117,0,0,1,2.547-.621,4.95,4.95,0,0,1,2.484.612,4.238,4.238,0,0,1,1.665,1.683A4.967,4.967,0,0,1,90.414-5.31Zm-1.692-.342a3.021,3.021,0,0,0-.414-1.611,2.692,2.692,0,0,0-1.125-1.026,3.509,3.509,0,0,0-1.575-.351,3.036,3.036,0,0,0-2.115.792,3.227,3.227,0,0,0-1,2.2Zm8.658-4.392A4,4,0,0,1,100.3-8.955a4.191,4.191,0,0,1,1.116,3.141V0h-1.62V-5.58a3.172,3.172,0,0,0-.738-2.259,2.637,2.637,0,0,0-2.016-.783,2.7,2.7,0,0,0-2.061.81,3.309,3.309,0,0,0-.765,2.358V0H92.574V-9.864h1.638v1.4a3.252,3.252,0,0,1,1.323-1.17A4.1,4.1,0,0,1,97.38-10.044Zm8.712,1.53V-2.7a1.383,1.383,0,0,0,.306,1.017,1.508,1.508,0,0,0,1.062.3h1.206V0H107.19a2.937,2.937,0,0,1-2.052-.63,2.7,2.7,0,0,1-.684-2.07V-8.514h-1.278v-1.35h1.278v-2.484h1.638v2.484h2.574v1.35ZM114.138.162A5.1,5.1,0,0,1,112.1-.225a3.431,3.431,0,0,1-1.422-1.08,2.874,2.874,0,0,1-.576-1.593H111.8a1.66,1.66,0,0,0,.693,1.206,2.637,2.637,0,0,0,1.629.468,2.37,2.37,0,0,0,1.476-.414,1.265,1.265,0,0,0,.54-1.044,1.03,1.03,0,0,0-.576-.963,8.076,8.076,0,0,0-1.782-.621,13.1,13.1,0,0,1-1.791-.585,3.178,3.178,0,0,1-1.188-.882,2.3,2.3,0,0,1-.5-1.539,2.332,2.332,0,0,1,.45-1.386,3.05,3.05,0,0,1,1.278-1,4.6,4.6,0,0,1,1.89-.369,4.036,4.036,0,0,1,2.646.828,2.983,2.983,0,0,1,1.08,2.268H116.01a1.693,1.693,0,0,0-.621-1.242,2.315,2.315,0,0,0-1.521-.468,2.346,2.346,0,0,0-1.4.378,1.168,1.168,0,0,0-.522.99,1.085,1.085,0,0,0,.315.8,2.3,2.3,0,0,0,.792.5,13.646,13.646,0,0,0,1.323.423,14.25,14.25,0,0,1,1.728.567,3.022,3.022,0,0,1,1.143.837,2.238,2.238,0,0,1,.495,1.458,2.5,2.5,0,0,1-.45,1.458,3,3,0,0,1-1.269,1.017A4.536,4.536,0,0,1,114.138.162Z" transform="translate(33.028 172.593)"/>
      <path id="Path_664" data-name="Path 664" d="M8.478-12.546v1.332H3.024v4.23H7.452v1.332H3.024V0H1.386V-12.546Zm2.826,1.08a1.077,1.077,0,0,1-.792-.324,1.077,1.077,0,0,1-.324-.792,1.077,1.077,0,0,1,.324-.792A1.077,1.077,0,0,1,11.3-13.7a1.027,1.027,0,0,1,.765.324,1.093,1.093,0,0,1,.315.792,1.093,1.093,0,0,1-.315.792A1.027,1.027,0,0,1,11.3-11.466Zm.792,1.6V0H10.458V-9.864Zm4.428-3.456V0H14.886V-13.32Zm11.79,8.01a9.64,9.64,0,0,1-.054.99H20.376a3.189,3.189,0,0,0,1,2.277,3.177,3.177,0,0,0,2.2.819,3.029,3.029,0,0,0,1.773-.495,2.62,2.62,0,0,0,1-1.323h1.764A4.24,4.24,0,0,1,26.532-.729,4.781,4.781,0,0,1,23.58.162a4.986,4.986,0,0,1-2.511-.63,4.459,4.459,0,0,1-1.737-1.791A5.554,5.554,0,0,1,18.7-4.95a5.634,5.634,0,0,1,.612-2.682A4.3,4.3,0,0,1,21.033-9.4a5.117,5.117,0,0,1,2.547-.621,4.95,4.95,0,0,1,2.484.612,4.238,4.238,0,0,1,1.665,1.683A4.967,4.967,0,0,1,28.314-5.31Zm-1.692-.342a3.021,3.021,0,0,0-.414-1.611,2.692,2.692,0,0,0-1.125-1.026,3.509,3.509,0,0,0-1.575-.351,3.036,3.036,0,0,0-2.115.792,3.227,3.227,0,0,0-1,2.2ZM33.966.162a5.1,5.1,0,0,1-2.034-.387A3.431,3.431,0,0,1,30.51-1.3,2.874,2.874,0,0,1,29.934-2.9h1.692a1.66,1.66,0,0,0,.693,1.206,2.637,2.637,0,0,0,1.629.468,2.37,2.37,0,0,0,1.476-.414,1.265,1.265,0,0,0,.54-1.044,1.03,1.03,0,0,0-.576-.963,8.076,8.076,0,0,0-1.782-.621,13.1,13.1,0,0,1-1.791-.585,3.178,3.178,0,0,1-1.188-.882,2.3,2.3,0,0,1-.495-1.539,2.332,2.332,0,0,1,.45-1.386,3.05,3.05,0,0,1,1.278-1,4.6,4.6,0,0,1,1.89-.369A4.036,4.036,0,0,1,36.4-9.2a2.983,2.983,0,0,1,1.08,2.268H35.838a1.693,1.693,0,0,0-.621-1.242A2.315,2.315,0,0,0,33.7-8.64a2.346,2.346,0,0,0-1.4.378,1.168,1.168,0,0,0-.522.99,1.085,1.085,0,0,0,.315.8,2.3,2.3,0,0,0,.792.5,13.646,13.646,0,0,0,1.323.423,14.25,14.25,0,0,1,1.728.567,3.022,3.022,0,0,1,1.143.837,2.238,2.238,0,0,1,.495,1.458,2.5,2.5,0,0,1-.45,1.458A3,3,0,0,1,35.847-.207,4.536,4.536,0,0,1,33.966.162Z" transform="translate(280.875 172.593)"/>
      <path id="Path_662" data-name="Path 662" d="M9.774-8.874A3.466,3.466,0,0,1,8.7-6.273,4.542,4.542,0,0,1,5.436-5.238H3.024V0H1.386V-12.546h4.05A4.591,4.591,0,0,1,8.667-11.52,3.444,3.444,0,0,1,9.774-8.874ZM5.436-6.588a2.912,2.912,0,0,0,2.016-.594A2.18,2.18,0,0,0,8.1-8.874Q8.1-11.2,5.436-11.2H3.024v4.608ZM16.11.162A5.05,5.05,0,0,1,13.6-.468a4.485,4.485,0,0,1-1.764-1.791A5.491,5.491,0,0,1,11.2-4.95a5.333,5.333,0,0,1,.657-2.673A4.527,4.527,0,0,1,13.644-9.4a5.2,5.2,0,0,1,2.538-.621A5.2,5.2,0,0,1,18.72-9.4a4.543,4.543,0,0,1,1.791,1.773,5.32,5.32,0,0,1,.657,2.682,5.256,5.256,0,0,1-.675,2.691A4.678,4.678,0,0,1,18.666-.468,5.239,5.239,0,0,1,16.11.162Zm0-1.44a3.459,3.459,0,0,0,1.656-.414,3.15,3.15,0,0,0,1.251-1.242,3.978,3.978,0,0,0,.477-2.016,4.04,4.04,0,0,0-.468-2.016A3.065,3.065,0,0,0,17.8-8.2a3.415,3.415,0,0,0-1.638-.4,3.4,3.4,0,0,0-1.647.4,2.969,2.969,0,0,0-1.2,1.233,4.171,4.171,0,0,0-.45,2.016,4.284,4.284,0,0,0,.441,2.034A2.931,2.931,0,0,0,14.49-1.683,3.312,3.312,0,0,0,16.11-1.278Zm8.856-6.984A3.142,3.142,0,0,1,26.2-9.576a3.811,3.811,0,0,1,1.953-.468v1.692H27.72q-2.754,0-2.754,2.988V0H23.328V-9.864h1.638Zm7.074-.252V-2.7a1.383,1.383,0,0,0,.306,1.017,1.508,1.508,0,0,0,1.062.3h1.206V0H33.138a2.937,2.937,0,0,1-2.052-.63A2.7,2.7,0,0,1,30.4-2.7V-8.514H29.124v-1.35H30.4v-2.484H32.04v2.484h2.574v1.35Zm3.942,3.546a5.541,5.541,0,0,1,.612-2.655A4.44,4.44,0,0,1,38.277-9.4a4.616,4.616,0,0,1,2.385-.63,4.377,4.377,0,0,1,2.25.558,3.718,3.718,0,0,1,1.422,1.4v-1.8H45.99V0H44.334V-1.836A3.859,3.859,0,0,1,42.885-.405a4.335,4.335,0,0,1-2.241.567,4.471,4.471,0,0,1-2.376-.648A4.545,4.545,0,0,1,36.594-2.3,5.662,5.662,0,0,1,35.982-4.968Zm8.352.018a4.01,4.01,0,0,0-.45-1.944,3.178,3.178,0,0,0-1.215-1.269A3.31,3.31,0,0,0,40.986-8.6a3.314,3.314,0,0,0-1.674.432,3.134,3.134,0,0,0-1.206,1.26,4.01,4.01,0,0,0-.45,1.944A4.1,4.1,0,0,0,38.106-3a3.183,3.183,0,0,0,1.206,1.278,3.262,3.262,0,0,0,1.674.441,3.31,3.31,0,0,0,1.683-.441A3.164,3.164,0,0,0,43.884-3,4.063,4.063,0,0,0,44.334-4.95ZM50.4-13.32V0H48.762V-13.32Z" transform="translate(485.015 172.593)"/>
      <g id="Group" transform="translate(201.251 -213.996)">
        <path id="Path_666" data-name="Path 666" d="M3.024-11.214V-7.02H7.6v1.35H3.024v4.32H8.136V0H1.386V-12.564h6.75v1.35Zm6.984,6.246a5.541,5.541,0,0,1,.612-2.655A4.44,4.44,0,0,1,12.3-9.4a4.616,4.616,0,0,1,2.385-.63,4.377,4.377,0,0,1,2.25.558,3.718,3.718,0,0,1,1.422,1.4v-1.8h1.656V0H18.36V-1.836A3.859,3.859,0,0,1,16.911-.405,4.335,4.335,0,0,1,14.67.162a4.471,4.471,0,0,1-2.376-.648A4.545,4.545,0,0,1,10.62-2.3,5.662,5.662,0,0,1,10.008-4.968Zm8.352.018a4.01,4.01,0,0,0-.45-1.944,3.178,3.178,0,0,0-1.215-1.269A3.31,3.31,0,0,0,15.012-8.6a3.314,3.314,0,0,0-1.674.432,3.134,3.134,0,0,0-1.206,1.26,4.01,4.01,0,0,0-.45,1.944A4.1,4.1,0,0,0,12.132-3a3.183,3.183,0,0,0,1.206,1.278,3.262,3.262,0,0,0,1.674.441,3.31,3.31,0,0,0,1.683-.441A3.164,3.164,0,0,0,17.91-3,4.063,4.063,0,0,0,18.36-4.95ZM26.28.162a5.1,5.1,0,0,1-2.034-.387A3.431,3.431,0,0,1,22.824-1.3,2.874,2.874,0,0,1,22.248-2.9H23.94a1.66,1.66,0,0,0,.693,1.206,2.637,2.637,0,0,0,1.629.468,2.37,2.37,0,0,0,1.476-.414,1.265,1.265,0,0,0,.54-1.044,1.029,1.029,0,0,0-.576-.963,8.076,8.076,0,0,0-1.782-.621,13.1,13.1,0,0,1-1.791-.585,3.178,3.178,0,0,1-1.188-.882,2.3,2.3,0,0,1-.495-1.539,2.332,2.332,0,0,1,.45-1.386,3.05,3.05,0,0,1,1.278-1,4.6,4.6,0,0,1,1.89-.369A4.036,4.036,0,0,1,28.71-9.2,2.983,2.983,0,0,1,29.79-6.93H28.152a1.693,1.693,0,0,0-.621-1.242A2.315,2.315,0,0,0,26.01-8.64a2.346,2.346,0,0,0-1.4.378,1.168,1.168,0,0,0-.522.99,1.085,1.085,0,0,0,.315.8,2.3,2.3,0,0,0,.792.5,13.646,13.646,0,0,0,1.323.423,14.25,14.25,0,0,1,1.728.567,3.022,3.022,0,0,1,1.143.837,2.238,2.238,0,0,1,.5,1.458,2.5,2.5,0,0,1-.45,1.458A3,3,0,0,1,28.161-.207,4.536,4.536,0,0,1,26.28.162Zm6.75-11.628a1.077,1.077,0,0,1-.792-.324,1.077,1.077,0,0,1-.324-.792,1.077,1.077,0,0,1,.324-.792,1.077,1.077,0,0,1,.792-.324,1.027,1.027,0,0,1,.765.324,1.093,1.093,0,0,1,.315.792,1.093,1.093,0,0,1-.315.792A1.027,1.027,0,0,1,33.03-11.466Zm.792,1.6V0H32.184V-9.864ZM38.25-13.32V0H36.612V-13.32ZM49.536-9.864,43.6,4.644H41.9L43.848-.108,39.87-9.864h1.818l3.1,7.992,3.06-7.992Zm5.832,4.9a5.541,5.541,0,0,1,.612-2.655A4.44,4.44,0,0,1,57.663-9.4a4.616,4.616,0,0,1,2.385-.63,4.377,4.377,0,0,1,2.25.558,3.718,3.718,0,0,1,1.422,1.4v-1.8h1.656V0H63.72V-1.836A3.859,3.859,0,0,1,62.271-.405,4.335,4.335,0,0,1,60.03.162a4.471,4.471,0,0,1-2.376-.648A4.545,4.545,0,0,1,55.98-2.3,5.662,5.662,0,0,1,55.368-4.968Zm8.352.018a4.01,4.01,0,0,0-.45-1.944,3.178,3.178,0,0,0-1.215-1.269A3.31,3.31,0,0,0,60.372-8.6a3.314,3.314,0,0,0-1.674.432,3.134,3.134,0,0,0-1.206,1.26,4.01,4.01,0,0,0-.45,1.944A4.1,4.1,0,0,0,57.492-3,3.183,3.183,0,0,0,58.7-1.719a3.262,3.262,0,0,0,1.674.441,3.31,3.31,0,0,0,1.683-.441A3.164,3.164,0,0,0,63.27-3,4.063,4.063,0,0,0,63.72-4.95Zm3.816,0a5.58,5.58,0,0,1,.612-2.673,4.4,4.4,0,0,1,1.7-1.773,4.887,4.887,0,0,1,2.493-.63,4.867,4.867,0,0,1,3,.882A4.163,4.163,0,0,1,76.9-6.7H75.132a2.533,2.533,0,0,0-.981-1.422,3.027,3.027,0,0,0-1.809-.522,2.9,2.9,0,0,0-2.268.963A3.945,3.945,0,0,0,69.21-4.95,4.009,4.009,0,0,0,70.074-2.2a2.889,2.889,0,0,0,2.268.972,3.063,3.063,0,0,0,1.8-.5,2.555,2.555,0,0,0,.99-1.44H76.9A4.339,4.339,0,0,1,75.312-.747a4.745,4.745,0,0,1-2.97.909,4.887,4.887,0,0,1-2.493-.63,4.389,4.389,0,0,1-1.7-1.782A5.674,5.674,0,0,1,67.536-4.95Zm10.926,0a5.58,5.58,0,0,1,.612-2.673,4.4,4.4,0,0,1,1.7-1.773,4.887,4.887,0,0,1,2.493-.63,4.867,4.867,0,0,1,3,.882A4.163,4.163,0,0,1,87.822-6.7H86.058a2.533,2.533,0,0,0-.981-1.422,3.027,3.027,0,0,0-1.809-.522A2.9,2.9,0,0,0,81-7.677a3.945,3.945,0,0,0-.864,2.727A4.009,4.009,0,0,0,81-2.2a2.889,2.889,0,0,0,2.268.972,3.063,3.063,0,0,0,1.8-.5,2.555,2.555,0,0,0,.99-1.44h1.764A4.339,4.339,0,0,1,86.238-.747a4.745,4.745,0,0,1-2.97.909,4.887,4.887,0,0,1-2.493-.63,4.389,4.389,0,0,1-1.7-1.782A5.674,5.674,0,0,1,78.462-4.95ZM99-5.31a9.639,9.639,0,0,1-.054.99H91.062a3.189,3.189,0,0,0,1,2.277,3.177,3.177,0,0,0,2.205.819,3.029,3.029,0,0,0,1.773-.495,2.62,2.62,0,0,0,1-1.323H98.8A4.24,4.24,0,0,1,97.218-.729a4.781,4.781,0,0,1-2.952.891,4.986,4.986,0,0,1-2.511-.63,4.459,4.459,0,0,1-1.737-1.791,5.554,5.554,0,0,1-.63-2.691A5.634,5.634,0,0,1,90-7.632,4.3,4.3,0,0,1,91.719-9.4a5.117,5.117,0,0,1,2.547-.621,4.95,4.95,0,0,1,2.484.612,4.238,4.238,0,0,1,1.665,1.683A4.967,4.967,0,0,1,99-5.31Zm-1.692-.342a3.021,3.021,0,0,0-.414-1.611,2.692,2.692,0,0,0-1.125-1.026,3.509,3.509,0,0,0-1.575-.351,3.036,3.036,0,0,0-2.115.792,3.227,3.227,0,0,0-1,2.2ZM104.652.162a5.1,5.1,0,0,1-2.034-.387A3.431,3.431,0,0,1,101.2-1.3,2.874,2.874,0,0,1,100.62-2.9h1.692a1.66,1.66,0,0,0,.693,1.206,2.637,2.637,0,0,0,1.629.468,2.37,2.37,0,0,0,1.476-.414,1.265,1.265,0,0,0,.54-1.044,1.03,1.03,0,0,0-.576-.963,8.076,8.076,0,0,0-1.782-.621,13.1,13.1,0,0,1-1.791-.585,3.178,3.178,0,0,1-1.188-.882,2.3,2.3,0,0,1-.5-1.539,2.332,2.332,0,0,1,.45-1.386,3.05,3.05,0,0,1,1.278-1,4.6,4.6,0,0,1,1.89-.369,4.036,4.036,0,0,1,2.646.828,2.983,2.983,0,0,1,1.08,2.268h-1.638a1.693,1.693,0,0,0-.621-1.242,2.315,2.315,0,0,0-1.521-.468,2.346,2.346,0,0,0-1.4.378,1.168,1.168,0,0,0-.522.99,1.085,1.085,0,0,0,.315.8,2.3,2.3,0,0,0,.792.5,13.646,13.646,0,0,0,1.323.423,14.25,14.25,0,0,1,1.728.567,3.022,3.022,0,0,1,1.143.837,2.238,2.238,0,0,1,.495,1.458,2.5,2.5,0,0,1-.45,1.458,3,3,0,0,1-1.269,1.017A4.536,4.536,0,0,1,104.652.162Zm9.4,0a5.1,5.1,0,0,1-2.034-.387,3.431,3.431,0,0,1-1.422-1.08,2.874,2.874,0,0,1-.576-1.593h1.692a1.66,1.66,0,0,0,.693,1.206,2.637,2.637,0,0,0,1.629.468,2.37,2.37,0,0,0,1.476-.414,1.265,1.265,0,0,0,.54-1.044,1.03,1.03,0,0,0-.576-.963,8.076,8.076,0,0,0-1.782-.621,13.1,13.1,0,0,1-1.791-.585,3.178,3.178,0,0,1-1.188-.882,2.3,2.3,0,0,1-.5-1.539,2.332,2.332,0,0,1,.45-1.386,3.05,3.05,0,0,1,1.278-1,4.6,4.6,0,0,1,1.89-.369,4.036,4.036,0,0,1,2.646.828,2.983,2.983,0,0,1,1.08,2.268H115.92a1.693,1.693,0,0,0-.621-1.242,2.315,2.315,0,0,0-1.521-.468,2.346,2.346,0,0,0-1.4.378,1.168,1.168,0,0,0-.522.99,1.085,1.085,0,0,0,.315.8,2.3,2.3,0,0,0,.792.5,13.646,13.646,0,0,0,1.323.423,14.25,14.25,0,0,1,1.728.567,3.022,3.022,0,0,1,1.143.837,2.238,2.238,0,0,1,.495,1.458,2.5,2.5,0,0,1-.45,1.458,3,3,0,0,1-1.269,1.017A4.536,4.536,0,0,1,114.048.162ZM126.4-8.028a3.872,3.872,0,0,1,1.476-1.44,4.366,4.366,0,0,1,2.214-.558,4.6,4.6,0,0,1,2.394.63,4.46,4.46,0,0,1,1.674,1.773,5.541,5.541,0,0,1,.612,2.655,5.662,5.662,0,0,1-.612,2.664,4.524,4.524,0,0,1-1.683,1.818,4.518,4.518,0,0,1-2.385.648A4.39,4.39,0,0,1,127.845-.4,3.8,3.8,0,0,1,126.4-1.818V0h-1.638V-13.32H126.4Zm6.7,3.06a4.01,4.01,0,0,0-.45-1.944,3.116,3.116,0,0,0-1.215-1.26,3.364,3.364,0,0,0-1.683-.432,3.276,3.276,0,0,0-1.665.441,3.224,3.224,0,0,0-1.224,1.278A3.96,3.96,0,0,0,126.4-4.95,4,4,0,0,0,126.855-3a3.224,3.224,0,0,0,1.224,1.278,3.276,3.276,0,0,0,1.665.441,3.31,3.31,0,0,0,1.683-.441A3.164,3.164,0,0,0,132.642-3,4.1,4.1,0,0,0,133.092-4.968Zm12.33-4.9-5.94,14.508H137.79l1.944-4.752-3.978-9.756h1.818l3.1,7.992,3.06-7.992Z" transform="translate(448.535 386.59)"/>
        <path id="Path_667" data-name="Path 667" d="M.774-6.282a6.6,6.6,0,0,1,.828-3.3A6.015,6.015,0,0,1,3.861-11.88a6.228,6.228,0,0,1,3.177-.828,6.447,6.447,0,0,1,3.582.99A5.673,5.673,0,0,1,12.852-8.91H10.89a3.939,3.939,0,0,0-1.5-1.746,4.349,4.349,0,0,0-2.349-.612,4.575,4.575,0,0,0-2.358.612A4.28,4.28,0,0,0,3.042-8.919a5.57,5.57,0,0,0-.594,2.637,5.529,5.529,0,0,0,.594,2.619A4.28,4.28,0,0,0,4.68-1.926a4.575,4.575,0,0,0,2.358.612,4.4,4.4,0,0,0,2.349-.6,3.883,3.883,0,0,0,1.5-1.737h1.962A5.632,5.632,0,0,1,10.62-.873,6.491,6.491,0,0,1,7.038.108,6.282,6.282,0,0,1,3.861-.711,5.968,5.968,0,0,1,1.6-2.988,6.552,6.552,0,0,1,.774-6.282Zm15.354-5.184a1.077,1.077,0,0,1-.792-.324,1.077,1.077,0,0,1-.324-.792,1.077,1.077,0,0,1,.324-.792,1.077,1.077,0,0,1,.792-.324,1.027,1.027,0,0,1,.765.324,1.093,1.093,0,0,1,.315.792,1.093,1.093,0,0,1-.315.792A1.027,1.027,0,0,1,16.128-11.466Zm.792,1.6V0H15.282V-9.864Zm4.788,1.35V-2.7a1.383,1.383,0,0,0,.306,1.017,1.508,1.508,0,0,0,1.062.3h1.206V0H22.806a2.937,2.937,0,0,1-2.052-.63A2.7,2.7,0,0,1,20.07-2.7V-8.514H18.792v-1.35H20.07v-2.484h1.638v2.484h2.574v1.35Zm5.4-2.952a1.077,1.077,0,0,1-.792-.324,1.077,1.077,0,0,1-.324-.792,1.077,1.077,0,0,1,.324-.792,1.077,1.077,0,0,1,.792-.324,1.027,1.027,0,0,1,.765.324,1.093,1.093,0,0,1,.315.792,1.093,1.093,0,0,1-.315.792A1.027,1.027,0,0,1,27.108-11.466Zm.792,1.6V0H26.262V-9.864ZM31.914-1.35h4.842V0H30.042V-1.35L34.83-8.532H30.078V-9.864H36.72v1.332ZM47.88-5.31a9.64,9.64,0,0,1-.054.99H39.942a3.189,3.189,0,0,0,1,2.277,3.177,3.177,0,0,0,2.205.819,3.029,3.029,0,0,0,1.773-.495,2.62,2.62,0,0,0,1-1.323h1.764A4.24,4.24,0,0,1,46.1-.729a4.781,4.781,0,0,1-2.952.891,4.986,4.986,0,0,1-2.511-.63A4.459,4.459,0,0,1,38.9-2.259a5.554,5.554,0,0,1-.63-2.691,5.634,5.634,0,0,1,.612-2.682A4.3,4.3,0,0,1,40.6-9.4a5.117,5.117,0,0,1,2.547-.621,4.95,4.95,0,0,1,2.484.612,4.238,4.238,0,0,1,1.665,1.683A4.967,4.967,0,0,1,47.88-5.31Zm-1.692-.342a3.021,3.021,0,0,0-.414-1.611,2.692,2.692,0,0,0-1.125-1.026,3.509,3.509,0,0,0-1.575-.351,3.036,3.036,0,0,0-2.115.792,3.227,3.227,0,0,0-1,2.2Zm8.658-4.392a4,4,0,0,1,2.916,1.089,4.191,4.191,0,0,1,1.116,3.141V0h-1.62V-5.58a3.172,3.172,0,0,0-.738-2.259A2.637,2.637,0,0,0,54.5-8.622a2.7,2.7,0,0,0-2.061.81,3.309,3.309,0,0,0-.765,2.358V0H50.04V-9.864h1.638v1.4A3.252,3.252,0,0,1,53-9.63,4.1,4.1,0,0,1,54.846-10.044Z" transform="translate(490.045 407.696)"/>
      </g>
      <path id="Path_663" data-name="Path 663" d="M14.112-12.456V0H12.474V-9.288L8.334,0H7.182L3.024-9.306V0H1.386V-12.456H3.15L7.758-2.16l4.608-10.3ZM21.186.162a5.05,5.05,0,0,1-2.511-.63,4.485,4.485,0,0,1-1.764-1.791,5.491,5.491,0,0,1-.639-2.691,5.333,5.333,0,0,1,.657-2.673A4.527,4.527,0,0,1,18.72-9.4a5.2,5.2,0,0,1,2.538-.621A5.2,5.2,0,0,1,23.8-9.4a4.543,4.543,0,0,1,1.791,1.773,5.32,5.32,0,0,1,.657,2.682,5.256,5.256,0,0,1-.675,2.691A4.678,4.678,0,0,1,23.742-.468,5.239,5.239,0,0,1,21.186.162Zm0-1.44a3.459,3.459,0,0,0,1.656-.414,3.15,3.15,0,0,0,1.251-1.242A3.978,3.978,0,0,0,24.57-4.95,4.04,4.04,0,0,0,24.1-6.966,3.065,3.065,0,0,0,22.878-8.2a3.415,3.415,0,0,0-1.638-.4,3.4,3.4,0,0,0-1.647.4,2.969,2.969,0,0,0-1.2,1.233,4.171,4.171,0,0,0-.45,2.016,4.284,4.284,0,0,0,.441,2.034,2.931,2.931,0,0,0,1.179,1.233A3.312,3.312,0,0,0,21.186-1.278Zm8.856-6.984a3.142,3.142,0,0,1,1.233-1.314,3.811,3.811,0,0,1,1.953-.468v1.692H32.8q-2.754,0-2.754,2.988V0H28.4V-9.864h1.638ZM44.118-5.31a9.64,9.64,0,0,1-.054.99H36.18a3.189,3.189,0,0,0,1,2.277,3.177,3.177,0,0,0,2.205.819,3.029,3.029,0,0,0,1.773-.495,2.62,2.62,0,0,0,1-1.323H43.92A4.24,4.24,0,0,1,42.336-.729a4.781,4.781,0,0,1-2.952.891,4.986,4.986,0,0,1-2.511-.63,4.459,4.459,0,0,1-1.737-1.791,5.554,5.554,0,0,1-.63-2.691,5.634,5.634,0,0,1,.612-2.682A4.3,4.3,0,0,1,36.837-9.4a5.117,5.117,0,0,1,2.547-.621,4.95,4.95,0,0,1,2.484.612,4.238,4.238,0,0,1,1.665,1.683A4.967,4.967,0,0,1,44.118-5.31Zm-1.692-.342a3.021,3.021,0,0,0-.414-1.611,2.692,2.692,0,0,0-1.125-1.026,3.509,3.509,0,0,0-1.575-.351,3.036,3.036,0,0,0-2.115.792,3.227,3.227,0,0,0-1,2.2Zm17.658.342a9.64,9.64,0,0,1-.054.99H52.146a3.189,3.189,0,0,0,1,2.277,3.177,3.177,0,0,0,2.205.819,3.029,3.029,0,0,0,1.773-.495,2.62,2.62,0,0,0,1-1.323h1.764A4.24,4.24,0,0,1,58.3-.729,4.781,4.781,0,0,1,55.35.162a4.986,4.986,0,0,1-2.511-.63A4.459,4.459,0,0,1,51.1-2.259a5.554,5.554,0,0,1-.63-2.691,5.634,5.634,0,0,1,.612-2.682A4.3,4.3,0,0,1,52.8-9.4a5.117,5.117,0,0,1,2.547-.621,4.95,4.95,0,0,1,2.484.612A4.238,4.238,0,0,1,59.5-7.731,4.967,4.967,0,0,1,60.084-5.31Zm-1.692-.342a3.021,3.021,0,0,0-.414-1.611,2.692,2.692,0,0,0-1.125-1.026,3.509,3.509,0,0,0-1.575-.351,3.036,3.036,0,0,0-2.115.792,3.227,3.227,0,0,0-1,2.2Zm7.866-2.862h-2.07V0H62.55V-8.514H61.272v-1.35H62.55v-.7a3.1,3.1,0,0,1,.855-2.421,4.055,4.055,0,0,1,2.745-.765v1.368a2.175,2.175,0,0,0-1.521.423,1.87,1.87,0,0,0-.441,1.4v.7h2.07Zm5.922,0H70.11V0H68.472V-8.514H67.194v-1.35h1.278v-.7a3.1,3.1,0,0,1,.855-2.421,4.056,4.056,0,0,1,2.745-.765v1.368a2.175,2.175,0,0,0-1.521.423,1.87,1.87,0,0,0-.441,1.4v.7h2.07Zm2.754-2.952a1.077,1.077,0,0,1-.792-.324,1.077,1.077,0,0,1-.324-.792,1.077,1.077,0,0,1,.324-.792,1.077,1.077,0,0,1,.792-.324,1.027,1.027,0,0,1,.765.324,1.093,1.093,0,0,1,.315.792,1.093,1.093,0,0,1-.315.792A1.027,1.027,0,0,1,74.934-11.466Zm.792,1.6V0H74.088V-9.864ZM77.9-4.95a5.58,5.58,0,0,1,.612-2.673,4.4,4.4,0,0,1,1.7-1.773,4.887,4.887,0,0,1,2.493-.63,4.867,4.867,0,0,1,3,.882A4.163,4.163,0,0,1,87.264-6.7H85.5a2.533,2.533,0,0,0-.981-1.422A3.027,3.027,0,0,0,82.71-8.64a2.9,2.9,0,0,0-2.268.963,3.945,3.945,0,0,0-.864,2.727A4.009,4.009,0,0,0,80.442-2.2a2.889,2.889,0,0,0,2.268.972,3.063,3.063,0,0,0,1.8-.5,2.555,2.555,0,0,0,.99-1.44h1.764A4.339,4.339,0,0,1,85.68-.747a4.745,4.745,0,0,1-2.97.909,4.887,4.887,0,0,1-2.493-.63,4.389,4.389,0,0,1-1.7-1.782A5.674,5.674,0,0,1,77.9-4.95Zm12.384-6.516a1.077,1.077,0,0,1-.792-.324,1.077,1.077,0,0,1-.324-.792,1.077,1.077,0,0,1,.324-.792,1.077,1.077,0,0,1,.792-.324,1.027,1.027,0,0,1,.765.324,1.093,1.093,0,0,1,.315.792,1.093,1.093,0,0,1-.315.792A1.027,1.027,0,0,1,90.288-11.466Zm.792,1.6V0H89.442V-9.864ZM102.87-5.31a9.639,9.639,0,0,1-.054.99H94.932a3.189,3.189,0,0,0,1,2.277,3.177,3.177,0,0,0,2.205.819,3.029,3.029,0,0,0,1.773-.495,2.62,2.62,0,0,0,1-1.323h1.764a4.24,4.24,0,0,1-1.584,2.313,4.781,4.781,0,0,1-2.952.891,4.986,4.986,0,0,1-2.511-.63,4.459,4.459,0,0,1-1.737-1.791,5.554,5.554,0,0,1-.63-2.691,5.634,5.634,0,0,1,.612-2.682A4.3,4.3,0,0,1,95.589-9.4a5.117,5.117,0,0,1,2.547-.621,4.95,4.95,0,0,1,2.484.612,4.238,4.238,0,0,1,1.665,1.683A4.967,4.967,0,0,1,102.87-5.31Zm-1.692-.342a3.021,3.021,0,0,0-.414-1.611,2.692,2.692,0,0,0-1.125-1.026,3.509,3.509,0,0,0-1.575-.351,3.036,3.036,0,0,0-2.115.792,3.227,3.227,0,0,0-1,2.2Zm8.658-4.392a4,4,0,0,1,2.916,1.089,4.191,4.191,0,0,1,1.116,3.141V0h-1.62V-5.58a3.172,3.172,0,0,0-.738-2.259,2.637,2.637,0,0,0-2.016-.783,2.7,2.7,0,0,0-2.061.81,3.309,3.309,0,0,0-.765,2.358V0H105.03V-9.864h1.638v1.4a3.252,3.252,0,0,1,1.323-1.17A4.1,4.1,0,0,1,109.836-10.044Zm8.712,1.53V-2.7a1.383,1.383,0,0,0,.306,1.017,1.508,1.508,0,0,0,1.062.3h1.206V0h-1.476a2.937,2.937,0,0,1-2.052-.63,2.7,2.7,0,0,1-.684-2.07V-8.514h-1.278v-1.35h1.278v-2.484h1.638v2.484h2.574v1.35Z" transform="translate(874.218 172.593)"/>
      <g id="Group-2" data-name="Group" transform="translate(1057.246 -213.996)">
        <path id="Path_669" data-name="Path 669" d="M7.668-6.462A2.651,2.651,0,0,1,8.919-5.9a3.274,3.274,0,0,1,.9,1.116,3.137,3.137,0,0,1,.333,1.422,3.138,3.138,0,0,1-.486,1.719A3.3,3.3,0,0,1,8.253-.441,5.044,5.044,0,0,1,6.066,0H1.386V-12.546h4.5a5.091,5.091,0,0,1,2.178.423,3.083,3.083,0,0,1,1.35,1.143,2.993,2.993,0,0,1,.45,1.62,2.8,2.8,0,0,1-.6,1.845A3.374,3.374,0,0,1,7.668-6.462ZM3.024-7.128H5.778a2.657,2.657,0,0,0,1.782-.54,1.863,1.863,0,0,0,.63-1.494,1.863,1.863,0,0,0-.63-1.494,2.718,2.718,0,0,0-1.818-.54H3.024Zm2.9,5.778A2.875,2.875,0,0,0,7.83-1.926a1.981,1.981,0,0,0,.684-1.6,2.034,2.034,0,0,0-.72-1.647,2.9,2.9,0,0,0-1.926-.6H3.024V-1.35ZM21.168-9.864V0H19.53V-1.458A3.189,3.189,0,0,1,18.225-.279,4.031,4.031,0,0,1,16.38.144a4.422,4.422,0,0,1-2.07-.477,3.468,3.468,0,0,1-1.449-1.431,4.711,4.711,0,0,1-.531-2.322V-9.864h1.62V-4.3a3.144,3.144,0,0,0,.738,2.241,2.637,2.637,0,0,0,2.016.783,2.693,2.693,0,0,0,2.07-.81,3.334,3.334,0,0,0,.756-2.358V-9.864ZM27.432.162A5.1,5.1,0,0,1,25.4-.225,3.431,3.431,0,0,1,23.976-1.3,2.874,2.874,0,0,1,23.4-2.9h1.692a1.66,1.66,0,0,0,.693,1.206,2.637,2.637,0,0,0,1.629.468,2.37,2.37,0,0,0,1.476-.414,1.265,1.265,0,0,0,.54-1.044,1.029,1.029,0,0,0-.576-.963,8.076,8.076,0,0,0-1.782-.621,13.1,13.1,0,0,1-1.791-.585,3.178,3.178,0,0,1-1.188-.882A2.3,2.3,0,0,1,23.6-7.272a2.332,2.332,0,0,1,.45-1.386,3.05,3.05,0,0,1,1.278-1,4.6,4.6,0,0,1,1.89-.369,4.036,4.036,0,0,1,2.646.828,2.983,2.983,0,0,1,1.08,2.268H29.3a1.693,1.693,0,0,0-.621-1.242,2.315,2.315,0,0,0-1.521-.468,2.346,2.346,0,0,0-1.4.378,1.168,1.168,0,0,0-.522.99,1.085,1.085,0,0,0,.315.8,2.3,2.3,0,0,0,.792.5,13.646,13.646,0,0,0,1.323.423,14.25,14.25,0,0,1,1.728.567,3.022,3.022,0,0,1,1.143.837,2.238,2.238,0,0,1,.5,1.458,2.5,2.5,0,0,1-.45,1.458A3,3,0,0,1,29.313-.207,4.536,4.536,0,0,1,27.432.162Zm6.75-11.628a1.077,1.077,0,0,1-.792-.324,1.077,1.077,0,0,1-.324-.792,1.077,1.077,0,0,1,.324-.792,1.077,1.077,0,0,1,.792-.324,1.027,1.027,0,0,1,.765.324,1.093,1.093,0,0,1,.315.792,1.093,1.093,0,0,1-.315.792A1.027,1.027,0,0,1,34.182-11.466Zm.792,1.6V0H33.336V-9.864Zm7.6-.18a4,4,0,0,1,2.916,1.089A4.191,4.191,0,0,1,46.6-5.814V0h-1.62V-5.58a3.172,3.172,0,0,0-.738-2.259,2.637,2.637,0,0,0-2.016-.783,2.7,2.7,0,0,0-2.061.81A3.309,3.309,0,0,0,39.4-5.454V0H37.764V-9.864H39.4v1.4a3.252,3.252,0,0,1,1.323-1.17A4.1,4.1,0,0,1,42.57-10.044ZM58.284-5.31a9.64,9.64,0,0,1-.054.99H50.346a3.189,3.189,0,0,0,1,2.277,3.177,3.177,0,0,0,2.205.819,3.029,3.029,0,0,0,1.773-.495,2.62,2.62,0,0,0,1-1.323h1.764A4.24,4.24,0,0,1,56.5-.729,4.781,4.781,0,0,1,53.55.162a4.986,4.986,0,0,1-2.511-.63A4.459,4.459,0,0,1,49.3-2.259a5.554,5.554,0,0,1-.63-2.691,5.634,5.634,0,0,1,.612-2.682A4.3,4.3,0,0,1,51-9.4a5.117,5.117,0,0,1,2.547-.621,4.95,4.95,0,0,1,2.484.612A4.238,4.238,0,0,1,57.7-7.731,4.967,4.967,0,0,1,58.284-5.31Zm-1.692-.342a3.021,3.021,0,0,0-.414-1.611,2.692,2.692,0,0,0-1.125-1.026,3.509,3.509,0,0,0-1.575-.351,3.036,3.036,0,0,0-2.115.792,3.227,3.227,0,0,0-1,2.2ZM63.936.162A5.1,5.1,0,0,1,61.9-.225,3.431,3.431,0,0,1,60.48-1.3,2.874,2.874,0,0,1,59.9-2.9H61.6a1.66,1.66,0,0,0,.693,1.206,2.637,2.637,0,0,0,1.629.468,2.37,2.37,0,0,0,1.476-.414,1.265,1.265,0,0,0,.54-1.044,1.03,1.03,0,0,0-.576-.963,8.076,8.076,0,0,0-1.782-.621,13.1,13.1,0,0,1-1.791-.585A3.178,3.178,0,0,1,60.6-5.733a2.3,2.3,0,0,1-.5-1.539,2.332,2.332,0,0,1,.45-1.386,3.05,3.05,0,0,1,1.278-1,4.6,4.6,0,0,1,1.89-.369,4.036,4.036,0,0,1,2.646.828,2.983,2.983,0,0,1,1.08,2.268H65.808a1.693,1.693,0,0,0-.621-1.242,2.315,2.315,0,0,0-1.521-.468,2.346,2.346,0,0,0-1.4.378,1.168,1.168,0,0,0-.522.99,1.085,1.085,0,0,0,.315.8,2.3,2.3,0,0,0,.792.5,13.646,13.646,0,0,0,1.323.423,14.25,14.25,0,0,1,1.728.567,3.022,3.022,0,0,1,1.143.837,2.238,2.238,0,0,1,.495,1.458,2.5,2.5,0,0,1-.45,1.458A3,3,0,0,1,65.817-.207,4.536,4.536,0,0,1,63.936.162Zm9.4,0A5.1,5.1,0,0,1,71.3-.225,3.431,3.431,0,0,1,69.876-1.3,2.874,2.874,0,0,1,69.3-2.9h1.692a1.66,1.66,0,0,0,.693,1.206,2.637,2.637,0,0,0,1.629.468,2.37,2.37,0,0,0,1.476-.414,1.265,1.265,0,0,0,.54-1.044,1.03,1.03,0,0,0-.576-.963,8.076,8.076,0,0,0-1.782-.621,13.1,13.1,0,0,1-1.791-.585,3.178,3.178,0,0,1-1.188-.882,2.3,2.3,0,0,1-.5-1.539,2.332,2.332,0,0,1,.45-1.386,3.05,3.05,0,0,1,1.278-1,4.6,4.6,0,0,1,1.89-.369,4.036,4.036,0,0,1,2.646.828,2.983,2.983,0,0,1,1.08,2.268H75.2a1.693,1.693,0,0,0-.621-1.242,2.315,2.315,0,0,0-1.521-.468,2.346,2.346,0,0,0-1.4.378,1.168,1.168,0,0,0-.522.99,1.085,1.085,0,0,0,.315.8,2.3,2.3,0,0,0,.792.5,13.646,13.646,0,0,0,1.323.423,14.25,14.25,0,0,1,1.728.567,3.022,3.022,0,0,1,1.143.837,2.238,2.238,0,0,1,.495,1.458,2.5,2.5,0,0,1-.45,1.458A3,3,0,0,1,75.213-.207,4.536,4.536,0,0,1,73.332.162ZM93.042-5.31a9.639,9.639,0,0,1-.054.99H85.1a3.189,3.189,0,0,0,1,2.277,3.177,3.177,0,0,0,2.205.819,3.029,3.029,0,0,0,1.773-.495,2.62,2.62,0,0,0,1-1.323h1.764A4.24,4.24,0,0,1,91.26-.729a4.781,4.781,0,0,1-2.952.891A4.986,4.986,0,0,1,85.8-.468,4.459,4.459,0,0,1,84.06-2.259a5.554,5.554,0,0,1-.63-2.691,5.634,5.634,0,0,1,.612-2.682A4.3,4.3,0,0,1,85.761-9.4a5.117,5.117,0,0,1,2.547-.621,4.95,4.95,0,0,1,2.484.612,4.238,4.238,0,0,1,1.665,1.683A4.967,4.967,0,0,1,93.042-5.31ZM91.35-5.652a3.021,3.021,0,0,0-.414-1.611,2.692,2.692,0,0,0-1.125-1.026,3.509,3.509,0,0,0-1.575-.351,3.036,3.036,0,0,0-2.115.792,3.227,3.227,0,0,0-1,2.2Zm3.24.684A5.541,5.541,0,0,1,95.2-7.623,4.44,4.44,0,0,1,96.885-9.4a4.616,4.616,0,0,1,2.385-.63,4.377,4.377,0,0,1,2.25.558,3.718,3.718,0,0,1,1.422,1.4v-1.8H104.6V0h-1.656V-1.836a3.859,3.859,0,0,1-1.449,1.431,4.335,4.335,0,0,1-2.241.567,4.471,4.471,0,0,1-2.376-.648A4.545,4.545,0,0,1,95.2-2.3,5.662,5.662,0,0,1,94.59-4.968Zm8.352.018a4.01,4.01,0,0,0-.45-1.944,3.178,3.178,0,0,0-1.215-1.269A3.31,3.31,0,0,0,99.594-8.6a3.314,3.314,0,0,0-1.674.432,3.134,3.134,0,0,0-1.206,1.26,4.01,4.01,0,0,0-.45,1.944A4.1,4.1,0,0,0,96.714-3,3.183,3.183,0,0,0,97.92-1.719a3.262,3.262,0,0,0,1.674.441,3.31,3.31,0,0,0,1.683-.441A3.164,3.164,0,0,0,102.492-3,4.063,4.063,0,0,0,102.942-4.95Zm7.92,5.112a5.1,5.1,0,0,1-2.034-.387,3.431,3.431,0,0,1-1.422-1.08A2.874,2.874,0,0,1,106.83-2.9h1.692a1.66,1.66,0,0,0,.693,1.206,2.637,2.637,0,0,0,1.629.468,2.37,2.37,0,0,0,1.476-.414,1.265,1.265,0,0,0,.54-1.044,1.03,1.03,0,0,0-.576-.963,8.076,8.076,0,0,0-1.782-.621,13.1,13.1,0,0,1-1.791-.585,3.178,3.178,0,0,1-1.188-.882,2.3,2.3,0,0,1-.5-1.539,2.332,2.332,0,0,1,.45-1.386,3.05,3.05,0,0,1,1.278-1,4.6,4.6,0,0,1,1.89-.369,4.036,4.036,0,0,1,2.646.828,2.983,2.983,0,0,1,1.08,2.268h-1.638a1.693,1.693,0,0,0-.621-1.242,2.315,2.315,0,0,0-1.521-.468,2.346,2.346,0,0,0-1.4.378,1.168,1.168,0,0,0-.522.99,1.085,1.085,0,0,0,.315.8,2.3,2.3,0,0,0,.792.5,13.646,13.646,0,0,0,1.323.423,14.25,14.25,0,0,1,1.728.567,3.022,3.022,0,0,1,1.143.837,2.238,2.238,0,0,1,.495,1.458,2.5,2.5,0,0,1-.45,1.458,3,3,0,0,1-1.269,1.017A4.536,4.536,0,0,1,110.862.162Zm6.75-11.628a1.077,1.077,0,0,1-.792-.324,1.077,1.077,0,0,1-.324-.792,1.077,1.077,0,0,1,.324-.792,1.077,1.077,0,0,1,.792-.324,1.027,1.027,0,0,1,.765.324,1.093,1.093,0,0,1,.315.792,1.093,1.093,0,0,1-.315.792A1.027,1.027,0,0,1,117.612-11.466Zm.792,1.6V0h-1.638V-9.864Zm4.428-3.456V0h-1.638V-13.32Zm11.286,3.456-5.94,14.508h-1.692L128.43-.108l-3.978-9.756h1.818l3.1,7.992,3.06-7.992Z" transform="translate(22.405 386.59)"/>
        <path id="Path_668" data-name="Path 668" d="M.774-4.968a5.541,5.541,0,0,1,.612-2.655A4.44,4.44,0,0,1,3.069-9.4a4.65,4.65,0,0,1,2.4-.63,4.462,4.462,0,0,1,2.142.531A3.832,3.832,0,0,1,9.126-8.1v-5.22h1.656V0H9.126V-1.854A3.833,3.833,0,0,1,7.686-.405,4.286,4.286,0,0,1,5.454.162,4.518,4.518,0,0,1,3.069-.486,4.524,4.524,0,0,1,1.386-2.3,5.662,5.662,0,0,1,.774-4.968Zm8.352.018a4.01,4.01,0,0,0-.45-1.944A3.178,3.178,0,0,0,7.461-8.163,3.31,3.31,0,0,0,5.778-8.6,3.314,3.314,0,0,0,4.1-8.172,3.134,3.134,0,0,0,2.9-6.912a4.01,4.01,0,0,0-.45,1.944A4.1,4.1,0,0,0,2.9-3,3.183,3.183,0,0,0,4.1-1.719a3.262,3.262,0,0,0,1.674.441,3.31,3.31,0,0,0,1.683-.441A3.164,3.164,0,0,0,8.676-3,4.063,4.063,0,0,0,9.126-4.95ZM17.856.162a5.05,5.05,0,0,1-2.511-.63,4.485,4.485,0,0,1-1.764-1.791,5.491,5.491,0,0,1-.639-2.691A5.333,5.333,0,0,1,13.6-7.623,4.527,4.527,0,0,1,15.39-9.4a5.2,5.2,0,0,1,2.538-.621,5.2,5.2,0,0,1,2.538.621,4.543,4.543,0,0,1,1.791,1.773,5.32,5.32,0,0,1,.657,2.682,5.256,5.256,0,0,1-.675,2.691A4.678,4.678,0,0,1,20.412-.468,5.239,5.239,0,0,1,17.856.162Zm0-1.44a3.459,3.459,0,0,0,1.656-.414,3.15,3.15,0,0,0,1.251-1.242A3.978,3.978,0,0,0,21.24-4.95a4.04,4.04,0,0,0-.468-2.016A3.065,3.065,0,0,0,19.548-8.2a3.415,3.415,0,0,0-1.638-.4,3.4,3.4,0,0,0-1.647.4,2.969,2.969,0,0,0-1.2,1.233,4.171,4.171,0,0,0-.45,2.016,4.284,4.284,0,0,0,.441,2.034,2.931,2.931,0,0,0,1.179,1.233A3.312,3.312,0,0,0,17.856-1.278ZM29.88-10.044A4,4,0,0,1,32.8-8.955a4.191,4.191,0,0,1,1.116,3.141V0h-1.62V-5.58a3.172,3.172,0,0,0-.738-2.259,2.637,2.637,0,0,0-2.016-.783,2.7,2.7,0,0,0-2.061.81,3.309,3.309,0,0,0-.765,2.358V0H25.074V-9.864h1.638v1.4a3.252,3.252,0,0,1,1.323-1.17A4.1,4.1,0,0,1,29.88-10.044ZM45.594-5.31a9.64,9.64,0,0,1-.054.99H37.656a3.189,3.189,0,0,0,1,2.277,3.177,3.177,0,0,0,2.205.819,3.029,3.029,0,0,0,1.773-.495,2.62,2.62,0,0,0,1-1.323H45.4A4.24,4.24,0,0,1,43.812-.729,4.781,4.781,0,0,1,40.86.162a4.986,4.986,0,0,1-2.511-.63,4.459,4.459,0,0,1-1.737-1.791,5.554,5.554,0,0,1-.63-2.691,5.634,5.634,0,0,1,.612-2.682A4.3,4.3,0,0,1,38.313-9.4a5.117,5.117,0,0,1,2.547-.621,4.95,4.95,0,0,1,2.484.612,4.238,4.238,0,0,1,1.665,1.683A4.967,4.967,0,0,1,45.594-5.31ZM43.9-5.652a3.021,3.021,0,0,0-.414-1.611,2.692,2.692,0,0,0-1.125-1.026,3.509,3.509,0,0,0-1.575-.351,3.036,3.036,0,0,0-2.115.792,3.227,3.227,0,0,0-1,2.2Z" transform="translate(64.618 407.696)"/>
      </g>
      <g id="Group_204" data-name="Group 204" transform="translate(4)">
        <circle id="Ellipse_31" data-name="Ellipse 31" cx="55" cy="55" r="55" transform="translate(245.944 31.009)" fill="#fff" stroke="#cad1de" stroke-miterlimit="10" stroke-width="2"/>
        <g id="folder" transform="translate(276.405 56.887)">
          <path id="Path_486" data-name="Path 486" d="M46.324,58H1.565a1.564,1.564,0,0,1-1.51-1.973L10.221,28.156A1.564,1.564,0,0,1,11.731,27H56.49c1.03,0,1.51.984,1.51,1.973L47.834,56.844A1.564,1.564,0,0,1,46.324,58Z" fill="#cad1de"/>
          <path id="Path_487" data-name="Path 487" d="M50.268,18H48v9h4V19.732A1.732,1.732,0,0,0,50.268,18Z" fill="#b1b1b1"/>
          <path id="Path_488" data-name="Path 488" d="M4,11H1.732A1.732,1.732,0,0,0,0,12.732V55.46c.069,0,.138.006.2.01L4,45.122Z" fill="#cad1de"/>
          <path id="Path_489" data-name="Path 489" d="M10.221,28.156A1.564,1.564,0,0,1,11.731,27H48V0H10V28.761Z" fill="#fcfcfc"/>
          <g id="Group_165" data-name="Group 165">
            <path id="Path_490" data-name="Path 490" d="M17,16H41a1,1,0,0,0,0-2H17a1,1,0,0,0,0,2Z" fill="#cec9ae"/>
            <path id="Path_491" data-name="Path 491" d="M17,9H27a1,1,0,0,0,0-2H17a1,1,0,0,0,0,2Z" fill="#cec9ae"/>
            <path id="Path_492" data-name="Path 492" d="M41,21H17a1,1,0,0,0,0,2H41a1,1,0,0,0,0-2Z" fill="#cec9ae"/>
          </g>
          <path id="Path_493" data-name="Path 493" d="M10,28.761V2H7V36.986Z" fill="#e3e3e3"/>
          <path id="Path_494" data-name="Path 494" d="M7,36.986V4H4V45.211Z" fill="#b1b1b1"/>
        </g>
      </g>
      <g id="Group_205" data-name="Group 205" transform="translate(1.064)">
        <circle id="Ellipse_40" data-name="Ellipse 40" cx="55" cy="55" r="55" transform="translate(456.015 31.009)" fill="#fff" stroke="#58bc6e" stroke-miterlimit="10" stroke-width="2"/>
        <g id="desktop" transform="translate(483.405 48.26)">
          <path id="Path_495" data-name="Path 495" d="M164.078,401l-9.433,3.363-.358,1.25A4.732,4.732,0,0,1,150,408.848v.841h19.564Z" transform="translate(-133.183 -346.276)" fill="#eaeaea"/>
          <path id="Path_496" data-name="Path 496" d="M204.584,378.977l-1.318-4.613L197.828,371l-5.437,3.363-.961,3.363h9.433l.358,1.25a4.732,4.732,0,0,0,4.287,3.234l1.682.841,1.682-.841A4.732,4.732,0,0,1,204.584,378.977Z" transform="translate(-169.968 -319.639)" fill="#d6d6d6"/>
          <path id="Path_497" data-name="Path 497" d="M437,267.817h3.363a3.373,3.373,0,0,0,3.363-3.363v-6.727L437,251Z" transform="translate(-388.006 -213.093)" fill="#d6d6d6"/>
          <path id="Path_498" data-name="Path 498" d="M0,211.18a3.373,3.373,0,0,0,3.363,3.363h45.63a3.373,3.373,0,0,0,3.363-3.363V191L0,204.454Z" transform="translate(0 -159.82)" fill="#eaeaea"/>
          <path id="Path_499" data-name="Path 499" d="M440.363,11H437l3.363,33.634h3.363V14.363A3.373,3.373,0,0,0,440.363,11Z" transform="translate(-388.006 0)" fill="#555"/>
          <path id="Path_500" data-name="Path 500" d="M52.357,14.363A3.373,3.373,0,0,0,48.994,11H3.363A3.373,3.373,0,0,0,0,14.363V44.634H52.357V41.271L27.86,27.816Z" transform="translate(0 0)" fill="#747474"/>
          <path id="Path_501" data-name="Path 501" d="M273,40.976l-3.363,0L248.5,54.429l21.133,13.455,3.363,0S273,40.977,273,40.976Z" transform="translate(-220.64 -26.614)" fill="#58bc6e"/>
          <path id="Path_502" data-name="Path 502" d="M75.63,40.975l-45.62,0S30,67.883,30,67.883l45.629,0S75.626,40.976,75.63,40.975Z" transform="translate(-26.637 -26.613)" fill="#8ce29f"/>
          <circle id="Ellipse_41" data-name="Ellipse 41" cx="1.682" cy="1.682" r="1.682" transform="translate(26.179 47.997)" fill="#fff"/>
          <path id="Path_503" data-name="Path 503" d="M121.6,472.682H86.841a.841.841,0,1,1,0-1.682H121.6a.841.841,0,1,1,0,1.682Z" transform="translate(-76.358 -408.428)" fill="#d6d6d6"/>
        </g>
      </g>
      <g id="Group_206" data-name="Group 206" transform="translate(211.771 -209.13)">
        <circle id="Ellipse_43" data-name="Ellipse 43" cx="55" cy="55" r="55" transform="translate(456.015 240.139)" fill="#fff" stroke="#696969" stroke-miterlimit="10" stroke-width="2"/>
        <g id="access" transform="translate(479.984 214.458)">
          <path id="Path_505" data-name="Path 505" d="M19.2,110.934H65.746V76.8L19.2,76.8Z" transform="translate(-16.873 -16.873)" fill="#b5b5b5"/>
          <path id="Path_506" data-name="Path 506" d="M234.473,76.8H211.2v34.132h23.273Z" transform="translate(-185.6 -16.873)" fill="#8b8b8b"/>
          <path id="Path_507" data-name="Path 507" d="M50.519,58.282a2.327,2.327,0,0,0-1.646-.682l-46.546,0A2.327,2.327,0,0,0,0,59.93V94.061a2.327,2.327,0,0,0,2.327,2.327H17.067v4.655H14.739a2.327,2.327,0,0,0,0,4.655H36.461a2.327,2.327,0,1,0,0-4.655H34.134V96.388H48.873A2.327,2.327,0,0,0,51.2,94.061V59.927A2.326,2.326,0,0,0,50.519,58.282ZM46.546,91.734H4.655V62.257l41.891,0Z" fill="#dbdbdb"/>
          <path id="Path_508" data-name="Path 508" d="M236.118,58.282a2.327,2.327,0,0,0-1.646-.682H211.2v4.655h20.946V91.734H211.2V105.7h10.861a2.327,2.327,0,1,0,0-4.655h-2.327V96.388h14.739a2.327,2.327,0,0,0,2.327-2.327V59.927A2.327,2.327,0,0,0,236.118,58.282Z" transform="translate(-185.6)" fill="#d5d5d5"/>
          <g id="Group_166" data-name="Group 166" transform="translate(9.599 65.344)">
            <path id="Path_509" data-name="Path 509" d="M290.572,202.9a10.085,10.085,0,1,0-14.064,0,14.752,14.752,0,0,0-7.707,12.951,2.327,2.327,0,0,0,2.327,2.327h24.824a2.327,2.327,0,0,0,2.327-2.327A14.752,14.752,0,0,0,290.572,202.9Z" transform="translate(-245.817 -177.829)" fill="#696969"/>
          </g>
          <g id="Group_167" data-name="Group 167" transform="translate(11.644 68.774)">
            <path id="Path_511" data-name="Path 511" d="M397.432,202.9a10.078,10.078,0,0,0-7.032-17.3v32.582h12.412a2.327,2.327,0,0,0,2.327-2.327A14.752,14.752,0,0,0,397.432,202.9Z" transform="translate(-354.723 -181.258)" fill="#696969"/>
          </g>
        </g>
      </g>
      <g id="Group_212" data-name="Group 212" transform="translate(-13)">
        <circle id="Ellipse_46" data-name="Ellipse 46" cx="55" cy="55" r="55" transform="translate(893.218 32.25)" fill="#fff" stroke="#cad1de" stroke-miterlimit="10" stroke-width="2"/>
        <g id="clock" transform="translate(913.405 61.438)">
          <g id="Group_169" data-name="Group 169" transform="translate(-1 -6.35)">
            <path id="Path_512" data-name="Path 512" d="M19.875,81.213v32.906h2.843a4.484,4.484,0,0,1,3.883,6.726l-9.113,15.783a4.484,4.484,0,0,1-7.766,0L.607,120.846a4.484,4.484,0,0,1,3.883-6.727H7.335V81.213a2.822,2.822,0,0,1,2.822-2.822h6.9a2.822,2.822,0,0,1,2.822,2.822Z" transform="translate(0 -78.391)" fill="#b1b1b1"/>
          </g>
          <g id="Group_178" data-name="Group 178" transform="translate(12.103 5.76)">
            <ellipse id="Ellipse_44" data-name="Ellipse 44" cx="24.185" cy="24.185" rx="24.185" ry="24.185" transform="translate(0 0)" fill="#cec9ae"/>
            <ellipse id="Ellipse_45" data-name="Ellipse 45" cx="18.484" cy="18.484" rx="18.484" ry="18.484" transform="translate(5.701 5.7)" fill="#f8f8f8"/>
            <path id="Path_517" data-name="Path 517" d="M145.749,226.954a18.485,18.485,0,1,1,0-36.432,18.487,18.487,0,0,0,0,36.432Z" transform="translate(-118.335 -184.553)" fill="#eaeaea"/>
            <path id="Path_518" data-name="Path 518" d="M188.533,310.54h-8.588a2.355,2.355,0,1,1,0-4.709h8.588a2.355,2.355,0,1,1,0,4.709Z" transform="translate(-164.349 -284.001)" fill="#393939"/>
            <path id="Path_519" data-name="Path 519" d="M241.479,273.471a2.355,2.355,0,0,1-2.355-2.355V265.1a2.355,2.355,0,0,1,4.709,0v6.013A2.355,2.355,0,0,1,241.479,273.471Z" transform="translate(-217.294 -246.932)" fill="#393939"/>
            <g id="Group_177" data-name="Group 177" transform="translate(5.262 5.262)">
              <g id="Group_171" data-name="Group 171" transform="translate(17.844)">
                <path id="Path_520" data-name="Path 520" d="M249.348,192.989a1.078,1.078,0,0,1-1.078-1.078V188.2a1.078,1.078,0,0,1,2.156,0v3.714A1.078,1.078,0,0,1,249.348,192.989Z" transform="translate(-248.27 -187.118)" fill="#7c8489"/>
                <path id="Path_521" data-name="Path 521" d="M249.348,422.093a1.078,1.078,0,0,1-1.078-1.078V417.3a1.078,1.078,0,1,1,2.156,0v3.714A1.078,1.078,0,0,1,249.348,422.093Z" transform="translate(-248.27 -384.248)" fill="#7c8489"/>
              </g>
              <g id="Group_172" data-name="Group 172" transform="translate(0 17.844)">
                <path id="Path_522" data-name="Path 522" d="M354.308,317.133h-3.714a1.078,1.078,0,0,1,0-2.156h3.714a1.078,1.078,0,0,1,0,2.156Z" transform="translate(-317.541 -314.977)" fill="#365e7d"/>
                <path id="Path_523" data-name="Path 523" d="M125.2,317.133h-3.714a1.078,1.078,0,1,1,0-2.156H125.2a1.078,1.078,0,1,1,0,2.156Z" transform="translate(-120.411 -314.977)" fill="#7c8489"/>
              </g>
            </g>
            <path id="Path_532" data-name="Path 532" d="M135.387,221.657a19.562,19.562,0,1,1,19.563-19.562A19.585,19.585,0,0,1,135.387,221.657Zm0-36.968a17.406,17.406,0,1,0,17.406,17.406A17.426,17.426,0,0,0,135.387,184.689Z" transform="translate(-111.203 -177.91)" fill="#f0e4a0"/>
          </g>
          <g id="Group_179" data-name="Group 179" transform="translate(44.807 3.562)">
            <path id="Path_533" data-name="Path 533" d="M336.913,242.5v10.4h2.843a4.484,4.484,0,0,1,3.883,6.726l-9.113,15.783a4.484,4.484,0,0,1-7.767,0l-9.114-15.783a4.484,4.484,0,0,1,3.883-6.727h2.845V242.5a2.822,2.822,0,0,1,2.822-2.822h6.9A2.822,2.822,0,0,1,336.913,242.5Z" transform="translate(-317.038 -239.678)" fill="#cad1de"/>
            <path id="Path_534" data-name="Path 534" d="M329.791,239.685h-2.6a2.821,2.821,0,0,0-2.821,2.821v10.4h-2.846a4.483,4.483,0,0,0-3.882,6.726l9.113,15.783a4.442,4.442,0,0,0,3.884,2.241,3,3,0,0,1-2.6-2.241l-6.105-15.783c-1.158-2.99.289-6.726,2.6-6.726h1.169a2.194,2.194,0,0,0,2.194-2.194v-8.2C327.9,240.949,328.747,239.685,329.791,239.685Z" transform="translate(-317.037 -239.685)" fill="#b7b8ba"/>
          </g>
        </g>
      </g>
      <g id="Group_202" data-name="Group 202" transform="translate(-9.11 -4.13)">
        <g id="Group_211" data-name="Group 211" transform="translate(1061 -205)">
          <circle id="Ellipse_48" data-name="Ellipse 48" cx="55" cy="55" r="55" transform="translate(38.449 240.139)" fill="#fff" stroke="#de3a32" stroke-miterlimit="10" stroke-width="2"/>
          <g id="handshake" transform="translate(59.556 216.6)">
            <g id="Group_181" data-name="Group 181" transform="translate(9.233 65.53)">
              <path id="Path_535" data-name="Path 535" d="M84.434,127.821l-12.147,3.55-2.71,10.751c.469,3.949,1.209,7.645,3.65,9.715l20.147,16.374,2.437,1.875c3.67,2.823,7.146-1.122,4.356-4.038-.039-.043-.081-.085-.124-.128a3.6,3.6,0,0,0,2.926.866c2.038-.33,3.433-2.489,1.558-4.5,3.666,2.928,6.8-1.736,3.925-4.294,3.2,1.009,6.688-3.141,3.364-6.667-.023-.027-.05-.058-.077-.085L103.4,138.825l-11.18-7.164Z" transform="translate(-69.577 -127.821)" fill="#ffead9" fill-rule="evenodd"/>
            </g>
            <g id="Group_182" data-name="Group 182" transform="translate(25.394 100.73)">
              <path id="Path_536" data-name="Path 536" d="M198.7,398.614c3.1-3.3-1.422-7.105-3.922-4.865L192.1,396.3a.844.844,0,0,1-.089.081c-2.248,2.26,1.837,7.408,5.216,3.805Z" transform="translate(-191.363 -393.076)" fill="#ffe5c1" fill-rule="evenodd"/>
            </g>
            <g id="Group_183" data-name="Group 183" transform="translate(20.615 95.389)">
              <path id="Path_537" data-name="Path 537" d="M158.872,354.237l-2.829,2.966-.012.016c-1.418,1.507-.434,3.817,1.244,4.718a2.923,2.923,0,0,0,3.5-.462l3.03-.047-.264-2.582.387-.365c3.03-2.881-1.345-7.859-4.759-4.558Z" transform="translate(-155.351 -352.833)" fill="#ffe5c1" fill-rule="evenodd"/>
            </g>
            <g id="Group_184" data-name="Group 184" transform="translate(15.293 90.001)">
              <path id="Path_538" data-name="Path 538" d="M119.032,314.956l-2.651,2.815-.372.4c-2.616,2.776,2.069,7.148,4.77,4.314l.465-.481c.039-.043,2.879-.338,3.189-.373l-.05-2.924.907-.951c3.119-3.273-1.755-7.583-4.724-4.426Z" transform="translate(-115.241 -312.228)" fill="#ffe5c1" fill-rule="evenodd"/>
            </g>
            <g id="Group_185" data-name="Group 185" transform="translate(11.072 87.248)">
              <path id="Path_539" data-name="Path 539" d="M85.248,293.778l-.9.975c-2.767,3.005,1.356,7.8,4.449,5.024l2.538-.392.112-2.423c2.507-2.838-1.864-7.89-5.305-4.155Z" transform="translate(-83.437 -291.482)" fill="#ffe5c1" fill-rule="evenodd"/>
            </g>
            <g id="Group_186" data-name="Group 186" transform="translate(0 56.298)">
              <path id="Path_540" data-name="Path 540" d="M16.681,59.051,4.377,70.9l-3.5,3.366A2.887,2.887,0,0,0,.8,78.329l5.22,5.444a.8.8,0,0,0,1.128.023l2.089-2.011,14.857-14.3,1.845-1.778a.8.8,0,0,0,.023-1.13l-5.22-5.444A2.873,2.873,0,0,0,16.681,59.051Z" transform="translate(0 -58.253)" fill="#ffc8c6" fill-rule="evenodd"/>
            </g>
            <g id="Group_187" data-name="Group 187" transform="translate(36.343 77.691)">
              <path id="Path_541" data-name="Path 541" d="M277.608,219.46l-3.736.854,1.465,1.487,11.315,11.252.078.085a4.1,4.1,0,0,1,1.147,4.248c2.236-.854,3.658-3.9,1.124-6.589l-.078-.085-3.395-3.374Z" transform="translate(-273.872 -219.46)" fill="#fddec5" fill-rule="evenodd"/>
            </g>
            <g id="Group_188" data-name="Group 188" transform="translate(21.711 65.53)">
              <path id="Path_542" data-name="Path 542" d="M165.985,127.821l-2.379,2.287,7.436,3.669,2.732-2.116Z" transform="translate(-163.606 -127.821)" fill="#fddec5" fill-rule="evenodd"/>
            </g>
            <g id="Group_189" data-name="Group 189" transform="translate(23.541 64.68)">
              <path id="Path_543" data-name="Path 543" d="M185.735,126.1,183,128.22l-2.573,1.988c-6.5,5.032-1.108,10,2.747,8.3l4.336-2.613,2.685-.613,3.736-.854,7.921,7.878,3.395,3.374c2.135-.8,5.154-3.106,8.413-8.356l-4.954-10.365-11.57-5.543-2.968,2.372c-.488.388-.341.314-.957.3-2.228-.07-5.061.151-6.723,1.437Z" transform="translate(-177.397 -121.414)" fill="#ffe5c1" fill-rule="evenodd"/>
            </g>
            <g id="Group_190" data-name="Group 190" transform="translate(23.935 76.364)">
              <path id="Path_544" data-name="Path 544" d="M188.3,210.53l-4.336,2.613a4.232,4.232,0,0,1-3.6-.124,4.272,4.272,0,0,0,5.386,1.852l4.336-2.613,2.686-.613,3.689-.843c-1.709-1.464-2.015-1.677-5.483-.881Z" transform="translate(-180.368 -209.464)" fill="#fed1a3" fill-rule="evenodd"/>
            </g>
            <g id="Group_191" data-name="Group 191" transform="translate(48.759 77.99)">
              <path id="Path_545" data-name="Path 545" d="M375.785,221.713c-2.9,4.671-5.611,7.012-7.677,8.037a7.007,7.007,0,0,1-.674.3l2.635,2.621c2.135-.8,5.154-3.106,8.413-8.356Z" transform="translate(-367.434 -221.713)" fill="#fed1a3" fill-rule="evenodd"/>
            </g>
            <g id="Group_192" data-name="Group 192" transform="translate(12.472 56.298)">
              <path id="Path_546" data-name="Path 546" d="M93.99,63.1a2.873,2.873,0,0,1,4.042.093l5.22,5.444a.8.8,0,0,1-.023,1.13l2.379-2.287,1.845-1.778a.8.8,0,0,0,.023-1.13l-5.22-5.444A2.873,2.873,0,0,0,98.2,59.05Z" transform="translate(-93.99 -58.251)" fill="#ff9995" fill-rule="evenodd"/>
            </g>
            <g id="Group_193" data-name="Group 193" transform="translate(11.074 88.858)">
              <path id="Path_547" data-name="Path 547" d="M83.448,307.57c.027,2.543,3,4.846,5.359,2.726l1.662-1.763.988-1.052a3.131,3.131,0,0,0,.139-3.871,2.91,2.91,0,0,1-.744,1.937l-1.759,1.868-.887.947A3.052,3.052,0,0,1,83.448,307.57Z" transform="translate(-83.448 -303.61)" fill="#fed1a3" fill-rule="evenodd"/>
            </g>
            <g id="Group_194" data-name="Group 194" transform="translate(15.414 90.663)">
              <path id="Path_548" data-name="Path 548" d="M116.154,325.14c.62,2.081,3.515,3.669,5.417,1.67l.465-.481a.049.049,0,0,1,.012-.016l2.829-2.966c.1-.113.2-.217.3-.314l.907-.951a3.106,3.106,0,0,0-.372-4.865,3.133,3.133,0,0,1-.9,3.048l-.907.951c-.1.1-.2.2-.3.311v0l-2.829,2.966a.051.051,0,0,1-.016.012l-.461.485a2.964,2.964,0,0,1-4.143.148Z" transform="translate(-116.154 -317.215)" fill="#fed1a3" fill-rule="evenodd"/>
            </g>
            <g id="Group_195" data-name="Group 195" transform="translate(20.726 96.219)">
              <path id="Path_549" data-name="Path 549" d="M161.59,366.816l2.065-1.961.612-.586.387-.365a3.178,3.178,0,0,0-.2-4.819,3.018,3.018,0,0,1-.9,3.087l-.384.365-1.093,1.037-1.589,1.514-.089.078a2.93,2.93,0,0,1-3.5.466,3.671,3.671,0,0,1-.713-.509A3.757,3.757,0,0,0,158,367.359a2.923,2.923,0,0,0,3.5-.462Z" transform="translate(-156.188 -359.085)" fill="#fed1a3" fill-rule="evenodd"/>
            </g>
            <g id="Group_196" data-name="Group 196" transform="translate(25.396 101.756)">
              <path id="Path_550" data-name="Path 550" d="M198.708,405.32a3.091,3.091,0,0,0,.139-4.512,3.485,3.485,0,0,1-1.046,2.279l-1.473,1.573a3.125,3.125,0,0,1-4.952.047c.016,2.357,3.162,5.059,5.859,2.182Z" transform="translate(-191.376 -400.808)" fill="#fed1a3" fill-rule="evenodd"/>
            </g>
            <g id="Group_197" data-name="Group 197" transform="translate(42.952 90.821)">
              <path id="Path_551" data-name="Path 551" d="M328.827,324.307a1.022,1.022,0,0,1-.7-.275L324,320.184a1.026,1.026,0,0,1,1.4-1.5l4.131,3.848a1.026,1.026,0,0,1-.7,1.777Z" transform="translate(-323.671 -318.407)" fill="#fddec5"/>
            </g>
            <g id="Group_198" data-name="Group 198" transform="translate(39.022 95.112)">
              <path id="Path_552" data-name="Path 552" d="M299.221,356.643a1.021,1.021,0,0,1-.7-.275l-4.135-3.852a1.026,1.026,0,0,1,1.4-1.5l4.135,3.852a1.026,1.026,0,0,1-.7,1.777Z" transform="translate(-294.061 -350.739)" fill="#fddec5"/>
            </g>
            <g id="Group_199" data-name="Group 199" transform="translate(36.705 100.781)">
              <path id="Path_553" data-name="Path 553" d="M279.728,397.466a1.022,1.022,0,0,1-.7-.274l-2.1-1.957a1.026,1.026,0,0,1,1.4-1.5l2.1,1.957a1.026,1.026,0,0,1-.7,1.778Z" transform="translate(-276.599 -393.457)" fill="#fddec5"/>
            </g>
            <g id="Group_200" data-name="Group 200" transform="translate(41.763 55.999)">
              <path id="Path_554" data-name="Path 554" d="M316.233,64.68l13.826,13.31,2.7,2.6.992.955a.8.8,0,0,0,1.128-.023l2.724-2.842,2.5-2.6a2.887,2.887,0,0,0-.081-4.065L337.6,69.688,324.212,56.8a2.873,2.873,0,0,0-4.057.081l-5.22,5.444a.8.8,0,0,0,.023,1.13Z" transform="translate(-314.712 -55.999)" fill="#de3a32" fill-rule="evenodd"/>
            </g>
            <g id="Group_201" data-name="Group 201" transform="translate(57.354 68.702)">
              <path id="Path_555" data-name="Path 555" d="M438.48,151.725v0Zm-2.426,6.655-2.724,2.846a.8.8,0,0,1-1.128.019l2.453,2.365.992.955a.8.8,0,0,0,1.128-.023L439.5,161.7l2.5-2.6a2.887,2.887,0,0,0-.081-4.065l-3.054-2.939.26.252-.639-.617a2.886,2.886,0,0,1,.07,4.05Z" transform="translate(-432.202 -151.725)" fill="#b92821" fill-rule="evenodd"/>
            </g>
          </g>
        </g>
      </g>
    </g>
    <g id="Group_207" data-name="Group 207" transform="translate(-66 18)">
      <g id="Group_203" data-name="Group 203">
        <g id="Ellipse_39" data-name="Ellipse 39" transform="translate(251 2218)" fill="#fff" stroke="#e87a42" stroke-width="2">
          <circle cx="55" cy="55" r="55" stroke="none"/>
          <circle cx="55" cy="55" r="54" fill="none"/>
        </g>
        <g id="department" transform="translate(279.357 2246.643)">
          <path id="Path_463" data-name="Path 463" d="M40,0V51.51H53.322V3.552Zm0,0" transform="translate(-35.559)" fill="#c96b3b"/>
          <path id="Path_464" data-name="Path 464" d="M173.322,35.552,160,32V79.958h13.322Zm0,0" transform="translate(-142.238 -28.448)" fill="#e87a42"/>
          <path id="Path_465" data-name="Path 465" d="M280,112v39.077h8.881V114.22Zm0,0" transform="translate(-248.916 -99.566)" fill="#f7f4d2"/>
          <path id="Path_466" data-name="Path 466" d="M368.881,134.22,360,132v36.857h8.881Zm0,0" transform="translate(-320.035 -117.346)" fill="#fffde6"/>
          <path id="Path_467" data-name="Path 467" d="M96,368h7.1v10.657H96Zm0,0" transform="translate(-85.343 -327.147)" fill="#6d6e71" opacity="0.183"/>
          <path id="Path_468" data-name="Path 468" d="M160,368h7.1v10.657H160Zm0,0" transform="translate(-142.238 -327.147)" fill="#939598" opacity="0.183"/>
          <path id="Path_469" data-name="Path 469" d="M104,288h3.552v3.552H104Zm0,0" transform="translate(-92.455 -256.028)" fill="#f1f2f2"/>
          <path id="Path_470" data-name="Path 470" d="M184,288h3.552v3.552H184Zm0,0" transform="translate(-163.573 -256.028)" fill="#f1f2f2"/>
          <path id="Path_471" data-name="Path 471" d="M312,304h3.552v3.552H312Zm0,0" transform="translate(-277.364 -270.252)" fill="#c96b3b"/>
          <path id="Path_472" data-name="Path 472" d="M376,304h3.552v3.552H376Zm0,0" transform="translate(-334.259 -270.252)" fill="#c96b3b"/>
          <path id="Path_473" data-name="Path 473" d="M312,240h3.552v3.552H312Zm0,0" transform="translate(-277.364 -213.357)" fill="#c96b3b"/>
          <path id="Path_474" data-name="Path 474" d="M376,240h3.552v3.552H376Zm0,0" transform="translate(-334.259 -213.357)" fill="#c96b3b"/>
          <path id="Path_475" data-name="Path 475" d="M312,176h3.552v3.552H312Zm0,0" transform="translate(-277.364 -156.462)" fill="#c96b3b"/>
          <path id="Path_476" data-name="Path 476" d="M376,176h3.552v3.552H376Zm0,0" transform="translate(-334.259 -156.462)" fill="#c96b3b"/>
          <g id="Group_160" data-name="Group 160" transform="translate(11.545 10.657)">
            <path id="Path_477" data-name="Path 477" d="M104,224h3.552v3.552H104Zm0,0" transform="translate(-104 -209.79)" fill="#f1f2f2"/>
            <path id="Path_478" data-name="Path 478" d="M184,224h3.552v3.552H184Zm0,0" transform="translate(-175.119 -209.79)" fill="#f1f2f2"/>
            <path id="Path_479" data-name="Path 479" d="M104,160h3.552v3.552H104Zm0,0" transform="translate(-104 -152.895)" fill="#f1f2f2"/>
            <path id="Path_480" data-name="Path 480" d="M184,160h3.552v3.552H184Zm0,0" transform="translate(-175.119 -152.895)" fill="#f1f2f2"/>
            <path id="Path_481" data-name="Path 481" d="M104,96h3.552v3.552H104Zm0,0" transform="translate(-104 -96)" fill="#f1f2f2"/>
            <path id="Path_482" data-name="Path 482" d="M184,96h3.552v3.552H184Zm0,0" transform="translate(-175.119 -96)" fill="#f1f2f2"/>
          </g>
          <path id="Path_483" data-name="Path 483" d="M360,384h3.552v8.881H360Zm0,0" transform="translate(-320.035 -341.371)" fill="#a7a8ab" opacity="0.177"/>
          <path id="Path_484" data-name="Path 484" d="M328,384h3.552v8.881H328Zm0,0" transform="translate(-291.587 -341.371)" fill="#939598" opacity="0.177"/>
          <path id="Path_485" data-name="Path 485" d="M0,456H53.287v1.776H0Zm0,0" transform="translate(0 -405.378)" fill="#626262"/>
        </g>
      </g>
    </g>
  </g>
</svg>
